<?xml version="1.0" encoding="UTF-8" standalone="no"?>
<svg
   xmlns:dc="http://purl.org/dc/elements/1.1/"
   xmlns:cc="http://creativecommons.org/ns#"
   xmlns:rdf="http://www.w3.org/1999/02/22-rdf-syntax-ns#"
   xmlns:svg="http://www.w3.org/2000/svg"
   xmlns="http://www.w3.org/2000/svg"
   xmlns:sodipodi="http://sodipodi.sourceforge.net/DTD/sodipodi-0.dtd"
   xmlns:inkscape="http://www.inkscape.org/namespaces/inkscape"
   viewBox="0 0 390.82199 342.57101"
   version="1.1"
   id="svg310"
   sodipodi:docname="headerPic.svg"
   width="390.82199"
   height="342.57101"
   inkscape:version="1.0.2 (e86c870879, 2021-01-15, custom)">
  <metadata
     id="metadata316">
    <rdf:RDF>
      <cc:Work
         rdf:about="">
        <dc:format>image/svg+xml</dc:format>
        <dc:type
           rdf:resource="http://purl.org/dc/dcmitype/StillImage" />
        <dc:title></dc:title>
      </cc:Work>
    </rdf:RDF>
  </metadata>
  <defs
     id="defs314" />
  <sodipodi:namedview
     pagecolor="#ffffff"
     bordercolor="#666666"
     borderopacity="1"
     objecttolerance="10"
     gridtolerance="10"
     guidetolerance="10"
     inkscape:pageopacity="0"
     inkscape:pageshadow="2"
     inkscape:window-width="1920"
     inkscape:window-height="1001"
     id="namedview312"
     showgrid="false"
     inkscape:zoom="1.6033647"
     inkscape:cx="250"
     inkscape:cy="168.90191"
     inkscape:window-x="-9"
     inkscape:window-y="-9"
     inkscape:window-maximized="1"
     inkscape:current-layer="svg310" />
  <g
     id="freepik--background-simple--inject-31"
     transform="translate(-53.06818,-84.988607)">
    <path
       d="M 313,129.24 C 241.3,145.82 150.18,49.46 82.69,108.67 c -95.08,83.4 63.65,159.94 126.66,177.65 83.34,23.43 169.27,2.06 210.67,-81 18.07,-36.24 32.2,-86.83 -11.89,-111.84 C 356.77,64.33 358.4,118.74 313,129.24 Z"
       style="fill:#513314"
       id="path2" />
    <path
       d="M 313,129.24 C 241.3,145.82 150.18,49.46 82.69,108.67 c -95.08,83.4 63.65,159.94 126.66,177.65 83.34,23.43 169.27,2.06 210.67,-81 18.07,-36.24 32.2,-86.83 -11.89,-111.84 C 356.77,64.33 358.4,118.74 313,129.24 Z"
       style="opacity:0.9;fill:#ffffff"
       id="path4" />
  </g>
  <g
     id="freepik--Shadow--inject-31"
     transform="translate(-53.06818,-84.988607)">
    <ellipse
       cx="250"
       cy="416.23999"
       rx="193.89"
       ry="11.32"
       style="fill:#f5f5f5"
       id="ellipse7" />
  </g>
  <g
     id="freepik--Character--inject-31"
     transform="translate(-53.06818,-84.988607)">
    <polygon
       points="258.63,403.89 269.82,392.24 263.94,386.98 252.76,398.63 "
       style="fill:#e4897b"
       id="polygon10" />
    <polygon
       points="280.3,409.57 281.26,392.41 273.85,392.41 272.89,409.57 "
       style="fill:#e4897b"
       id="polygon12" />
    <path
       d="m 280.69,408.72 h -8.33 a 0.53,0.53 0 0 0 -0.55,0.5 l -0.4,6.59 a 1.31,1.31 0 0 0 1.29,1.32 c 2.9,-0.05 4.29,-0.22 7.95,-0.22 2.26,0 11.84,0.24 15,0.24 3.16,0 3,-3.08 1.7,-3.36 -5.91,-1.25 -13.24,-3 -15.33,-4.62 a 2.14,2.14 0 0 0 -1.33,-0.45 z"
       style="fill:#263238"
       id="path14" />
    <path
       d="M 260.26,401.78 253.11,397 a 0.66,0.66 0 0 0 -0.82,0 l -5.46,5.51 a 1.1,1.1 0 0 0 0.27,1.67 c 4.55,3.51 7.85,6.16 10.44,9.08 3,3.41 4.63,3.9 11.63,3.9 3.23,0 5.07,-2.73 3.75,-3.15 -11.67,-3.69 -8.55,-5.3 -11.38,-10.71 a 4.06,4.06 0 0 0 -1.28,-1.52 z"
       style="fill:#263238"
       id="path16" />
    <path
       d="m 308.68,163.41 c 0.14,0.44 0.36,1.11 0.56,1.67 l 0.65,1.79 c 0.44,1.19 0.92,2.37 1.43,3.54 a 68.6,68.6 0 0 0 3.36,6.76 c 2.45,4.31 5.44,8.2 9,10.69 l 0.62,0.42 a 0.07,0.07 0 0 1 0,0.05 c 0,0 0,0.06 0.15,0.08 a 4,4 0 0 0 1.93,-0.52 25.66,25.66 0 0 0 5.6,-4.07 74.3,74.3 0 0 0 5.48,-5.58 c 1.79,-2 3.54,-4.06 5.19,-6.09 l 4.76,2.88 a 70.67,70.67 0 0 1 -9.26,14.67 31.09,31.09 0 0 1 -7.11,6.45 14.13,14.13 0 0 1 -5.83,2.13 10.55,10.55 0 0 1 -3.94,-0.36 10.24,10.24 0 0 1 -1.9,-0.78 l -1.15,-0.65 a 32.66,32.66 0 0 1 -7.52,-6.2 47.33,47.33 0 0 1 -5.55,-7.4 62.27,62.27 0 0 1 -4.17,-8 c -0.6,-1.36 -1.15,-2.73 -1.67,-4.13 -0.25,-0.7 -0.51,-1.4 -0.74,-2.11 -0.23,-0.71 -0.43,-1.39 -0.68,-2.28 z"
       style="fill:#e4897b"
       id="path18" />
    <path
       d="m 295.16,162 c -2.27,6.64 11.07,26.17 11.07,26.17 L 319,181.08 a 149,149 0 0 0 -7.68,-17.8 c -4.49,-8.44 -13.67,-8.57 -16.16,-1.28 z"
       style="fill:#263238"
       id="path20" />
    <path
       d="m 295,162.83 c 2.86,-1.37 6.16,-0.22 9.62,5.26 3.46,5.48 6.42,14.63 6.75,17.24 l -5.11,2.83 c 0,0 -12.34,-18.04 -11.26,-25.33 z"
       style="fill:#513314"
       id="path22" />
    <path
       d="m 295,162.83 c 2.86,-1.37 6.16,-0.22 9.62,5.26 3.46,5.48 6.42,14.63 6.75,17.24 l -5.11,2.83 c 0,0 -12.34,-18.04 -11.26,-25.33 z"
       style="opacity:0.8"
       id="path24" />
    <path
       d="m 342.34,172 2.65,-6.44 5.94,4.54 c 0,0 -3.61,7.27 -6.06,6.61 z"
       style="fill:#e4897b"
       id="path26" />
    <polygon
       points="356.19,168.1 350.93,170.06 344.99,165.51 353.42,164.69 "
       style="fill:#e4897b"
       id="polygon28" />
    <polygon
       points="264.05,398.25 258.17,392.98 263.94,386.98 269.81,392.24 "
       style="fill:#ce6f64"
       id="polygon30" />
    <polygon
       points="281.26,392.41 280.76,401.26 273.35,401.26 273.85,392.41 "
       style="fill:#ce6f64"
       id="polygon32" />
    <path
       d="m 303.79,156.92 c 0,0 9.53,22.39 2.66,64.08 H 266.8 c -0.49,-6.09 2.31,-35.78 -4.56,-64.46 a 101.24,101.24 0 0 1 13.22,-1.68 148.07,148.07 0 0 1 16.86,0 76.17,76.17 0 0 1 11.47,2.06 z"
       style="fill:#263238"
       id="path34" />
    <path
       d="m 271.1,163.62 c 0.83,4.72 -0.27,16 -4.31,29.06 a 190.75,190.75 0 0 0 -3.9,-33.29 v -0.06 c 2.6,-0.26 7.43,-0.14 8.21,4.29 z"
       style="fill:#513314"
       id="path36" />
    <path
       d="m 271.1,163.62 c 0.83,4.72 -0.27,16 -4.31,29.06 a 190.75,190.75 0 0 0 -3.9,-33.29 v -0.06 c 2.6,-0.26 7.43,-0.14 8.21,4.29 z"
       style="opacity:0.8"
       id="path38" />
    <path
       d="m 276.47,135.88 c 1.25,5.42 2.66,15.36 -1,19 0,0 1.58,4.49 11.66,4.49 11.08,0 5.2,-4.49 5.2,-4.49 -6.1,-1.44 -6.1,-5.93 -5.19,-10.14 z"
       style="fill:#e4897b"
       id="path40" />
    <path
       d="m 280.81,139.49 6.31,5.22 a 17.35,17.35 0 0 0 -0.42,3 c -2.32,-0.33 -5.58,-2.87 -5.91,-5.29 a 8.34,8.34 0 0 1 0.02,-2.93 z"
       style="fill:#ce6f64"
       id="path42" />
    <path
       d="m 289.62,117.5 c 3.8,1.29 6.82,11.34 2.4,14 -4.42,2.66 -9.59,-16.45 -2.4,-14 z"
       style="fill:#263238"
       id="path44" />
    <path
       d="m 274.1,130.2 c 2.26,7 3.22,11.23 7.78,14.1 a 9.59,9.59 0 0 0 14.77,-8.38 c -0.09,-6.73 -3.77,-17.09 -11.51,-18.39 A 9.71,9.71 0 0 0 274.1,130.2 Z"
       style="fill:#e4897b"
       id="path46" />
    <path
       d="m 266.56,119.61 c -3.34,1.89 -5,6.84 -1.45,11 4.61,5.39 12.57,8.7 14.76,6.53 3.64,-1.55 2.51,-4.13 -2.87,-12 2.25,-0.22 17.65,-1.28 20.89,-10.08 1.78,-4.84 -5.51,-11 -13.22,-11.39 3,7.55 -17.55,7.33 -18.11,15.94 z"
       style="fill:#263238"
       id="path48" />
    <path
       d="m 272.86,138.75 a 7.34,7.34 0 0 0 5,2.07 c 2.47,0 3,-2.34 1.66,-4.3 -1.17,-1.76 -3.87,-3.88 -6.06,-2.93 -2.19,0.95 -2.24,3.55 -0.6,5.16 z"
       style="fill:#e4897b"
       id="path50" />
    <path
       d="m 306.45,221 c 0,0 7.81,54.06 10.48,83.48 2.14,23.61 -48.91,94 -48.91,94 l -9.88,-9.29 c 0,0 37.29,-63.11 34.42,-89.39 C 289.78,274.38 280.35,221 280.35,221 Z"
       style="fill:#513314"
       id="path52" />
    <path
       d="m 306.45,221 c 0,0 7.81,54.06 10.48,83.48 2.14,23.61 -48.91,94 -48.91,94 l -9.88,-9.29 c 0,0 37.29,-63.11 34.42,-89.39 C 289.78,274.38 280.35,221 280.35,221 Z"
       style="opacity:0.5;fill:#ffffff"
       id="path54" />
    <path
       d="m 292.55,299.83 c -1.43,-13.11 -4.63,-33.65 -7.38,-50.47 1.44,-2.82 5.48,-8.53 5.48,-8.53 3.62,12.51 11.49,59.67 0.26,123.36 -11.7,18.86 -22.9,34.32 -22.9,34.32 l -1.53,-24.32 c 10.81,-20.34 28.06,-56.19 26.07,-74.36 z"
       style="fill:#513314"
       id="path56" />
    <path
       d="m 292.55,299.83 c -1.43,-13.11 -4.63,-33.65 -7.38,-50.47 1.44,-2.82 5.48,-8.53 5.48,-8.53 3.62,12.51 11.49,59.67 0.26,123.36 -11.7,18.86 -22.9,34.32 -22.9,34.32 l -1.53,-24.32 c 10.81,-20.34 28.06,-56.19 26.07,-74.36 z"
       style="opacity:0.3;fill:#ffffff"
       id="path58" />
    <polygon
       points="268.62,399.08 272.18,395.25 259.51,383.71 257.54,388.66 "
       style="fill:#513314"
       id="polygon60" />
    <polygon
       points="268.62,399.08 272.18,395.25 259.51,383.71 257.54,388.66 "
       style="opacity:0.2"
       id="polygon62" />
    <path
       d="m 292.35,221 c 0,0 0.71,56.65 -0.5,77.88 -1.31,23.24 -7.91,100.25 -7.91,100.25 h -13.57 c 0,0 0.4,-75.13 -0.37,-98.13 -0.88,-25 -3.18,-80 -3.18,-80 z"
       style="fill:#513314"
       id="path64" />
    <path
       d="m 292.35,221 c 0,0 0.71,56.65 -0.5,77.88 -1.31,23.24 -7.91,100.25 -7.91,100.25 h -13.57 c 0,0 0.4,-75.13 -0.37,-98.13 -0.88,-25 -3.18,-80 -3.18,-80 z"
       style="opacity:0.5;fill:#ffffff"
       id="path66" />
    <polygon
       points="284.49,399.13 285.31,393.97 269.11,394.78 269.82,399.13 "
       style="fill:#513314"
       id="polygon68" />
    <polygon
       points="284.49,399.13 285.31,393.97 269.11,394.78 269.82,399.13 "
       style="opacity:0.2"
       id="polygon70" />
    <path
       d="m 285,130 c 0.14,0.58 0.57,1 1,0.9 0.43,-0.1 0.57,-0.62 0.42,-1.2 -0.15,-0.58 -0.58,-1 -1,-0.9 -0.42,0.1 -0.6,0.6 -0.42,1.2 z"
       style="fill:#263238"
       id="path72" />
    <path
       d="m 291.57,128.54 c 0.15,0.58 0.58,1 1,0.9 0.42,-0.1 0.57,-0.62 0.42,-1.2 -0.15,-0.58 -0.58,-1 -1,-0.9 -0.42,0.1 -0.57,0.66 -0.42,1.2 z"
       style="fill:#263238"
       id="path74" />
    <path
       d="m 290.07,129.11 a 22.57,22.57 0 0 0 4.05,4.35 3.39,3.39 0 0 1 -2.65,1.13 z"
       style="fill:#de5753"
       id="path76" />
    <path
       d="M 289.32,137.2 A 5.08,5.08 0 0 1 286,136 a 0.17327723,0.17327723 0 1 1 0.24,-0.25 5,5 0 0 0 4.24,1 0.18,0.18 0 0 1 0.21,0.13 0.17,0.17 0 0 1 -0.14,0.21 5.38,5.38 0 0 1 -1.23,0.11 z"
       style="fill:#263238"
       id="path78" />
    <path
       d="m 282.87,128.14 h -0.14 a 0.35,0.35 0 0 1 -0.18,-0.46 3.41,3.41 0 0 1 2.44,-2 0.35429507,0.35429507 0 0 1 0.11,0.7 v 0 a 2.66,2.66 0 0 0 -1.9,1.61 0.36,0.36 0 0 1 -0.33,0.15 z"
       style="fill:#263238"
       id="path80" />
    <path
       d="m 294.43,125.85 a 0.31,0.31 0 0 1 -0.29,-0.06 3,3 0 0 0 -2.54,-0.54 0.33,0.33 0 0 1 -0.44,-0.22 0.34,0.34 0 0 1 0.22,-0.44 3.62,3.62 0 0 1 3.18,0.64 0.35,0.35 0 0 1 0.07,0.49 0.34,0.34 0 0 1 -0.2,0.13 z"
       style="fill:#263238"
       id="path82" />
    <path
       d="m 269.81,167.68 -1.76,3 q -0.89,1.56 -1.74,3.15 c -1.13,2.12 -2.23,4.25 -3.28,6.39 -1.05,2.14 -2,4.31 -2.89,6.48 a 66,66 0 0 0 -2.25,6.5 l -0.12,0.41 -0.06,0.2 c 0,0.07 0,0 0,0.05 0,0.05 0,0.09 -0.05,0.18 a 3.53,3.53 0 0 0 0,0.93 13.64,13.64 0 0 0 0.59,2.78 48.9,48.9 0 0 0 2.53,6.34 c 2,4.29 4.43,8.67 6.86,12.89 l -4.39,3.43 a 84.65,84.65 0 0 1 -9.88,-12.13 47.67,47.67 0 0 1 -4,-7.21 23.11,23.11 0 0 1 -1.46,-4.46 14.06,14.06 0 0 1 -0.31,-2.82 11.45,11.45 0 0 1 0.13,-1.69 l 0.07,-0.42 0.05,-0.25 0.1,-0.51 a 73.7,73.7 0 0 1 5,-15.35 c 1,-2.41 2.2,-4.77 3.43,-7.08 0.61,-1.16 1.25,-2.3 1.9,-3.44 0.65,-1.14 1.31,-2.23 2.1,-3.44 z"
       style="fill:#e4897b"
       id="path84" />
    <path
       d="m 262.24,156.54 c -7,1 -14.17,25.32 -14.17,25.32 l 15,8.32 c 0,0 6.09,-11.56 9,-20.14 3.05,-8.99 -2.34,-14.6 -9.83,-13.5 z"
       style="fill:#263238"
       id="path86" />
    <path
       d="m 283.32,410 a 8.94,8.94 0 0 1 -2,-0.27 0.17,0.17 0 0 1 -0.13,-0.13 0.2,0.2 0 0 1 0.07,-0.18 c 0.24,-0.16 2.35,-1.6 3.24,-1.24 a 0.63,0.63 0 0 1 0.4,0.49 1,1 0 0 1 -0.21,0.94 2,2 0 0 1 -1.37,0.39 z m -1.5,-0.52 c 1.32,0.27 2.3,0.23 2.65,-0.12 a 0.63,0.63 0 0 0 0.12,-0.62 0.32,0.32 0 0 0 -0.19,-0.24 c -0.49,-0.17 -1.72,0.5 -2.58,0.99 z"
       style="fill:#513314"
       id="path88" />
    <path
       d="m 281.38,409.75 h -0.08 a 0.17,0.17 0 0 1 -0.09,-0.14 c 0,-0.09 -0.17,-2.22 0.57,-2.94 a 0.83,0.83 0 0 1 0.74,-0.24 0.65,0.65 0 0 1 0.62,0.52 c 0.17,0.81 -0.93,2.35 -1.67,2.79 z m 1,-3 a 0.53,0.53 0 0 0 -0.37,0.15 3.92,3.92 0 0 0 -0.48,2.36 c 0.64,-0.54 1.38,-1.72 1.26,-2.25 0,-0.1 -0.07,-0.22 -0.33,-0.25 z"
       style="fill:#513314"
       id="path90" />
    <path
       d="m 265.06,405.79 a 9.21,9.21 0 0 1 -3.7,-1.42 0.17,0.17 0 0 1 -0.08,-0.19 0.16,0.16 0 0 1 0.15,-0.13 c 0.4,0 3.91,-0.27 4.58,0.54 a 0.51,0.51 0 0 1 0.11,0.49 0.88,0.88 0 0 1 -0.53,0.62 1.26,1.26 0 0 1 -0.53,0.09 z m -3,-1.43 c 1.6,0.88 2.86,1.26 3.42,1 a 0.53,0.53 0 0 0 0.33,-0.39 0.2,0.2 0 0 0 0,-0.18 c -0.43,-0.42 -2.34,-0.49 -3.81,-0.43 z"
       style="fill:#513314"
       id="path92" />
    <path
       d="m 261.44,404.39 a 0.17,0.17 0 0 1 -0.14,-0.08 0.15,0.15 0 0 1 0,-0.16 c 0,-0.12 1.39,-2.84 3.1,-2 0.47,0.22 0.52,0.5 0.48,0.7 -0.17,0.8 -2.4,1.54 -3.42,1.56 z m 2.32,-2.07 c -0.92,0 -1.7,1.16 -2,1.7 1.06,-0.13 2.68,-0.8 2.78,-1.27 0,-0.1 -0.07,-0.21 -0.29,-0.31 a 1.07,1.07 0 0 0 -0.49,-0.12 z"
       style="fill:#513314"
       id="path94" />
    <path
       d="m 265.63,215.38 7.38,-1.29 -3.78,8.55 c 0,0 -6.74,0 -6.43,-3.52 z"
       style="fill:#e4897b"
       id="path96" />
    <polygon
       points="275.05,225.29 269.23,222.64 273.01,214.09 278.52,218.39 "
       style="fill:#e4897b"
       id="polygon98" />
  </g>
  <g
     id="freepik--Bridge--inject-31"
     transform="translate(-53.06818,-84.988607)">
    <path
       d="m 219.55,321.11 c -58.58,0 -106.24,-73 -106.24,-162.69 a 1,1 0 0 1 2,0 c 0,88.61 46.76,160.69 104.24,160.69 57.48,0 104.23,-72.11 104.23,-160.69 a 1,1 0 1 1 2,0 c 0,89.71 -47.66,162.69 -106.23,162.69 z"
       style="fill:#513314"
       id="path101" />
    <path
       d="m 219.55,321.11 c -58.58,0 -106.24,-73 -106.24,-162.69 a 1,1 0 0 1 2,0 c 0,88.61 46.76,160.69 104.24,160.69 57.48,0 104.23,-72.11 104.23,-160.69 a 1,1 0 1 1 2,0 c 0,89.71 -47.66,162.69 -106.23,162.69 z"
       style="opacity:0.1;fill:#ffffff"
       id="path103" />
    <rect
       x="114.31"
       y="286.10001"
       width="57.860001"
       height="11.74"
       style="fill:#513314"
       id="rect105" />
    <rect
       x="114.31"
       y="245.23"
       width="57.860001"
       height="11.74"
       style="fill:#513314"
       id="rect107" />
    <rect
       x="114.31"
       y="204.37"
       width="57.860001"
       height="11.74"
       style="fill:#513314"
       id="rect109" />
    <rect
       x="114.31"
       y="168.10001"
       width="57.860001"
       height="11.74"
       style="fill:#513314"
       id="rect111" />
    <g
       style="opacity:0.1"
       id="g121">
      <rect
         x="114.31"
         y="286.10001"
         width="57.860001"
         height="11.74"
         style="fill:#ffffff"
         id="rect113" />
      <rect
         x="114.31"
         y="245.23"
         width="57.860001"
         height="11.74"
         style="fill:#ffffff"
         id="rect115" />
      <rect
         x="114.31"
         y="204.37"
         width="57.860001"
         height="11.74"
         style="fill:#ffffff"
         id="rect117" />
      <rect
         x="114.31"
         y="168.10001"
         width="57.860001"
         height="11.74"
         style="fill:#ffffff"
         id="rect119" />
    </g>
    <rect
       x="160.03999"
       y="286.10001"
       width="12.73"
       height="11.74"
       style="fill:#513314"
       id="rect123" />
    <rect
       x="160.03999"
       y="286.10001"
       width="12.73"
       height="11.74"
       style="opacity:0.3"
       id="rect125" />
    <rect
       x="160.95"
       y="245.23"
       width="12.73"
       height="11.74"
       style="fill:#513314"
       id="rect127" />
    <rect
       x="160.95"
       y="245.23"
       width="12.73"
       height="11.74"
       style="opacity:0.3"
       id="rect129" />
    <rect
       x="161.75999"
       y="204.37"
       width="12.73"
       height="11.74"
       style="fill:#513314"
       id="rect131" />
    <rect
       x="161.75999"
       y="204.37"
       width="12.73"
       height="11.74"
       style="opacity:0.3"
       id="rect133" />
    <rect
       x="162.56"
       y="168.10001"
       width="12.73"
       height="11.74"
       style="fill:#513314"
       id="rect135" />
    <rect
       x="162.56"
       y="168.10001"
       width="12.73"
       height="11.74"
       style="opacity:0.3"
       id="rect137" />
    <rect
       x="163.89"
       y="391.5"
       width="16.57"
       height="24.549999"
       style="fill:#513314"
       id="rect139" />
    <rect
       x="163.89"
       y="391.5"
       width="16.57"
       height="24.549999"
       style="opacity:0.1;fill:#ffffff"
       id="rect141" />
    <rect
       x="164.8"
       y="245.23"
       width="14.76"
       height="40.860001"
       style="fill:#513314"
       id="rect143" />
    <rect
       x="164.8"
       y="245.23"
       width="14.76"
       height="40.860001"
       style="opacity:0.1;fill:#ffffff"
       id="rect145" />
    <rect
       x="165.60001"
       y="204.37"
       width="13.15"
       height="40.860001"
       style="fill:#513314"
       id="rect147" />
    <rect
       x="165.60001"
       y="204.37"
       width="13.15"
       height="40.860001"
       style="opacity:0.1;fill:#ffffff"
       id="rect149" />
    <rect
       x="166.41"
       y="163.50999"
       width="11.54"
       height="40.860001"
       style="fill:#513314"
       id="rect151" />
    <rect
       x="166.41"
       y="163.50999"
       width="11.54"
       height="40.860001"
       style="opacity:0.1;fill:#ffffff"
       id="rect153" />
    <rect
       x="316.48999"
       y="286.10001"
       width="16.57"
       height="105.4"
       style="fill:#513314"
       id="rect155" />
    <rect
       x="316.48999"
       y="286.10001"
       width="16.57"
       height="105.4"
       style="opacity:0.1;fill:#ffffff"
       id="rect157" />
    <polygon
       points="316.49,337.55 316.49,350.83 333.07,359.17 333.07,337.55 "
       style="fill:#513314"
       id="polygon159" />
    <polygon
       points="316.49,337.55 316.49,350.83 333.07,359.17 333.07,337.55 "
       style="opacity:0.3"
       id="polygon161" />
    <rect
       x="106.03"
       y="286.10001"
       width="16.57"
       height="105.4"
       style="fill:#513314"
       id="rect163" />
    <rect
       x="106.03"
       y="286.10001"
       width="16.57"
       height="105.4"
       style="opacity:0.1;fill:#ffffff"
       id="rect165" />
    <polygon
       points="106.03,337.55 106.03,350.83 122.6,359.17 122.6,337.55 "
       style="fill:#513314"
       id="polygon167" />
    <polygon
       points="106.03,337.55 106.03,350.83 122.6,359.17 122.6,337.55 "
       style="opacity:0.3"
       id="polygon169" />
    <rect
       x="73.080002"
       y="328.64001"
       width="15.04"
       height="1"
       style="fill:#513314"
       id="rect171" />
    <rect
       x="73.080002"
       y="328.64001"
       width="15.04"
       height="1"
       style="opacity:0.1;fill:#ffffff"
       id="rect173" />
    <rect
       x="66.849998"
       y="328.64001"
       width="4"
       height="1"
       style="fill:#513314"
       id="rect175" />
    <rect
       x="66.849998"
       y="328.64001"
       width="4"
       height="1"
       style="opacity:0.1;fill:#ffffff"
       id="rect177" />
    <rect
       x="56.110001"
       y="332.14001"
       width="387.78"
       height="11.32"
       style="fill:#513314"
       id="rect179" />
    <rect
       x="56.110001"
       y="332.14001"
       width="387.78"
       height="11.32"
       style="opacity:0.1;fill:#ffffff"
       id="rect181" />
    <rect
       x="172.17999"
       y="332.14001"
       width="14.82"
       height="11.32"
       style="fill:#513314"
       id="rect183" />
    <rect
       x="172.17999"
       y="332.14001"
       width="14.82"
       height="11.32"
       style="opacity:0.3"
       id="rect185" />
    <rect
       x="163.89"
       y="286.10001"
       width="16.57"
       height="105.4"
       style="fill:#513314"
       id="rect187" />
    <rect
       x="163.89"
       y="286.10001"
       width="16.57"
       height="105.4"
       style="opacity:0.1;fill:#ffffff"
       id="rect189" />
    <rect
       x="162.17999"
       y="391.5"
       width="20"
       height="24.549999"
       style="fill:#513314"
       id="rect191" />
    <rect
       x="162.17999"
       y="391.5"
       width="20"
       height="24.549999"
       style="opacity:0.1;fill:#ffffff"
       id="rect193" />
    <rect
       x="104.31"
       y="391.5"
       width="20"
       height="24.549999"
       style="fill:#513314"
       id="rect195" />
    <rect
       x="104.31"
       y="391.5"
       width="20"
       height="24.549999"
       style="opacity:0.1;fill:#ffffff"
       id="rect197" />
    <rect
       x="106.94"
       y="245.23"
       width="14.76"
       height="40.860001"
       style="fill:#513314"
       id="rect199" />
    <rect
       x="106.94"
       y="245.23"
       width="14.76"
       height="40.860001"
       style="opacity:0.1;fill:#ffffff"
       id="rect201" />
    <rect
       x="107.74"
       y="204.37"
       width="13.15"
       height="40.860001"
       style="fill:#513314"
       id="rect203" />
    <rect
       x="107.74"
       y="204.37"
       width="13.15"
       height="40.860001"
       style="opacity:0.1;fill:#ffffff"
       id="rect205" />
    <rect
       x="108.55"
       y="163.50999"
       width="11.54"
       height="40.860001"
       style="fill:#513314"
       id="rect207" />
    <rect
       x="108.55"
       y="163.50999"
       width="11.54"
       height="40.860001"
       style="opacity:0.1;fill:#ffffff"
       id="rect209" />
    <path
       d="m 175.68,163.51 h -7 v -6.68 a 3.5,3.5 0 0 1 3.5,-3.5 v 0 a 3.5,3.5 0 0 1 3.5,3.5 z"
       style="fill:#513314"
       id="path211" />
    <path
       d="m 175.68,163.51 h -7 v -6.68 a 3.5,3.5 0 0 1 3.5,-3.5 v 0 a 3.5,3.5 0 0 1 3.5,3.5 z"
       style="opacity:0.1;fill:#ffffff"
       id="path213" />
    <path
       d="m 117.81,163.51 h -7 v -6.68 a 3.5,3.5 0 0 1 3.5,-3.5 v 0 a 3.5,3.5 0 0 1 3.5,3.5 z"
       style="fill:#513314"
       id="path215" />
    <path
       d="m 117.81,163.51 h -7 v -6.68 a 3.5,3.5 0 0 1 3.5,-3.5 v 0 a 3.5,3.5 0 0 1 3.5,3.5 z"
       style="opacity:0.1;fill:#ffffff"
       id="path217" />
    <rect
       x="324.78"
       y="286.10001"
       width="57.860001"
       height="11.74"
       style="fill:#513314"
       id="rect219" />
    <rect
       x="324.78"
       y="245.23"
       width="57.860001"
       height="11.74"
       style="fill:#513314"
       id="rect221" />
    <rect
       x="324.78"
       y="204.37"
       width="57.860001"
       height="11.74"
       style="fill:#513314"
       id="rect223" />
    <rect
       x="324.78"
       y="168.10001"
       width="57.860001"
       height="11.74"
       style="fill:#513314"
       id="rect225" />
    <g
       style="opacity:0.1"
       id="g235">
      <rect
         x="324.78"
         y="286.10001"
         width="57.860001"
         height="11.74"
         style="fill:#ffffff"
         id="rect227" />
      <rect
         x="324.78"
         y="245.23"
         width="57.860001"
         height="11.74"
         style="fill:#ffffff"
         id="rect229" />
      <rect
         x="324.78"
         y="204.37"
         width="57.860001"
         height="11.74"
         style="fill:#ffffff"
         id="rect231" />
      <rect
         x="324.78"
         y="168.10001"
         width="57.860001"
         height="11.74"
         style="fill:#ffffff"
         id="rect233" />
    </g>
    <rect
       x="370.51001"
       y="286.10001"
       width="12.73"
       height="11.74"
       style="fill:#513314"
       id="rect237" />
    <rect
       x="370.51001"
       y="286.10001"
       width="12.73"
       height="11.74"
       style="opacity:0.3"
       id="rect239" />
    <rect
       x="371.41"
       y="245.23"
       width="12.73"
       height="11.74"
       style="fill:#513314"
       id="rect241" />
    <rect
       x="371.41"
       y="245.23"
       width="12.73"
       height="11.74"
       style="opacity:0.3"
       id="rect243" />
    <rect
       x="372.22"
       y="204.37"
       width="12.73"
       height="11.74"
       style="fill:#513314"
       id="rect245" />
    <rect
       x="372.22"
       y="204.37"
       width="12.73"
       height="11.74"
       style="opacity:0.3"
       id="rect247" />
    <rect
       x="373.03"
       y="168.10001"
       width="12.73"
       height="11.74"
       style="fill:#513314"
       id="rect249" />
    <rect
       x="373.03"
       y="168.10001"
       width="12.73"
       height="11.74"
       style="opacity:0.3"
       id="rect251" />
    <rect
       x="374.35001"
       y="391.5"
       width="16.57"
       height="24.549999"
       style="fill:#513314"
       id="rect253" />
    <rect
       x="374.35001"
       y="391.5"
       width="16.57"
       height="24.549999"
       style="opacity:0.1;fill:#ffffff"
       id="rect255" />
    <rect
       x="375.26001"
       y="245.23"
       width="14.76"
       height="40.860001"
       style="fill:#513314"
       id="rect257" />
    <rect
       x="375.26001"
       y="245.23"
       width="14.76"
       height="40.860001"
       style="opacity:0.1;fill:#ffffff"
       id="rect259" />
    <rect
       x="376.07001"
       y="204.37"
       width="13.15"
       height="40.860001"
       style="fill:#513314"
       id="rect261" />
    <rect
       x="376.07001"
       y="204.37"
       width="13.15"
       height="40.860001"
       style="opacity:0.1;fill:#ffffff"
       id="rect263" />
    <rect
       x="376.87"
       y="163.50999"
       width="11.54"
       height="40.860001"
       style="fill:#513314"
       id="rect265" />
    <rect
       x="376.87"
       y="163.50999"
       width="11.54"
       height="40.860001"
       style="opacity:0.1;fill:#ffffff"
       id="rect267" />
    <rect
       x="382.64001"
       y="332.14001"
       width="14.82"
       height="11.32"
       style="fill:#513314"
       id="rect269" />
    <rect
       x="382.64001"
       y="332.14001"
       width="14.82"
       height="11.32"
       style="opacity:0.3"
       id="rect271" />
    <rect
       x="374.35001"
       y="286.10001"
       width="16.57"
       height="105.4"
       style="fill:#513314"
       id="rect273" />
    <rect
       x="374.35001"
       y="286.10001"
       width="16.57"
       height="105.4"
       style="opacity:0.1;fill:#ffffff"
       id="rect275" />
    <rect
       x="372.64001"
       y="391.5"
       width="20"
       height="24.549999"
       style="fill:#513314"
       id="rect277" />
    <rect
       x="372.64001"
       y="391.5"
       width="20"
       height="24.549999"
       style="opacity:0.1;fill:#ffffff"
       id="rect279" />
    <rect
       x="314.78"
       y="391.5"
       width="20"
       height="24.549999"
       style="fill:#513314"
       id="rect281" />
    <rect
       x="314.78"
       y="391.5"
       width="20"
       height="24.549999"
       style="opacity:0.1;fill:#ffffff"
       id="rect283" />
    <rect
       x="317.39999"
       y="245.23"
       width="14.76"
       height="40.860001"
       style="fill:#513314"
       id="rect285" />
    <rect
       x="317.39999"
       y="245.23"
       width="14.76"
       height="40.860001"
       style="opacity:0.1;fill:#ffffff"
       id="rect287" />
    <rect
       x="318.20999"
       y="204.37"
       width="13.15"
       height="40.860001"
       style="fill:#513314"
       id="rect289" />
    <rect
       x="318.20999"
       y="204.37"
       width="13.15"
       height="40.860001"
       style="opacity:0.1;fill:#ffffff"
       id="rect291" />
    <rect
       x="319.01001"
       y="163.50999"
       width="11.54"
       height="40.860001"
       style="fill:#513314"
       id="rect293" />
    <rect
       x="319.01001"
       y="163.50999"
       width="11.54"
       height="40.860001"
       style="opacity:0.1;fill:#ffffff"
       id="rect295" />
    <path
       d="m 386.14,163.51 h -7 v -6.68 a 3.5,3.5 0 0 1 3.5,-3.5 v 0 a 3.5,3.5 0 0 1 3.5,3.5 z"
       style="fill:#513314"
       id="path297" />
    <path
       d="m 386.14,163.51 h -7 v -6.68 a 3.5,3.5 0 0 1 3.5,-3.5 v 0 a 3.5,3.5 0 0 1 3.5,3.5 z"
       style="opacity:0.1;fill:#ffffff"
       id="path299" />
    <path
       d="m 328.28,163.51 h -7 v -6.68 a 3.5,3.5 0 0 1 3.5,-3.5 v 0 a 3.5,3.5 0 0 1 3.5,3.5 z"
       style="fill:#513314"
       id="path301" />
    <path
       d="m 328.28,163.51 h -7 v -6.68 a 3.5,3.5 0 0 1 3.5,-3.5 v 0 a 3.5,3.5 0 0 1 3.5,3.5 z"
       style="opacity:0.1;fill:#ffffff"
       id="path303" />
    <path
       d="m 277.41,321.11 c -58.58,0 -106.23,-73 -106.23,-162.69 a 1,1 0 0 1 2,0 c 0,88.61 46.75,160.69 104.23,160.69 57.48,0 104.23,-72.11 104.23,-160.69 a 1,1 0 1 1 2,0 c 0,89.71 -47.64,162.69 -106.23,162.69 z"
       style="fill:#513314"
       id="path305" />
    <path
       d="m 277.41,321.11 c -58.58,0 -106.23,-73 -106.23,-162.69 a 1,1 0 0 1 2,0 c 0,88.61 46.75,160.69 104.23,160.69 57.48,0 104.23,-72.11 104.23,-160.69 a 1,1 0 1 1 2,0 c 0,89.71 -47.64,162.69 -106.23,162.69 z"
       style="opacity:0.1;fill:#ffffff"
       id="path307" />
  </g>
</svg>
