<?xml version="1.0" encoding="UTF-8" standalone="no"?>
<svg
   xmlns:dc="http://purl.org/dc/elements/1.1/"
   xmlns:cc="http://creativecommons.org/ns#"
   xmlns:rdf="http://www.w3.org/1999/02/22-rdf-syntax-ns#"
   xmlns:svg="http://www.w3.org/2000/svg"
   xmlns="http://www.w3.org/2000/svg"
   xmlns:sodipodi="http://sodipodi.sourceforge.net/DTD/sodipodi-0.dtd"
   xmlns:inkscape="http://www.inkscape.org/namespaces/inkscape"
   viewBox="0 0 460.33713 410.47061"
   version="1.1"
   id="svg432"
   sodipodi:docname="mainContentPic2.svg"
   width="460.33713"
   height="410.47061"
   inkscape:version="1.0.2 (e86c870879, 2021-01-15, custom)">
  <metadata
     id="metadata436">
    <rdf:RDF>
      <cc:Work
         rdf:about="">
        <dc:format>image/svg+xml</dc:format>
        <dc:type
           rdf:resource="http://purl.org/dc/dcmitype/StillImage" />
        <dc:title></dc:title>
      </cc:Work>
    </rdf:RDF>
  </metadata>
  <sodipodi:namedview
     pagecolor="#ffffff"
     bordercolor="#666666"
     borderopacity="1"
     objecttolerance="10"
     gridtolerance="10"
     guidetolerance="10"
     inkscape:pageopacity="0"
     inkscape:pageshadow="2"
     inkscape:window-width="1920"
     inkscape:window-height="1001"
     id="namedview434"
     showgrid="false"
     lock-margins="true"
     fit-margin-top="0"
     fit-margin-left="0"
     fit-margin-right="0"
     fit-margin-bottom="0"
     inkscape:zoom="1.6033647"
     inkscape:cx="250"
     inkscape:cy="250"
     inkscape:window-x="-9"
     inkscape:window-y="-9"
     inkscape:window-maximized="1"
     inkscape:current-layer="svg432" />
  <defs
     id="defs8">
    <clipPath
       id="freepik--clip-path--inject-86">
      <path
         d="m 121.05,229.84 c -0.21,0.61 -5,11.06 -5.23,11.68 -2.66,8.56 -2.43,13.71 -1,22.59 l 0.19,1.23 c 0.64,16.62 -3.9,25.07 -12.46,39.33 l -1.73,2.89 -1.13,1.68 v 0 l -2.53,3.35 c 0,0 0.58,3.22 -0.88,4.52 -5.39,4.75 -8.06,5.62 -8.86,13.95 l -0.49,28.27 -1.37,-0.14 c -2.88,-0.3 -5.72,-0.67 -8.49,-1.13 l -2.37,-0.41 a 95.63,95.63 0 0 1 -10.52,-2.57 c -0.39,-0.12 -0.78,-0.24 -1.16,-0.38 -1.16,-0.38 -2.31,-0.78 -3.42,-1.21 -0.38,-0.14 -0.76,-0.29 -1.13,-0.45 -1,-0.39 -1.9,-0.8 -2.82,-1.22 L 55,351.5 c -1.35,-0.65 -2.68,-1.34 -4,-2.09 -0.54,-0.31 -1.06,-0.62 -1.59,-1 0.36,-2 0.72,-3.91 1.07,-5.8 A 393.78,393.78 0 0 0 56.86,282.5 L 58,243.44 a 40.84,40.84 0 0 1 11,-25.12 l 24.74,-25.73 c 0.64,-0.67 2.88,-1 3.74,-1 v 47.54 c 0,0 6.72,-22.53 9,-28 5.58,-13.6 15.23,-10.75 17.43,-5.8 1.44,3.21 -2.71,24.08 -2.86,24.51 z"
         style="fill:#ffffff"
         id="path2" />
    </clipPath>
    <clipPath
       id="freepik--clip-path-2--inject-86">
      <path
         d="m 392.53,432.06 v -46.9 l -0.7,-10.44 c 0,0 -6.31,-9.1 -5.91,-19.15 0.33,-8.47 10.09,-35.16 10.78,-37.95 0.26,-1 2.44,-18.45 2.44,-19.48 0,-1.03 1,-15.32 4.52,-18.45 3.52,-3.13 9.4,-4.53 11.14,0 1.74,4.53 3.48,18.79 2.45,24 -1.03,5.21 -3.14,11.49 -3.84,16 a 35.66,35.66 0 0 0 0.36,10.09 h 15.66 l 2.77,-8.7 0.71,-17.41 c 0,0 -8.92,-4.56 -10.55,-9 v -4.21 c 0.07,-1.45 0.06,-2.94 0,-4.28 v -4.61 c 3.1,1.5 23.59,11.51 25.51,14.07 2.09,2.79 3.48,13.93 3.48,13.93 l 2.76,-6.91 v -0.06 c 0,0 -8.71,-14.26 -9.4,-16.69 0,0 -7,-1.74 -10.09,-5.58 -3.09,-3.84 -5.22,-7.65 -2.09,-11.13 3.13,-3.48 20.19,6.26 20.19,6.26 l 11.41,14.75 5.29,6.83 c 0,0 9.75,9.87 10.14,12.47 0.45,2.94 -3.88,15.72 -3.88,15.72 l -14.26,28.55 c -0.83,1.5 -7.7,8.67 -14.68,15.77 -7.67,7.82 -15.47,15.56 -15.47,15.56 l 1.18,10.55 a 105.34,105.34 0 0 1 -15.35,17.7 c -1.85,1.69 -3.75,3.34 -5.72,5 a 178,178 0 0 1 -18.88,13.66"
         style="fill:#ffffff"
         id="path5" />
    </clipPath>
  </defs>
  <g
     id="freepik--background-simple--inject-86"
     transform="translate(-19.76,-43.299385)">
    <path
       d="m 464.16,290.26 c -1.68,28.89 -7.53,56.32 -17.39,79.34 a 145.62,145.62 0 0 1 -14.29,26.11 105.34,105.34 0 0 1 -15.35,17.7 c -1.85,1.69 -3.75,3.34 -5.72,5 a 178,178 0 0 1 -18.88,13.66 q -5.92,3.74 -12.44,7.21 c -1,0.51 -1.91,1 -2.87,1.49 l -0.23,0.12 c -0.93,0.47 -1.85,0.92 -2.79,1.36 -0.94,0.44 -1.69,0.79 -2.53,1.16 l -1,0.46 c -0.7,0.31 -1.39,0.61 -2.09,0.89 l -0.27,0.12 c -0.94,0.4 -1.9,0.78 -2.85,1.13 0,0 0,0 0,0 -0.88,0.34 -1.76,0.66 -2.64,1 l -0.69,0.24 c -0.75,0.27 -1.51,0.53 -2.27,0.78 l -0.25,0.08 c -0.82,0.28 -1.66,0.54 -2.48,0.79 -0.82,0.25 -1.52,0.44 -2.27,0.65 -0.75,0.21 -1.23,0.34 -1.85,0.51 -1.5,0.39 -3,0.76 -4.48,1.09 l -1.75,0.37 -1.62,0.33 c -0.93,0.18 -1.84,0.34 -2.75,0.48 -0.72,0.13 -1.43,0.23 -2.14,0.33 -0.71,0.1 -1.5,0.21 -2.25,0.3 l -2.22,0.26 -2.23,0.21 -2.21,0.16 -2.22,0.12 c -0.65,0 -1.3,0 -1.95,0.06 h -0.66 c -0.61,0 -1.2,0 -1.8,0 -1.46,0 -2.92,0 -4.38,-0.07 l -1.55,-0.06 -1,-0.05 -1.52,-0.1 c -1.09,-0.08 -2.17,-0.17 -3.25,-0.28 -1.08,-0.11 -2.35,-0.24 -3.52,-0.4 l -1.61,-0.22 -1,-0.15 -1.64,-0.26 c -2.2,-0.37 -4.37,-0.8 -6.53,-1.28 l -1.92,-0.45 c -0.67,-0.15 -1.31,-0.32 -2,-0.49 h -0.13 c -1.4,-0.36 -2.78,-0.74 -4.16,-1.15 -1.15,-0.34 -2.29,-0.69 -3.42,-1.06 -0.79,-0.26 -1.56,-0.51 -2.33,-0.78 -0.61,-0.21 -1.23,-0.42 -1.83,-0.65 q -6.41,-2.29 -12.57,-5.21 c -0.6,-0.27 -1.2,-0.56 -1.79,-0.85 l -0.39,-0.2 c -0.58,-0.28 -1.15,-0.55 -1.72,-0.84 v 0 c -1.29,-0.64 -2.57,-1.32 -3.85,-2 l -0.89,-0.49 c -0.55,-0.29 -1.09,-0.6 -1.64,-0.9 q -4,-2.26 -7.91,-4.73 -1,-0.61 -2,-1.26 c -0.78,-0.5 -1.56,-1 -2.32,-1.53 -0.76,-0.53 -1.54,-1 -2.3,-1.57 -0.76,-0.57 -1.28,-0.89 -1.92,-1.34 -2.82,-2 -5.6,-4.1 -8.31,-6.25 -0.58,-0.45 -1.14,-0.91 -1.71,-1.37 l -1.7,-1.39 c -0.57,-0.46 -1.13,-0.92 -1.68,-1.4 -0.55,-0.48 -1.11,-0.94 -1.66,-1.41 -0.55,-0.47 -1.09,-0.93 -1.62,-1.4 l -1.76,-1.56 c -0.84,-0.75 -1.67,-1.52 -2.51,-2.28 -1.27,-1.17 -2.52,-2.37 -3.77,-3.56 -0.52,-0.5 -1,-1 -1.56,-1.52 l -1.55,-1.53 c -1.31,-1.31 -2.61,-2.65 -3.89,-4 l -0.09,-0.1 c -1.89,-2 -3.73,-4 -5.53,-6 -0.07,-0.09 -0.15,-0.16 -0.21,-0.24 -1.15,-1.29 -2.29,-2.59 -3.39,-3.89 l -1.91,-2.25 a 54.32,54.32 0 0 0 -7.09,-7.06 c -0.31,-0.27 -0.64,-0.53 -1,-0.79 l -1,-0.77 c -0.59,-0.45 -1.19,-0.88 -1.79,-1.29 -0.31,-0.21 -0.6,-0.42 -0.91,-0.62 l -1,-0.66 -1,-0.63 -0.65,-0.38 c -0.28,-0.18 -0.58,-0.35 -0.86,-0.51 l -1.08,-0.6 -1.62,-0.85 c -0.34,-0.17 -0.69,-0.33 -1,-0.51 -1.47,-0.71 -3,-1.37 -4.53,-2 l -1,-0.38 a 105.88,105.88 0 0 0 -25.54,-5.79 c -0.42,-0.06 -0.85,-0.1 -1.29,-0.14 -2.57,-0.28 -5.19,-0.51 -7.82,-0.69 -1.2,-0.09 -2.39,-0.17 -3.6,-0.23 l -1.7,-0.09 -2.66,-0.12 c -1.33,-0.06 -2.67,-0.11 -4,-0.15 h -1.35 -0.31 c -0.79,0 -1.57,-0.05 -2.37,-0.06 l -4,-0.1 -3.37,-0.08 -4.18,-0.08 h -0.31 l -3.87,-0.1 -2.78,-0.08 -2.65,-0.07 h -0.2 l -2.67,-0.09 c -4.77,-0.2 -9.49,-0.48 -14.09,-0.91 l -0.54,-0.05 -1.37,-0.14 c -2.88,-0.3 -5.72,-0.67 -8.49,-1.13 l -2.37,-0.41 a 95.63,95.63 0 0 1 -10.52,-2.57 c -0.39,-0.12 -0.78,-0.24 -1.16,-0.38 -1.16,-0.38 -2.31,-0.78 -3.42,-1.21 -0.38,-0.14 -0.76,-0.29 -1.13,-0.45 -1,-0.39 -1.9,-0.8 -2.82,-1.22 L 55,351.5 c -1.35,-0.65 -2.68,-1.34 -4,-2.09 -0.54,-0.31 -1.06,-0.62 -1.59,-1 l -0.28,-0.18 -0.93,-0.61 c -0.61,-0.41 -1.22,-0.83 -1.81,-1.27 l -0.55,-0.42 -0.72,-0.53 -0.93,-0.75 c -0.42,-0.34 -0.82,-0.7 -1.23,-1.05 -0.41,-0.35 -1,-0.93 -1.55,-1.42 -0.55,-0.49 -1.12,-1.09 -1.67,-1.67 l -0.81,-0.87 -0.78,-0.89 c -0.3,-0.34 -0.59,-0.68 -0.87,-1 -0.28,-0.32 -0.44,-0.55 -0.67,-0.84 -0.23,-0.29 -0.49,-0.63 -0.74,-1 -0.49,-0.65 -1,-1.32 -1.43,-2 l -0.16,-0.24 c -0.34,-0.52 -0.69,-1.06 -1,-1.6 l -0.08,-0.13 -0.42,-0.7 c -0.12,-0.19 -0.23,-0.38 -0.34,-0.59 -0.11,-0.21 -0.4,-0.7 -0.59,-1.05 -0.19,-0.35 -0.38,-0.71 -0.57,-1.08 -0.19,-0.37 -0.32,-0.61 -0.46,-0.92 -0.14,-0.31 -0.43,-0.87 -0.64,-1.32 -0.52,-1.11 -1,-2.22 -1.49,-3.35 0,0 0,0 0,0 a 0.54,0.54 0 0 0 -0.05,-0.11 c -0.34,-0.82 -0.68,-1.63 -1,-2.45 a 2.18,2.18 0 0 1 -0.09,-0.23 c -0.33,-0.83 -0.65,-1.66 -0.95,-2.51 -0.3,-0.85 -0.65,-1.77 -0.95,-2.67 -0.3,-0.9 -0.6,-1.79 -0.88,-2.69 -0.56,-1.8 -1.08,-3.61 -1.54,-5.43 q -0.28,-1.11 -0.54,-2.22 c -0.11,-0.39 -0.19,-0.8 -0.28,-1.22 -0.15,-0.62 -0.28,-1.25 -0.4,-1.89 a 1.36,1.36 0 0 1 -0.06,-0.29 c -0.18,-0.88 -0.35,-1.77 -0.5,-2.66 -0.15,-0.89 -0.32,-1.85 -0.46,-2.79 -0.14,-0.94 -0.27,-1.87 -0.39,-2.81 -0.12,-0.94 -0.22,-1.87 -0.31,-2.81 -0.08,-0.73 -0.15,-1.48 -0.2,-2.22 0,-0.33 0,-0.67 -0.08,-1 -0.05,-0.72 -0.1,-1.44 -0.13,-2.17 a 3.25,3.25 0 0 1 0,-0.55 c 0,-0.48 -0.06,-1 -0.06,-1.46 q -0.06,-1 -0.06,-2 c 0,-0.77 0,-1.57 0,-2.36 0,-0.79 0,-1.33 0,-2 0,-0.26 0,-0.52 0,-0.79 0,-0.66 0,-1.31 0.07,-2 0,-0.33 0,-0.69 0,-1 0,-0.61 0.06,-1.23 0.11,-1.83 L 20,269.82 c 0,-0.71 0.1,-1.41 0.17,-2.11 0,-0.27 0,-0.54 0.08,-0.81 0.08,-0.87 0.17,-1.72 0.27,-2.58 a 0.34,0.34 0 0 1 0,-0.13 c 0.11,-1 0.23,-1.94 0.37,-2.92 0.1,-0.77 0.22,-1.53 0.34,-2.31 0.2,-1.2 0.4,-2.41 0.63,-3.62 0.13,-0.73 0.27,-1.43 0.41,-2.16 0.54,-2.67 1.17,-5.37 1.89,-8.08 0.18,-0.69 0.36,-1.38 0.55,-2.07 1.07,-3.88 2.33,-7.79 3.75,-11.71 l 0.55,-1.47 c 0.2,-0.5 0.4,-1 0.59,-1.52 0.47,-1.25 1,-2.51 1.48,-3.77 0.48,-1.26 1,-2.46 1.57,-3.69 a 1.67,1.67 0 0 0 0.08,-0.2 c 0.47,-1.07 1,-2.14 1.45,-3.21 0.09,-0.21 0.19,-0.42 0.29,-0.63 0.53,-1.15 1.07,-2.3 1.63,-3.44 l 0.09,-0.19 c 0.58,-1.16 1.17,-2.34 1.77,-3.51 0.17,-0.36 0.35,-0.69 0.54,-1 0.35,-0.69 0.7,-1.38 1.08,-2.06 0.38,-0.68 0.66,-1.24 1,-1.87 0.34,-0.63 0.8,-1.45 1.21,-2.17 0.85,-1.52 1.72,-3 2.62,-4.53 a 19.44,19.44 0 0 1 0.23,-0.36 c 0.71,-1.2 1.43,-2.39 2.18,-3.58 0.75,-1.19 1.49,-2.38 2.27,-3.58 0.78,-1.2 1.55,-2.39 2.35,-3.58 0.8,-1.19 1.62,-2.39 2.46,-3.59 0.84,-1.2 1.61,-2.31 2.45,-3.47 a 0.62,0.62 0 0 0 0.08,-0.12 c 0.87,-1.19 1.74,-2.39 2.64,-3.58 0.9,-1.19 1.79,-2.4 2.72,-3.59 0.78,-1 1.56,-2 2.36,-3 l 0.74,-0.92 c 0.85,-1.07 1.72,-2.16 2.61,-3.23 0.89,-1.07 1.65,-2 2.5,-3 0.21,-0.26 0.44,-0.51 0.66,-0.78 1,-1.12 1.92,-2.25 2.9,-3.37 0.98,-1.12 2,-2.22 3,-3.33 0.16,-0.2 0.34,-0.39 0.51,-0.58 1,-1.09 2,-2.17 3,-3.26 1,-1.09 1.86,-2 2.8,-3 0.38,-0.42 0.77,-0.83 1.17,-1.24 1,-1 2,-2.05 3,-3.06 1,-1.01 2.23,-2.27 3.36,-3.4 q 13.57,-13.59 29.69,-27 C 175.93,67 277.14,47.05 343.66,65 c 87.83,23.66 125.93,132 120.5,225.26 z"
       style="fill:#7f664c"
       id="path10" />
    <path
       d="m 464.16,290.26 c -1.68,28.89 -7.53,56.32 -17.39,79.34 a 145.62,145.62 0 0 1 -14.29,26.11 105.34,105.34 0 0 1 -15.35,17.7 c -1.85,1.69 -3.75,3.34 -5.72,5 a 178,178 0 0 1 -18.88,13.66 q -5.92,3.74 -12.44,7.21 c -1,0.51 -1.91,1 -2.87,1.49 l -0.23,0.12 c -0.93,0.47 -1.85,0.92 -2.79,1.36 -0.94,0.44 -1.69,0.79 -2.53,1.16 l -1,0.46 c -0.7,0.31 -1.39,0.61 -2.09,0.89 l -0.27,0.12 c -0.94,0.4 -1.9,0.78 -2.85,1.13 0,0 0,0 0,0 -0.88,0.34 -1.76,0.66 -2.64,1 l -0.69,0.24 c -0.75,0.27 -1.51,0.53 -2.27,0.78 l -0.25,0.08 c -0.82,0.28 -1.66,0.54 -2.48,0.79 -0.82,0.25 -1.52,0.44 -2.27,0.65 -0.75,0.21 -1.23,0.34 -1.85,0.51 -1.5,0.39 -3,0.76 -4.48,1.09 l -1.75,0.37 -1.62,0.33 c -0.93,0.18 -1.84,0.34 -2.75,0.48 -0.72,0.13 -1.43,0.23 -2.14,0.33 -0.71,0.1 -1.5,0.21 -2.25,0.3 l -2.22,0.26 -2.23,0.21 -2.21,0.16 -2.22,0.12 c -0.65,0 -1.3,0 -1.95,0.06 h -0.66 c -0.61,0 -1.2,0 -1.8,0 -1.46,0 -2.92,0 -4.38,-0.07 l -1.55,-0.06 -1,-0.05 -1.52,-0.1 c -1.09,-0.08 -2.17,-0.17 -3.25,-0.28 -1.08,-0.11 -2.35,-0.24 -3.52,-0.4 l -1.61,-0.22 -1,-0.15 -1.64,-0.26 c -2.2,-0.37 -4.37,-0.8 -6.53,-1.28 l -1.92,-0.45 c -0.67,-0.15 -1.31,-0.32 -2,-0.49 h -0.13 c -1.4,-0.36 -2.78,-0.74 -4.16,-1.15 -1.15,-0.34 -2.29,-0.69 -3.42,-1.06 -0.79,-0.26 -1.56,-0.51 -2.33,-0.78 -0.61,-0.21 -1.23,-0.42 -1.83,-0.65 q -6.41,-2.29 -12.57,-5.21 c -0.6,-0.27 -1.2,-0.56 -1.79,-0.85 l -0.39,-0.2 c -0.58,-0.28 -1.15,-0.55 -1.72,-0.84 v 0 c -1.29,-0.64 -2.57,-1.32 -3.85,-2 l -0.89,-0.49 c -0.55,-0.29 -1.09,-0.6 -1.64,-0.9 q -4,-2.26 -7.91,-4.73 -1,-0.61 -2,-1.26 c -0.78,-0.5 -1.56,-1 -2.32,-1.53 -0.76,-0.53 -1.54,-1 -2.3,-1.57 -0.76,-0.57 -1.28,-0.89 -1.92,-1.34 -2.82,-2 -5.6,-4.1 -8.31,-6.25 -0.58,-0.45 -1.14,-0.91 -1.71,-1.37 l -1.7,-1.39 c -0.57,-0.46 -1.13,-0.92 -1.68,-1.4 -0.55,-0.48 -1.11,-0.94 -1.66,-1.41 -0.55,-0.47 -1.09,-0.93 -1.62,-1.4 l -1.76,-1.56 c -0.84,-0.75 -1.67,-1.52 -2.51,-2.28 -1.27,-1.17 -2.52,-2.37 -3.77,-3.56 -0.52,-0.5 -1,-1 -1.56,-1.52 l -1.55,-1.53 c -1.31,-1.31 -2.61,-2.65 -3.89,-4 l -0.09,-0.1 c -1.89,-2 -3.73,-4 -5.53,-6 -0.07,-0.09 -0.15,-0.16 -0.21,-0.24 -1.15,-1.29 -2.29,-2.59 -3.39,-3.89 l -1.91,-2.25 a 54.32,54.32 0 0 0 -7.09,-7.06 c -0.31,-0.27 -0.64,-0.53 -1,-0.79 l -1,-0.77 c -0.59,-0.45 -1.19,-0.88 -1.79,-1.29 -0.31,-0.21 -0.6,-0.42 -0.91,-0.62 l -1,-0.66 -1,-0.63 -0.65,-0.38 c -0.28,-0.18 -0.58,-0.35 -0.86,-0.51 l -1.08,-0.6 -1.62,-0.85 c -0.34,-0.17 -0.69,-0.33 -1,-0.51 -1.47,-0.71 -3,-1.37 -4.53,-2 l -1,-0.38 a 105.88,105.88 0 0 0 -25.54,-5.79 c -0.42,-0.06 -0.85,-0.1 -1.29,-0.14 -2.57,-0.28 -5.19,-0.51 -7.82,-0.69 -1.2,-0.09 -2.39,-0.17 -3.6,-0.23 l -1.7,-0.09 -2.66,-0.12 c -1.33,-0.06 -2.67,-0.11 -4,-0.15 h -1.35 -0.31 c -0.79,0 -1.57,-0.05 -2.37,-0.06 l -4,-0.1 -3.37,-0.08 -4.18,-0.08 h -0.31 l -3.87,-0.1 -2.78,-0.08 -2.65,-0.07 h -0.2 l -2.67,-0.09 c -4.77,-0.2 -9.49,-0.48 -14.09,-0.91 l -0.54,-0.05 -1.37,-0.14 c -2.88,-0.3 -5.72,-0.67 -8.49,-1.13 l -2.37,-0.41 a 95.63,95.63 0 0 1 -10.52,-2.57 c -0.39,-0.12 -0.78,-0.24 -1.16,-0.38 -1.16,-0.38 -2.31,-0.78 -3.42,-1.21 -0.38,-0.14 -0.76,-0.29 -1.13,-0.45 -1,-0.39 -1.9,-0.8 -2.82,-1.22 L 55,351.5 c -1.35,-0.65 -2.68,-1.34 -4,-2.09 -0.54,-0.31 -1.06,-0.62 -1.59,-1 l -0.28,-0.18 -0.93,-0.61 c -0.61,-0.41 -1.22,-0.83 -1.81,-1.27 l -0.55,-0.42 -0.72,-0.53 -0.93,-0.75 c -0.42,-0.34 -0.82,-0.7 -1.23,-1.05 -0.41,-0.35 -1,-0.93 -1.55,-1.42 -0.55,-0.49 -1.12,-1.09 -1.67,-1.67 l -0.81,-0.87 -0.78,-0.89 c -0.3,-0.34 -0.59,-0.68 -0.87,-1 -0.28,-0.32 -0.44,-0.55 -0.67,-0.84 -0.23,-0.29 -0.49,-0.63 -0.74,-1 -0.49,-0.65 -1,-1.32 -1.43,-2 l -0.16,-0.24 c -0.34,-0.52 -0.69,-1.06 -1,-1.6 l -0.08,-0.13 -0.42,-0.7 c -0.12,-0.19 -0.23,-0.38 -0.34,-0.59 -0.11,-0.21 -0.4,-0.7 -0.59,-1.05 -0.19,-0.35 -0.38,-0.71 -0.57,-1.08 -0.19,-0.37 -0.32,-0.61 -0.46,-0.92 -0.14,-0.31 -0.43,-0.87 -0.64,-1.32 -0.52,-1.11 -1,-2.22 -1.49,-3.35 0,0 0,0 0,0 a 0.54,0.54 0 0 0 -0.05,-0.11 c -0.34,-0.82 -0.68,-1.63 -1,-2.45 a 2.18,2.18 0 0 1 -0.09,-0.23 c -0.33,-0.83 -0.65,-1.66 -0.95,-2.51 -0.3,-0.85 -0.65,-1.77 -0.95,-2.67 -0.3,-0.9 -0.6,-1.79 -0.88,-2.69 -0.56,-1.8 -1.08,-3.61 -1.54,-5.43 q -0.28,-1.11 -0.54,-2.22 c -0.11,-0.39 -0.19,-0.8 -0.28,-1.22 -0.15,-0.62 -0.28,-1.25 -0.4,-1.89 a 1.36,1.36 0 0 1 -0.06,-0.29 c -0.18,-0.88 -0.35,-1.77 -0.5,-2.66 -0.15,-0.89 -0.32,-1.85 -0.46,-2.79 -0.14,-0.94 -0.27,-1.87 -0.39,-2.81 -0.12,-0.94 -0.22,-1.87 -0.31,-2.81 -0.08,-0.73 -0.15,-1.48 -0.2,-2.22 0,-0.33 0,-0.67 -0.08,-1 -0.05,-0.72 -0.1,-1.44 -0.13,-2.17 a 3.25,3.25 0 0 1 0,-0.55 c 0,-0.48 -0.06,-1 -0.06,-1.46 q -0.06,-1 -0.06,-2 c 0,-0.77 0,-1.57 0,-2.36 0,-0.79 0,-1.33 0,-2 0,-0.26 0,-0.52 0,-0.79 0,-0.66 0,-1.31 0.07,-2 0,-0.33 0,-0.69 0,-1 0,-0.61 0.06,-1.23 0.11,-1.83 L 20,269.82 c 0,-0.71 0.1,-1.41 0.17,-2.11 0,-0.27 0,-0.54 0.08,-0.81 0.08,-0.87 0.17,-1.72 0.27,-2.58 a 0.34,0.34 0 0 1 0,-0.13 c 0.11,-1 0.23,-1.94 0.37,-2.92 0.1,-0.77 0.22,-1.53 0.34,-2.31 0.2,-1.2 0.4,-2.41 0.63,-3.62 0.13,-0.73 0.27,-1.43 0.41,-2.16 0.54,-2.67 1.17,-5.37 1.89,-8.08 0.18,-0.69 0.36,-1.38 0.55,-2.07 1.07,-3.88 2.33,-7.79 3.75,-11.71 l 0.55,-1.47 c 0.2,-0.5 0.4,-1 0.59,-1.52 0.47,-1.25 1,-2.51 1.48,-3.77 0.48,-1.26 1,-2.46 1.57,-3.69 a 1.67,1.67 0 0 0 0.08,-0.2 c 0.47,-1.07 1,-2.14 1.45,-3.21 0.09,-0.21 0.19,-0.42 0.29,-0.63 0.53,-1.15 1.07,-2.3 1.63,-3.44 l 0.09,-0.19 c 0.58,-1.16 1.17,-2.34 1.77,-3.51 0.17,-0.36 0.35,-0.69 0.54,-1 0.35,-0.69 0.7,-1.38 1.08,-2.06 0.38,-0.68 0.66,-1.24 1,-1.87 0.34,-0.63 0.8,-1.45 1.21,-2.17 0.85,-1.52 1.72,-3 2.62,-4.53 a 19.44,19.44 0 0 1 0.23,-0.36 c 0.71,-1.2 1.43,-2.39 2.18,-3.58 0.75,-1.19 1.49,-2.38 2.27,-3.58 0.78,-1.2 1.55,-2.39 2.35,-3.58 0.8,-1.19 1.62,-2.39 2.46,-3.59 0.84,-1.2 1.61,-2.31 2.45,-3.47 a 0.62,0.62 0 0 0 0.08,-0.12 c 0.87,-1.19 1.74,-2.39 2.64,-3.58 0.9,-1.19 1.79,-2.4 2.72,-3.59 0.78,-1 1.56,-2 2.36,-3 l 0.74,-0.92 c 0.85,-1.07 1.72,-2.16 2.61,-3.23 0.89,-1.07 1.65,-2 2.5,-3 0.21,-0.26 0.44,-0.51 0.66,-0.78 1,-1.12 1.92,-2.25 2.9,-3.37 0.98,-1.12 2,-2.22 3,-3.33 0.16,-0.2 0.34,-0.39 0.51,-0.58 1,-1.09 2,-2.17 3,-3.26 1,-1.09 1.86,-2 2.8,-3 0.38,-0.42 0.77,-0.83 1.17,-1.24 1,-1 2,-2.05 3,-3.06 1,-1.01 2.23,-2.27 3.36,-3.4 q 13.57,-13.59 29.69,-27 C 175.93,67 277.14,47.05 343.66,65 c 87.83,23.66 125.93,132 120.5,225.26 z"
       style="opacity:0.7;fill:#ffffff"
       id="path12" />
  </g>
  <g
     id="freepik--Plants--inject-86"
     transform="translate(-19.76,-43.299385)">
    <path
       d="m 155.07,85.52 c 1.56,6.42 7.84,14.21 14,11.23 a 12.65,12.65 0 0 0 2.7,-1.9 c -2.36,-4.36 -1.51,-10.46 -5.26,-13.61 -2.06,-1.74 -6.71,-4.68 -9.27,-4.13 -3.46,0.73 -3.01,4.89 -2.17,8.41 z"
       style="fill:#7f664c"
       id="path15" />
    <path
       d="m 169.35,102.35 c 3.83,3.8 8.1,6.37 14.86,3.62 a 9.28,9.28 0 0 0 3.79,-3 5.57,5.57 0 0 0 1.09,-4.48 5.18,5.18 0 0 0 -4.47,-3.69 14.52,14.52 0 0 0 -6.13,0.7 20.5,20.5 0 0 0 -5.94,2.95 14.71,14.71 0 0 0 -3.2,3.9 z"
       style="fill:#7f664c"
       id="path17" />
    <path
       d="m 178.27,80.23 c -4.09,10.86 -9.25,21.11 -13.42,31.64"
       style="fill:none;stroke:#7f664c;stroke-miterlimit:10"
       id="path19" />
    <path
       d="m 141.64,119.13 a 17.43,17.43 0 0 0 6.27,8.89 c 2.85,2 6.13,2.66 8.91,0.76 a 14.91,14.91 0 0 0 2.41,-2.22 c -1.43,-2 -2.09,-4.58 -2.82,-7 -0.73,-2.42 -1.51,-4.82 -3.42,-6.41 -2.09,-1.71 -6.7,-4.81 -9.36,-3.9 -3.53,1.2 -3.18,6.12 -1.99,9.88 z"
       style="fill:#7f664c"
       id="path21" />
    <path
       d="m 158,134.23 a 16.54,16.54 0 0 0 7,3.12 13.17,13.17 0 0 0 8.26,-1.78 8,8 0 0 0 3.17,-3 4.16,4.16 0 0 0 0.41,-3.95 5.82,5.82 0 0 0 -4.86,-3.1 13.39,13.39 0 0 0 -5.93,1.06 16.17,16.17 0 0 0 -5.46,3.46 14.27,14.27 0 0 0 -2.59,4.19 z"
       style="fill:#7f664c"
       id="path23" />
    <path
       d="m 164.85,111.87 c -2.16,5.24 -3.93,10.61 -5.61,16 -1.52,5.44 -2.93,10.91 -3.93,16.48"
       style="fill:none;stroke:#7f664c;stroke-miterlimit:10"
       id="path25" />
    <path
       d="m 133.9,155.83 c 3.4,6.27 11.86,11.43 16.74,6.65 a 12.8,12.8 0 0 0 2,-2.62 13.83,13.83 0 0 1 -2.3,-3 c -0.63,-1.09 -1.19,-2.26 -1.78,-3.4 -1.16,-2.28 -2.44,-4.44 -4.63,-5.62 -2.39,-1.28 -7.46,-3.43 -9.94,-2 -3.22,1.87 -1.9,6.6 -0.09,9.99 z"
       style="fill:#7f664c"
       id="path27" />
    <path
       d="m 152.72,167.66 c 4.93,2.34 9.74,3.2 15.23,-1.37 2.37,-1.91 3.9,-5.29 2.27,-7.76 a 5.65,5.65 0 0 0 -5.32,-2.14 13.68,13.68 0 0 0 -5.67,2.18 17.82,17.82 0 0 0 -4.71,4.45 13.22,13.22 0 0 0 -1.8,4.64 z"
       style="fill:#7f664c"
       id="path29" />
    <path
       d="m 155.31,144.35 a 231.23,231.23 0 0 0 -3.62,33.77"
       style="fill:none;stroke:#7f664c;stroke-miterlimit:10"
       id="path31" />
    <path
       d="m 132.25,193.26 a 16.56,16.56 0 0 0 9.18,6.2 c 3.41,0.8 6.67,0.09 8.53,-2.73 a 14,14 0 0 0 1.4,-2.95 c -2.09,-1.31 -3.62,-3.47 -5.13,-5.63 -1.51,-2.16 -3,-4.07 -5.29,-5 -2.52,-0.93 -7.89,-2.28 -10.12,-0.6 -1.47,1.14 -1.74,2.7 -1.36,4.57 a 15.29,15.29 0 0 0 2.79,6.14 z"
       style="fill:#7f664c"
       id="path33" />
    <path
       d="m 153.14,201.3 c 5.33,1.15 10.17,0.66 14.55,-4.64 1.85,-2.24 2.78,-5.43 0.78,-7.16 a 6.77,6.77 0 0 0 -5.61,-1 12.27,12.27 0 0 0 -5.2,2.83 15.12,15.12 0 0 0 -3.8,5.12 13,13 0 0 0 -0.72,4.85 z"
       style="fill:#7f664c"
       id="path35" />
    <path
       d="m 151.69,178.12 -0.22,8.52 a 73,73 0 0 0 0.41,8.34 123.47,123.47 0 0 0 2.85,16.61"
       style="fill:none;stroke:#7f664c;stroke-miterlimit:10"
       id="path37" />
    <path
       d="m 140.46,231.48 a 17.1,17.1 0 0 0 10.54,3.38 c 3.52,-0.17 6.41,-1.76 7.45,-5 a 15.47,15.47 0 0 0 0.54,-3.23 c -4.79,-1.35 -8.22,-6.72 -13.11,-7.08 -2.69,-0.16 -8.27,0 -9.86,2.36 -2.17,3.21 1.22,7.18 4.44,9.57 z"
       style="fill:#7f664c"
       id="path39" />
    <path
       d="m 162.73,233.37 a 16.44,16.44 0 0 0 7.35,-2.07 13.91,13.91 0 0 0 5.36,-6.39 c 1.19,-2.62 1.2,-5.92 -1.29,-7.26 a 6,6 0 0 0 -5.71,0.53 13.22,13.22 0 0 0 -4.13,4.35 15.74,15.74 0 0 0 -2.21,6 12.72,12.72 0 0 0 0.63,4.84 z"
       style="fill:#7f664c"
       id="path41" />
    <path
       d="m 154.73,211.59 a 107,107 0 0 0 12.51,31.08"
       style="fill:none;stroke:#7f664c;stroke-miterlimit:10"
       id="path43" />
    <path
       d="m 161.15,266.72 a 17.71,17.71 0 0 0 5.92,0.65 14.65,14.65 0 0 0 5.44,-1.42 c 3.15,-1.56 5.06,-4.31 4.67,-7.66 a 18.07,18.07 0 0 0 -0.8,-3.16 c -2.45,0.34 -5,-0.45 -7.52,-1.17 -2.52,-0.72 -5,-1.43 -7.36,-0.8 -2.61,0.73 -7.89,2.61 -8.51,5.51 -0.88,3.92 4.08,6.85 8.16,8.05 z"
       style="fill:#7f664c"
       id="path45" />
    <path
       d="m 182.54,259.58 a 16.38,16.38 0 0 0 5.59,-5.17 16.21,16.21 0 0 0 2.31,-7.83 c 0.2,-2.74 -0.72,-5.3 -3.32,-5.42 a 6.8,6.8 0 0 0 -5,2.72 12.83,12.83 0 0 0 -2.34,5.44 13.74,13.74 0 0 0 0.22,6.22 10.8,10.8 0 0 0 2.54,4.04 z"
       style="fill:#7f664c"
       id="path47" />
    <path
       d="m 167.24,242.67 a 73.23,73.23 0 0 0 10.28,13.06 57,57 0 0 0 13.26,9.79"
       style="fill:none;stroke:#7f664c;stroke-miterlimit:10"
       id="path49" />
    <path
       d="m 195.35,289 a 19.46,19.46 0 0 0 9.35,-5.11 c 2.42,-2.52 3.56,-5.64 2.11,-8.7 a 13.22,13.22 0 0 0 -1.87,-2.71 c -4.38,2.3 -10.49,1.31 -13.68,5 a 39.72,39.72 0 0 0 -3.16,4.29 c -1,1.67 -1.56,3.51 -1.13,4.9 0.63,3.41 4.77,3.06 8.38,2.33 z"
       style="fill:#7f664c"
       id="path51" />
    <path
       d="m 212.39,274.84 c 3.76,-3.89 6.12,-8.21 3.64,-14.84 -1,-2.8 -3.93,-5.51 -7.1,-4.83 a 5.22,5.22 0 0 0 -3.78,4.41 14.71,14.71 0 0 0 0.6,6.13 19.41,19.41 0 0 0 2.82,6 13.77,13.77 0 0 0 3.82,3.13 z"
       style="fill:#7f664c"
       id="path53" />
    <path
       d="m 190.78,265.52 c 1.18,0.7 2.47,1.19 3.71,1.79 l 3.95,1.73 7.82,3.57 c 2.6,1.18 5.18,2.35 7.79,3.42 1.3,0.54 2.6,1.06 3.92,1.55 1.32,0.49 2.64,0.95 4,1.5"
       style="fill:none;stroke:#7f664c;stroke-miterlimit:10"
       id="path55" />
    <path
       d="m 224.74,302 a 26.07,26.07 0 0 0 4.55,-1.55 24.39,24.39 0 0 0 4.55,-2.61 c 2.73,-2 4.77,-4.75 3.89,-8 a 12.19,12.19 0 0 0 -1.41,-3 c -4.74,1.6 -10.5,0.26 -13.77,4 -1.8,2 -4.75,6.56 -4.54,9.06 a 2.62,2.62 0 0 0 0.72,1.78 2.59,2.59 0 0 0 1.56,0.75 14.17,14.17 0 0 0 4.45,-0.43 z"
       style="fill:#7f664c"
       id="path57" />
    <path
       d="m 243.33,290.86 c 2.38,-1.36 4.53,-2.74 5.93,-4.85 1.4,-2.11 2,-4.88 0.87,-8.93 -0.9,-3.4 -4.42,-7.25 -8.12,-7.13 a 4.61,4.61 0 0 0 -4.4,3.88 16.2,16.2 0 0 0 0.29,6.36 28.54,28.54 0 0 0 2.22,6.54 20.2,20.2 0 0 0 3.21,4.13 z"
       style="fill:#7f664c"
       id="path59" />
    <path
       d="m 222,279.08 a 78.92,78.92 0 0 1 29,19.52"
       style="fill:none;stroke:#7f664c;stroke-miterlimit:10"
       id="path61" />
    <path
       d="m 243.7,320.54 a 26.32,26.32 0 0 0 10,0.11 c 3.39,-0.69 6.31,-2.26 6.94,-5.61 a 10.33,10.33 0 0 0 0,-3.33 c -4.94,-0.58 -9.64,-4.21 -14.18,-2.25 -2.47,1 -7.11,3.85 -8,6.23 -1.16,3.1 2.16,4.09 5.24,4.85 z"
       style="fill:#7f664c"
       id="path63" />
    <path
       d="m 265.26,318.35 c 5.38,-0.44 10.49,-1.29 12.05,-9.58 a 12,12 0 0 0 -0.65,-5.73 7.71,7.71 0 0 0 -3.67,-4.19 4.7,4.7 0 0 0 -5.66,1.66 16.49,16.49 0 0 0 -2.44,5.87 29.7,29.7 0 0 0 -0.77,6.87 11,11 0 0 0 0.43,2.6 c 0.2,0.86 0.45,1.68 0.71,2.5 z"
       style="fill:#7f664c"
       id="path65" />
    <path
       d="m 251,298.6 a 78.43,78.43 0 0 1 17.89,30.06"
       style="fill:none;stroke:#7f664c;stroke-miterlimit:10"
       id="path67" />
    <path
       d="m 251.69,339.45 c 5.49,3.28 15.19,3.57 17.68,-2.17 a 10.93,10.93 0 0 0 0.72,-2.89 c -4.62,-1 -7.86,-5.47 -12.72,-5.49 -2.66,0 -8.17,0.51 -9.77,2.7 -2.13,2.98 1.09,6.07 4.09,7.85 z"
       style="fill:#7f664c"
       id="path69" />
    <path
       d="m 273.3,340.42 c 5.32,-0.21 10.13,-1.46 13.21,-7.6 1.31,-2.6 1.34,-6 -1.12,-7.16 a 6.31,6.31 0 0 0 -5.67,0.69 14.35,14.35 0 0 0 -4.18,4.15 16.43,16.43 0 0 0 -2.46,5.52 11.36,11.36 0 0 0 0.22,4.4 z"
       style="fill:#7f664c"
       id="path71" />
    <path
       d="m 266.2,321.34 c 2.58,9.39 6.51,18.48 9.95,27.88"
       style="fill:none;stroke:#7f664c;stroke-miterlimit:10"
       id="path73" />
    <path
       d="m 261.2,366.06 a 23.78,23.78 0 0 0 9.37,2.55 c 3.3,0.14 6.7,-0.42 8.32,-3.13 a 9.56,9.56 0 0 0 1.08,-2.8 c -4.42,-1.64 -7.48,-5.93 -12.33,-5.66 -2.65,0.13 -8,1.07 -9.7,3 -2.17,2.48 0.57,4.56 3.26,6.04 z"
       style="fill:#7f664c"
       id="path75" />
    <path
       d="m 282.18,369.41 a 18.49,18.49 0 0 0 7.64,0.45 c 2.49,-0.53 4.78,-2 6.76,-5.73 1.65,-3 1.86,-7.29 -0.73,-9.23 a 5.26,5.26 0 0 0 -5.78,0.07 15.66,15.66 0 0 0 -4.33,4.24 22.76,22.76 0 0 0 -3,5.57 16,16 0 0 0 -0.56,4.63 z"
       style="fill:#7f664c"
       id="path77" />
    <path
       d="m 276.15,349.22 a 132.43,132.43 0 0 1 4.48,14.46 57.3,57.3 0 0 1 1.31,7.61 c 0.08,1.29 0.24,2.59 0.25,3.88 v 3.86"
       style="fill:none;stroke:#7f664c;stroke-miterlimit:10"
       id="path79" />
    <path
       d="m 261.51,387.32 a 25.36,25.36 0 0 0 7.13,6.58 c 2.86,1.75 6.15,2.67 8.82,1.06 a 10,10 0 0 0 2.25,-2 33.46,33.46 0 0 1 -3.7,-5.88 9.84,9.84 0 0 0 -4.78,-4.51 c -2.42,-1 -7.79,-2.18 -10,-1.39 -1.54,0.53 -1.89,1.42 -1.61,2.5 a 10.7,10.7 0 0 0 1.89,3.64 z"
       style="fill:#7f664c"
       id="path81" />
    <path
       d="m 278.66,399.89 c 4.29,3.15 8.67,5.74 15.17,1.91 2.71,-1.63 5,-5.45 3.58,-8.51 a 5,5 0 0 0 -5.16,-2.64 16,16 0 0 0 -5.81,1.9 23.24,23.24 0 0 0 -5.23,3.56 14.63,14.63 0 0 0 -2.55,3.78 z"
       style="fill:#7f664c"
       id="path83" />
    <path
       d="m 282.16,379 a 75.3,75.3 0 0 1 -2.33,15.13 99.11,99.11 0 0 1 -4.86,14.4"
       style="fill:none;stroke:#7f664c;stroke-miterlimit:10"
       id="path85" />
    <path
       d="m 252.52,410.51 a 23,23 0 0 0 5,8.47 c 2.34,2.48 5.23,4.13 8.28,3.3 a 9.18,9.18 0 0 0 2.68,-1.32 c -2.11,-4.22 -1.28,-9.45 -5,-12.58 -2,-1.72 -6.59,-4.7 -9.08,-4.52 -3.27,0.22 -2.76,3.63 -1.88,6.65 z"
       style="fill:#7f664c"
       id="path87" />
    <path
       d="m 265.71,427.35 c 3.31,4.08 7.06,7.6 14.14,5.71 3,-0.78 6,-3.65 5.49,-6.75 a 5.36,5.36 0 0 0 -4.25,-3.93 16.23,16.23 0 0 0 -6,0.05 21.15,21.15 0 0 0 -5.94,1.94 12.56,12.56 0 0 0 -3.44,2.98 z"
       style="fill:#7f664c"
       id="path89" />
    <path
       d="m 275,408.56 a 132.65,132.65 0 0 1 -14.88,26.3"
       style="fill:none;stroke:#7f664c;stroke-miterlimit:10"
       id="path91" />
    <path
       d="m 314.22,411.43 c -7.23,0.6 -16.85,-3.95 -16.05,-10.92 a 12.6,12.6 0 0 1 0.91,-3.23 c 5.08,1.23 10.7,-1.62 15.47,0.72 2.59,1.34 7.71,4.51 8.06,7.5 0.44,4.02 -4.46,5.67 -8.39,5.93 z"
       style="fill:#7f664c"
       id="path93" />
    <path
       d="m 292.58,401.67 c -5,-2.88 -9,-6.54 -8.6,-14.16 0.17,-3.21 2,-6.58 5,-6.53 2,0 4,1.61 5.12,3.5 a 14.53,14.53 0 0 1 1.79,6.2 17.83,17.83 0 0 1 -0.66,6.73 13.57,13.57 0 0 1 -2.65,4.26 z"
       style="fill:#7f664c"
       id="path95" />
    <path
       d="m 333.38,392.65 c -7.23,0.6 -16.86,-3.95 -16.06,-10.92 a 13.1,13.1 0 0 1 0.92,-3.24 c 5.08,1.24 10.7,-1.61 15.46,0.73 2.59,1.33 7.72,4.51 8.07,7.5 0.44,4.02 -4.47,5.67 -8.39,5.93 z"
       style="fill:#7f664c"
       id="path97" />
    <path
       d="m 311.74,382.89 c -5.05,-2.88 -9,-6.55 -8.61,-14.16 0.17,-3.21 2,-6.59 5,-6.53 2,0 4,1.61 5.12,3.5 a 14.73,14.73 0 0 1 1.79,6.2 17.85,17.85 0 0 1 -0.67,6.73 13.36,13.36 0 0 1 -2.63,4.26 z"
       style="fill:#7f664c"
       id="path99" />
    <path
       d="m 352.61,372.21 c -7.24,0.6 -16.86,-3.95 -16.06,-10.92 a 12.69,12.69 0 0 1 0.92,-3.24 c 5.08,1.24 10.7,-1.61 15.46,0.73 2.59,1.33 7.72,4.51 8.07,7.5 0.43,4.02 -4.47,5.66 -8.39,5.93 z"
       style="fill:#7f664c"
       id="path101" />
    <path
       d="m 331,362.45 c -5.05,-2.88 -9,-6.55 -8.61,-14.16 0.17,-3.22 2,-6.59 5,-6.53 2,0 4,1.6 5.13,3.5 a 14.58,14.58 0 0 1 1.78,6.2 17.68,17.68 0 0 1 -0.66,6.73 13.36,13.36 0 0 1 -2.64,4.26 z"
       style="fill:#7f664c"
       id="path103" />
    <path
       d="m 366.58,353.84 c -7.24,0.6 -16.86,-3.95 -16.06,-10.92 a 12.61,12.61 0 0 1 0.92,-3.23 c 5.08,1.23 10.7,-1.62 15.46,0.72 2.59,1.34 7.72,4.51 8.07,7.5 0.43,4.02 -4.47,5.67 -8.39,5.93 z"
       style="fill:#7f664c"
       id="path105" />
    <path
       d="m 344.94,344.08 c -5.05,-2.88 -9,-6.54 -8.61,-14.16 0.17,-3.21 2,-6.58 5,-6.53 2,0 4,1.61 5.13,3.5 a 14.67,14.67 0 0 1 1.78,6.2 17.64,17.64 0 0 1 -0.66,6.73 13.36,13.36 0 0 1 -2.64,4.26 z"
       style="fill:#7f664c"
       id="path107" />
    <path
       d="m 378.08,316.86 c -5.78,4.39 -16.34,5.71 -19.41,-0.6 a 12.93,12.93 0 0 1 -1,-3.22 c 5,-1.68 8.16,-7.11 13.44,-7.69 2.9,-0.26 8.93,-0.34 10.83,2 2.56,3.16 -0.69,7.18 -3.86,9.51 z"
       style="fill:#7f664c"
       id="path109" />
    <path
       d="m 354.59,320.24 c -5.81,0.28 -11.12,-0.69 -14.87,-7.33 -1.58,-2.8 -1.88,-6.61 0.75,-8.21 1.72,-1.06 4.25,-0.8 6.2,0.2 a 14.58,14.58 0 0 1 4.83,4.27 17.75,17.75 0 0 1 3.05,6 13.31,13.31 0 0 1 0.04,5.07 z"
       style="fill:#7f664c"
       id="path111" />
    <path
       d="m 284.83,409 c 8.68,-7.53 17.63,-14.64 25.21,-22.87 0,0 53.94,-49.26 45.08,-72.83"
       style="fill:none;stroke:#7f664c;stroke-miterlimit:10"
       id="path113" />
    <path
       d="m 288.93,433.67 a 23.49,23.49 0 0 1 -10.6,-2.52 c -3.32,-1.7 -5.87,-4.25 -5.75,-7.77 a 11,11 0 0 1 0.71,-3.32 c 5.16,0.91 10.64,-1.75 15.17,1 2.47,1.51 7.14,5.2 7.57,8 0.57,3.72 -3.57,4.5 -7.1,4.61 z"
       style="fill:#7f664c"
       id="path115" />
    <path
       d="m 267.09,425.15 c -5.36,-2.25 -10.14,-5 -9.95,-13.33 a 10.29,10.29 0 0 1 1.64,-5.17 5.9,5.9 0 0 1 4.16,-2.79 5.74,5.74 0 0 1 5.37,3.26 16.49,16.49 0 0 1 1.63,6.42 23.46,23.46 0 0 1 -0.51,7 17.09,17.09 0 0 1 -2.34,4.61 z"
       style="fill:#7f664c"
       id="path117" />
    <path
       d="m 284.83,409 c -8.68,7.5 -17.27,15.44 -24.3,24.85"
       style="fill:none;stroke:#7f664c;stroke-miterlimit:10"
       id="path119" />
    <path
       d="m 306.46,49.22 c 2.45,6.13 1.87,16.12 -4.85,17.26 a 12.57,12.57 0 0 1 -3.3,0 c -0.62,-4.92 -4.85,-9.39 -3.62,-14.13 0.66,-2.61 2.73,-7.71 5.13,-8.75 3.18,-1.38 5.25,2.25 6.64,5.62 z"
       style="fill:#7f664c"
       id="path121" />
    <path
       d="m 304.61,71.21 c -0.91,5.33 -2.89,9.89 -10,11.59 a 9.36,9.36 0 0 1 -4.81,-0.21 5.54,5.54 0 0 1 -3.49,-3 5.17,5.17 0 0 1 1.51,-5.59 14.36,14.36 0 0 1 5.4,-3 20.52,20.52 0 0 1 6.54,-1.06 14.86,14.86 0 0 1 4.85,1.27 z"
       style="fill:#7f664c"
       id="path123" />
    <path
       d="m 284.5,58.4 c 9.64,6.46 19.79,11.8 29.31,17.94"
       style="fill:none;stroke:#7f664c;stroke-miterlimit:10"
       id="path125" />
    <path
       d="M 336.92,68.76 A 17.41,17.41 0 0 1 337,79.65 c -1.14,3.3 -3.44,5.72 -6.81,5.79 a 14.91,14.91 0 0 1 -3.25,-0.41 c 0,-2.45 -1,-4.93 -1.8,-7.37 -0.8,-2.44 -1.58,-4.8 -0.94,-7.2 0.7,-2.62 2.65,-7.82 5.35,-8.62 3.57,-1.04 6.15,3.16 7.37,6.92 z"
       style="fill:#7f664c"
       id="path127" />
    <path
       d="m 332.4,90.54 a 16.48,16.48 0 0 1 -3.87,6.6 13.19,13.19 0 0 1 -7.76,3.36 8.17,8.17 0 0 1 -4.34,-0.62 4.16,4.16 0 0 1 -2.63,-3 5.83,5.83 0 0 1 2.2,-5.33 13.32,13.32 0 0 1 5.39,-2.55 16.33,16.33 0 0 1 6.46,-0.37 14.62,14.62 0 0 1 4.55,1.91 z"
       style="fill:#7f664c"
       id="path129" />
    <path
       d="m 313.81,76.34 c 4.8,3 9.36,6.35 13.86,9.77 4.5,3.42 8.73,7.18 12.78,11.12"
       style="fill:none;stroke:#7f664c;stroke-miterlimit:10"
       id="path131" />
    <path
       d="m 364.54,94.13 c 0.88,7.09 -3,16.19 -9.75,15.15 a 12.92,12.92 0 0 1 -3.12,-1 13.94,13.94 0 0 0 0.14,-3.77 c -0.13,-1.26 -0.35,-2.53 -0.54,-3.8 -0.37,-2.54 -0.59,-5 0.5,-7.27 1.23,-2.44 4.09,-7.12 6.93,-7.44 3.68,-0.3 5.35,4.32 5.84,8.13 z"
       style="fill:#7f664c"
       id="path133" />
    <path
       d="m 356.1,114.69 c -2.65,4.78 -6.06,8.27 -13.19,7.74 -3,-0.18 -6.24,-2 -6.36,-5 a 5.68,5.68 0 0 1 3.09,-4.84 13.63,13.63 0 0 1 5.89,-1.52 17.88,17.88 0 0 1 6.41,0.89 13.21,13.21 0 0 1 4.16,2.73 z"
       style="fill:#7f664c"
       id="path135" />
    <path
       d="M 340.45,97.23 A 230.87,230.87 0 0 1 363,122.61"
       style="fill:none;stroke:#7f664c;stroke-miterlimit:10"
       id="path137" />
    <path
       d="M 387.64,123.63 A 16.49,16.49 0 0 1 383.77,134 c -2.3,2.64 -5.37,4 -8.52,2.74 a 14.23,14.23 0 0 1 -2.86,-1.59 c 0.94,-2.29 0.93,-4.93 0.9,-7.57 -0.03,-2.64 0,-5 1.43,-7.09 1.52,-2.23 5.1,-6.45 7.89,-6.38 1.86,0.08 3,1.19 3.76,2.94 a 15.19,15.19 0 0 1 1.27,6.58 z"
       style="fill:#7f664c"
       id="path139" />
    <path
       d="m 375.31,142.31 c -3.66,4 -7.89,6.45 -14.53,4.69 -2.81,-0.75 -5.42,-2.8 -4.8,-5.38 a 6.75,6.75 0 0 1 4,-4.07 12.25,12.25 0 0 1 5.87,-0.72 15.09,15.09 0 0 1 6.07,2 12.79,12.79 0 0 1 3.39,3.48 z"
       style="fill:#7f664c"
       id="path141" />
    <path
       d="m 363,122.61 5.12,6.81 a 72.47,72.47 0 0 1 4.52,7 123.9,123.9 0 0 1 7.36,15.19"
       style="fill:none;stroke:#7f664c;stroke-miterlimit:10"
       id="path143" />
    <path
       d="m 403.18,159.51 a 17.23,17.23 0 0 1 -6.59,8.85 c -3,1.91 -6.24,2.3 -9,0.28 a 15.36,15.36 0 0 1 -2.31,-2.32 c 3.12,-3.87 2.78,-10.23 6.55,-13.37 2.1,-1.7 6.72,-4.83 9.4,-3.81 3.62,1.35 3.18,6.55 1.95,10.37 z"
       style="fill:#7f664c"
       id="path145" />
    <path
       d="m 386.15,174 a 16.39,16.39 0 0 1 -7.19,2.58 13.8,13.8 0 0 1 -8.07,-2.09 c -2.49,-1.43 -4.42,-4.11 -3.17,-6.65 a 6.06,6.06 0 0 1 4.95,-2.89 13.34,13.34 0 0 1 5.9,1.14 16,16 0 0 1 5.28,3.6 12.66,12.66 0 0 1 2.3,4.31 z"
       style="fill:#7f664c"
       id="path147" />
    <path
       d="m 380,151.61 a 107.3,107.3 0 0 1 7.89,32.57"
       style="fill:none;stroke:#7f664c;stroke-miterlimit:10"
       id="path149" />
    <path
       d="m 406.82,200.2 a 17.31,17.31 0 0 1 -4.44,4 14.84,14.84 0 0 1 -5.25,2 c -3.47,0.55 -6.63,-0.57 -8.26,-3.53 a 18.29,18.29 0 0 1 -1.18,-3 c 2.19,-1.15 3.8,-3.27 5.44,-5.33 1.64,-2.06 3.22,-4.06 5.52,-4.93 2.55,-0.91 7.94,-2.46 10.13,-0.45 2.99,2.63 0.66,7.9 -1.96,11.24 z"
       style="fill:#7f664c"
       id="path151" />
    <path
       d="m 385.26,206.83 a 16.41,16.41 0 0 1 -7.55,-1 16.15,16.15 0 0 1 -6.43,-5 c -1.75,-2.12 -2.5,-4.74 -0.45,-6.35 a 6.78,6.78 0 0 1 5.67,-0.7 12.75,12.75 0 0 1 5.06,3.06 13.86,13.86 0 0 1 3.44,5.19 10.77,10.77 0 0 1 0.26,4.8 z"
       style="fill:#7f664c"
       id="path153" />
    <path
       d="m 387.89,184.18 a 73.68,73.68 0 0 1 -0.78,16.6 57,57 0 0 1 -5.1,15.67"
       style="fill:none;stroke:#7f664c;stroke-miterlimit:10"
       id="path155" />
    <path
       d="m 391.92,238.19 a 19.4,19.4 0 0 1 -10.58,1.28 c -3.44,-0.65 -6.18,-2.52 -6.77,-5.86 a 12.94,12.94 0 0 1 -0.06,-3.29 c 4.91,-0.67 9.3,-5 14.07,-3.85 a 39.12,39.12 0 0 1 5.06,1.66 c 1.8,0.76 3.31,1.94 3.76,3.33 1.47,3.13 -2.1,5.25 -5.48,6.73 z"
       style="fill:#7f664c"
       id="path157" />
    <path
       d="m 369.85,236.6 c -5.33,-1 -9.76,-3.13 -11.6,-10 -0.78,-2.89 0,-6.78 3,-8.06 a 5.19,5.19 0 0 1 5.63,1.39 14.62,14.62 0 0 1 3.07,5.34 19.3,19.3 0 0 1 1.17,6.48 14,14 0 0 1 -1.27,4.85 z"
       style="fill:#7f664c"
       id="path159" />
    <path
       d="m 382,216.45 c -0.56,1.26 -1.33,2.4 -2,3.62 l -2.2,3.7 -4.3,7.45 c -1.42,2.47 -2.85,4.92 -4.34,7.31 -0.75,1.19 -1.51,2.37 -2.3,3.54 -0.79,1.17 -1.59,2.31 -2.4,3.56"
       style="fill:none;stroke:#7f664c;stroke-miterlimit:10"
       id="path161" />
    <path
       d="m 375.58,265.89 a 28.07,28.07 0 0 1 -4.6,1.38 24.85,24.85 0 0 1 -5.22,0.52 c -3.37,0 -6.65,-1.1 -7.82,-4.26 a 12,12 0 0 1 -0.61,-3.28 c 4.79,-1.45 8.7,-5.89 13.54,-4.73 2.62,0.56 7.68,2.58 9,4.73 a 2.53,2.53 0 0 1 -0.38,3.38 14.31,14.31 0 0 1 -3.91,2.26 z"
       style="fill:#7f664c"
       id="path163" />
    <path
       d="m 354,267.61 c -2.73,0.28 -5.29,0.4 -7.65,-0.5 -2.36,-0.9 -4.44,-2.82 -5.9,-6.75 -1.24,-3.3 -0.62,-8.48 2.46,-10.53 a 4.62,4.62 0 0 1 5.84,0.6 16.4,16.4 0 0 1 3.47,5.35 29,29 0 0 1 2,6.61 20.14,20.14 0 0 1 -0.22,5.22 z"
       style="fill:#7f664c"
       id="path165" />
    <path
       d="M 364.49,245.63 A 79.06,79.06 0 0 0 352.2,278.38"
       style="fill:none;stroke:#7f664c;stroke-miterlimit:10"
       id="path167" />
    <path
       d="m 370.92,292 a 26.22,26.22 0 0 1 -8.08,5.89 c -3.15,1.41 -6.44,1.83 -8.89,-0.53 a 10,10 0 0 1 -1.94,-2.71 c 3.68,-3.34 5.39,-9 10.22,-10.07 2.6,-0.63 8,-1 10.13,0.42 2.75,1.83 0.64,4.57 -1.44,7 z"
       style="fill:#7f664c"
       id="path169" />
    <path
       d="m 352.11,302.73 c -4.64,2.77 -9.3,5 -15.38,-0.8 a 11.93,11.93 0 0 1 -2.8,-5 7.77,7.77 0 0 1 0.55,-5.55 4.73,4.73 0 0 1 5.58,-1.94 16.67,16.67 0 0 1 5.39,3.36 29.52,29.52 0 0 1 4.62,5.15 11.55,11.55 0 0 1 1.16,2.37 c 0.33,0.78 0.6,1.6 0.88,2.41 z"
       style="fill:#7f664c"
       id="path171" />
    <path
       d="m 352.2,278.38 a 78.79,78.79 0 0 0 2.92,34.87"
       style="fill:none;stroke:#7f664c;stroke-miterlimit:10"
       id="path173" />
    <path
       d="m 455.34,185.61 a 15.73,15.73 0 0 1 -3.15,5.2 13.74,13.74 0 0 1 -4.5,3.4 c -3.22,1.48 -6.54,1.24 -8.88,-1.18 a 13.87,13.87 0 0 1 -2,-2.62 c 1.74,-1.7 2.75,-4.22 3.67,-6.7 0.92,-2.48 1.8,-5 3.66,-6.61 2.1,-1.72 6.6,-5.16 9.42,-3.77 1.9,0.93 2.73,3 2.93,5.32 a 17,17 0 0 1 -1.15,6.96 z"
       style="fill:#7f664c"
       id="path175" />
    <path
       d="m 436.44,198 a 14.62,14.62 0 0 1 -15.1,-2 c -2.14,-1.62 -3.73,-3.77 -2.09,-5.7 a 7.33,7.33 0 0 1 5.21,-2.21 11.87,11.87 0 0 1 5.7,1.37 13.16,13.16 0 0 1 4.76,4 11.2,11.2 0 0 1 1.52,4.54 z"
       style="fill:#7f664c"
       id="path177" />
    <path
       d="m 429.2,167.89 c 7.65,13.78 8.66,29.45 6.82,40.44"
       style="fill:none;stroke:#7f664c;stroke-miterlimit:10"
       id="path179" />
    <path
       d="m 450.84,228.22 a 16.42,16.42 0 0 1 -10.64,3.56 c -3.52,-0.19 -6.39,-1.83 -7.39,-5.08 a 17.74,17.74 0 0 1 -0.51,-3.25 c 4.81,-1.31 8.16,-6.87 13,-7.56 2.7,-0.3 8.32,-0.57 10,1.89 2.23,3.34 -1.18,7.85 -4.46,10.44 z"
       style="fill:#7f664c"
       id="path181" />
    <path
       d="m 428.45,230.16 a 16.44,16.44 0 0 1 -7.32,-2.17 14.15,14.15 0 0 1 -5.26,-6.47 7.92,7.92 0 0 1 -0.75,-4 3.41,3.41 0 0 1 1.91,-2.88 6.5,6.5 0 0 1 5.7,0.54 12.84,12.84 0 0 1 4.21,4.19 14.65,14.65 0 0 1 2.21,5.94 12.59,12.59 0 0 1 -0.7,4.85 z"
       style="fill:#7f664c"
       id="path183" />
    <path
       d="m 436,208.33 a 76.44,76.44 0 0 1 -4.54,16.14 100.48,100.48 0 0 1 -7.7,15"
       style="fill:none;stroke:#7f664c;stroke-miterlimit:10"
       id="path185" />
    <path
       d="m 431.15,262.82 a 17.39,17.39 0 0 1 -10.91,-0.05 c -3.3,-1.19 -5.67,-3.51 -5.7,-6.91 A 13.22,13.22 0 0 1 415,252.6 c 5,0.13 9.89,-3.9 14.68,-2.71 2.6,0.69 7.84,2.57 8.61,5.35 1.01,3.76 -3.39,6.38 -7.14,7.58 z"
       style="fill:#7f664c"
       id="path187" />
    <path
       d="m 409.37,258 c -5.12,-1.82 -9.1,-4.71 -9.76,-11.76 -0.27,-3 0.85,-6.4 3.72,-7 a 5.84,5.84 0 0 1 5.29,2.22 13.29,13.29 0 0 1 2.54,5.48 16.64,16.64 0 0 1 0.25,6.48 13.53,13.53 0 0 1 -2.04,4.58 z"
       style="fill:#7f664c"
       id="path189" />
    <path
       d="m 423.78,239.5 a 166.46,166.46 0 0 1 -21.19,26.65"
       style="fill:none;stroke:#7f664c;stroke-miterlimit:10"
       id="path191" />
    <path
       d="m 406.62,289.82 a 20,20 0 0 1 -10.33,-1.53 c -3.15,-1.43 -5.52,-3.78 -5.32,-7.19 a 12.44,12.44 0 0 1 0.75,-3.23 c 4.94,0.54 10.28,-2.55 14.74,-0.45 2.43,1.16 7.14,4.07 7.51,6.81 0.48,3.66 -3.8,5.11 -7.35,5.59 z"
       style="fill:#7f664c"
       id="path193" />
    <path
       d="m 385.66,283.11 c -5.06,-1.86 -9.48,-4.39 -9.19,-12.28 0.13,-3.32 2.19,-7.24 5.36,-7.69 a 5.23,5.23 0 0 1 5.09,2.76 14,14 0 0 1 1.63,6 20.78,20.78 0 0 1 -0.54,6.69 17,17 0 0 1 -2.35,4.52 z"
       style="fill:#7f664c"
       id="path195" />
    <path
       d="m 402.59,266.15 c -7.85,8.28 -16.48,16.14 -23.46,25.69"
       style="fill:none;stroke:#7f664c;stroke-miterlimit:10"
       id="path197" />
    <path
       d="m 389.52,312.28 a 32.15,32.15 0 0 1 -9.61,1.44 c -3.37,0 -6.68,-0.88 -7.93,-4.07 a 10.2,10.2 0 0 1 -0.59,-3.31 c 2.43,-0.71 4.57,-2.17 6.82,-3.22 2.25,-1.05 4.49,-1.74 6.82,-1.09 2.6,0.67 7.56,2.93 8.74,5.13 1.61,2.84 -1.42,4.11 -4.25,5.12 z"
       style="fill:#7f664c"
       id="path199" />
    <path
       d="m 368.14,314 c -2.69,0.48 -5.26,0.88 -7.68,0.13 -2.42,-0.75 -4.67,-2.71 -6.1,-7 -1.26,-3.66 -0.38,-9.43 2.86,-11.57 a 4.5,4.5 0 0 1 5.88,0.68 16.79,16.79 0 0 1 3.23,5.57 34.68,34.68 0 0 1 1.88,6.84 27,27 0 0 1 -0.07,5.35 z"
       style="fill:#7f664c"
       id="path201" />
    <path
       d="m 379.13,291.84 a 65.07,65.07 0 0 0 -8.59,15.6 c -2.09,5.6 -10.34,21.46 -22.67,34.34"
       style="fill:none;stroke:#7f664c;stroke-miterlimit:10"
       id="path203" />
  </g>
  <g
     id="freepik--Manual--inject-86"
     transform="translate(-19.76,-43.299385)">
    <path
       d="M 261,387 V 135.5 h 168.84 v 253.37 l -5.48,3.3 h -119 c -2.6,-0.57 -24.24,-0.29 -44.31,-5.18"
       style="fill:#bfbfbf;stroke:#263238;stroke-linecap:round;stroke-linejoin:round"
       id="path206" />
    <path
       d="m 259.44,385.93 -1.23,0.47 c -8.19,3.15 -34.31,4.77 -43.08,4.77 H 101 V 135.5 h 160 z"
       style="fill:#263238"
       id="path208" />
    <path
       d="m 261,387 -1.22,0.46 c -8.2,3.12 -34.32,4.72 -43.09,4.72 h -119 v -251.5 h 120.43 c 9.2,0 34.34,-1.76 42.88,-5.18 v 0 z"
       style="fill:#7f664c;stroke:#263238;stroke-miterlimit:10"
       id="path210" />
    <path
       d="m 261,387.34 1.22,0.46 c 8.2,3.12 32.32,4.72 41.09,4.72 H 422.36 V 141 H 301.88 c -9.2,0 -32.34,-1.76 -40.88,-5.18 v 0 z"
       style="fill:#ffffff;stroke:#263238;stroke-linecap:round;stroke-linejoin:round"
       id="path212" />
    <path
       d="m 121.05,229.84 c -0.21,0.61 -5,11.06 -5.23,11.68 -2.66,8.56 -2.43,13.71 -1,22.59 l 0.19,1.23 c 0.64,16.62 -3.9,25.07 -12.46,39.33 l -1.73,2.89 -1.13,1.68 v 0 l -2.53,3.35 c 0,0 0.58,3.22 -0.88,4.52 -5.39,4.75 -8.06,5.62 -8.86,13.95 l -0.49,28.27 -1.37,-0.14 c -2.88,-0.3 -5.72,-0.67 -8.49,-1.13 l -2.37,-0.41 a 95.63,95.63 0 0 1 -10.52,-2.57 c -0.39,-0.12 -0.78,-0.24 -1.16,-0.38 -1.16,-0.38 -2.31,-0.78 -3.42,-1.21 -0.38,-0.14 -0.76,-0.29 -1.13,-0.45 -1,-0.39 -1.9,-0.8 -2.82,-1.22 L 55,351.5 c -1.35,-0.65 -2.68,-1.34 -4,-2.09 -0.54,-0.31 -1.06,-0.62 -1.59,-1 0.36,-2 0.72,-3.91 1.07,-5.8 A 393.78,393.78 0 0 0 56.86,282.5 L 58,243.44 a 40.84,40.84 0 0 1 11,-25.12 l 24.74,-25.73 c 0.64,-0.67 2.88,-1 3.74,-1 v 47.54 c 0,0 6.72,-22.53 9,-28 5.58,-13.6 15.23,-10.75 17.43,-5.8 1.44,3.21 -2.71,24.08 -2.86,24.51 z"
       style="fill:#ffffff"
       id="path214" />
    <g
       clip-path="url(#freepik--clip-path--inject-86)"
       id="g230">
      <path
         d="m 82.91,218.07 5.43,4.59 A 83.92,83.92 0 0 0 82,232.34 c 6,6.81 4.76,18.62 -2.46,24.09 l 5.61,-3 a 19.77,19.77 0 0 1 -1.15,8.8 c 8.12,-7.81 12.2,-19.08 13.38,-30.29 a 95.7,95.7 0 0 0 0.22,-15.7 c -0.27,-4.39 0.06,-10.81 -1.83,-14.74 -0.86,1.24 -10.96,18.18 -12.86,16.57 z"
         style="fill:#7f664c"
         id="path216" />
      <path
         d="m 82.91,218.07 5.43,4.59 A 83.92,83.92 0 0 0 82,232.34 c 6,6.81 4.76,18.62 -2.46,24.09 l 5.61,-3 a 19.77,19.77 0 0 1 -1.15,8.8 c 8.12,-7.81 12.2,-19.08 13.38,-30.29 a 95.7,95.7 0 0 0 0.22,-15.7 c -0.27,-4.39 0.06,-10.81 -1.83,-14.74 -0.86,1.24 -10.96,18.18 -12.86,16.57 z"
         style="opacity:0.5;fill:#ffffff"
         id="path218" />
      <path
         d="m 97.15,312.6 c 0,0 -8.74,2 -9.22,8 -0.48,6 -0.52,10.49 -0.52,10.49 a 17.12,17.12 0 0 1 8.86,-13.95 z"
         style="fill:#7f664c"
         id="path220" />
      <path
         d="m 97.15,312.6 c 0,0 -8.74,2 -9.22,8 -0.48,6 -0.52,10.49 -0.52,10.49 a 17.12,17.12 0 0 1 8.86,-13.95 z"
         style="opacity:0.5;fill:#ffffff"
         id="path222" />
      <path
         d="m 121.34,203.32 -4.28,-0.41 1.16,1.3 c -2.94,1 -6.08,2.06 -7.89,4.58 -1.81,2.52 -1.25,6.87 1.71,7.75 l -4.07,-0.87 a 5.33,5.33 0 0 0 2.64,6.27 15.59,15.59 0 0 0 -5.94,8.47 c -1.56,5.61 0,12 -2.65,17.14 a 22.52,22.52 0 0 1 -5.29,6 l -13.06,11.67 a 140.14,140.14 0 0 0 18.66,-40.94 c 2,-7.26 3.63,-15.15 9.11,-20.31 a 10,10 0 0 1 4.78,-2.71 5.37,5.37 0 0 1 5.09,1.54 l -1.16,-0.91 z"
         style="fill:#7f664c"
         id="path224" />
      <g
         style="opacity:0.5"
         id="g228">
        <path
           d="m 121.34,203.32 -4.28,-0.41 1.16,1.3 c -2.94,1 -6.08,2.06 -7.89,4.58 -1.81,2.52 -1.25,6.87 1.71,7.75 l -4.07,-0.87 a 5.33,5.33 0 0 0 2.64,6.27 15.59,15.59 0 0 0 -5.94,8.47 c -1.56,5.61 0,12 -2.65,17.14 a 22.52,22.52 0 0 1 -5.29,6 l -13.06,11.67 a 140.14,140.14 0 0 0 18.66,-40.94 c 2,-7.26 3.63,-15.15 9.11,-20.31 a 10,10 0 0 1 4.78,-2.71 5.37,5.37 0 0 1 5.09,1.54 l -1.16,-0.91 z"
           style="fill:#ffffff"
           id="path226" />
      </g>
    </g>
    <path
       d="m 49.4,348.46 c 0.36,-2 0.72,-3.91 1.07,-5.8 a 393.78,393.78 0 0 0 6.38,-60.11 L 58,243.44 a 40.84,40.84 0 0 1 11,-25.12 l 24.74,-25.73 c 0.64,-0.67 2.88,-1 3.74,-1 v 47.54 c 0,0 6.72,-22.53 9,-28 5.58,-13.6 15.23,-10.75 17.43,-5.8 1.45,3.26 -2.7,24.13 -2.85,24.56 -0.21,0.61 -5,11.06 -5.23,11.68 -2.66,8.56 -2.43,13.71 -1,22.59 l 0.19,1.23 c 0.64,16.62 -3.9,25.07 -12.46,39.33 l -1.73,2.89 -1.13,1.68 v 0 l -2.53,3.35 c 0,0 0.58,3.22 -0.88,4.52 -5.39,4.75 -8.06,5.62 -8.86,13.95 l -0.49,28.27"
       style="fill:none;stroke:#263238;stroke-linecap:round;stroke-linejoin:round"
       id="path232" />
    <path
       d="m 81.27,220.69 c 4.9,1.88 7.68,2.29 10.54,1.88 2.52,-0.36 4.68,-5.43 5.83,-8.49"
       style="fill:none;stroke:#263238;stroke-linecap:round;stroke-linejoin:round"
       id="path234" />
    <path
       d="m 79.23,229.84 a 26.1,26.1 0 0 1 16.35,14.51"
       style="fill:none;stroke:#263238;stroke-linecap:round;stroke-linejoin:round"
       id="path236" />
    <path
       d="m 84,265.34 a 22.28,22.28 0 0 1 6.68,-10.54 c 1.59,-1.39 2.32,-4.3 3.19,-6.22 l 4.15,-10.94"
       style="fill:none;stroke:#263238;stroke-linecap:round;stroke-linejoin:round"
       id="path238" />
    <path
       d="m 108.21,215.41 10.22,4.64 c 0,0 4.88,-9.91 1.32,-14.2"
       style="fill:none;stroke:#263238;stroke-linecap:round;stroke-linejoin:round"
       id="path240" />
    <path
       d="M 84.26,254.22 A 25.64,25.64 0 0 1 92.18,253"
       style="fill:none;stroke:#263238;stroke-linecap:round;stroke-linejoin:round"
       id="path242" />
    <path
       d="m 92.06,222.67 c 0.1,1.52 4.23,4.26 5.58,4"
       style="fill:none;stroke:#263238;stroke-linecap:round;stroke-linejoin:round"
       id="path244" />
    <path
       d="m 87.06,338.88 0.52,-16.35 a 6.36,6.36 0 0 1 2.78,-5.15 c 3.11,-2.11 7.86,-5.47 10.36,-9.67"
       style="fill:none;stroke:#263238;stroke-linecap:round;stroke-linejoin:round"
       id="path246" />
    <path
       d="m 392.53,432.06 v -46.9 l -0.7,-10.44 c 0,0 -6.31,-9.1 -5.91,-19.15 0.33,-8.47 10.09,-35.16 10.78,-37.95 0.26,-1 2.44,-18.45 2.44,-19.48 0,-1.03 1,-15.32 4.52,-18.45 3.52,-3.13 9.4,-4.53 11.14,0 1.74,4.53 3.48,18.79 2.45,24 -1.03,5.21 -3.14,11.49 -3.84,16 a 35.66,35.66 0 0 0 0.36,10.09 h 15.66 l 2.77,-8.7 0.71,-17.41 c 0,0 -8.92,-4.56 -10.55,-9 v -4.21 c 0.07,-1.45 0.06,-2.94 0,-4.28 v -4.61 c 3.1,1.5 23.59,11.51 25.51,14.07 2.09,2.79 3.48,13.93 3.48,13.93 l 2.76,-6.91 v -0.06 c 0,0 -8.71,-14.26 -9.4,-16.69 0,0 -7,-1.74 -10.09,-5.58 -3.09,-3.84 -5.22,-7.65 -2.09,-11.13 3.13,-3.48 20.19,6.26 20.19,6.26 l 11.41,14.75 5.29,6.83 c 0,0 9.75,9.87 10.14,12.47 0.45,2.94 -3.88,15.72 -3.88,15.72 l -14.26,28.55 c -0.83,1.5 -7.7,8.67 -14.68,15.77 -7.67,7.82 -15.47,15.56 -15.47,15.56 l 1.18,10.55 a 105.34,105.34 0 0 1 -15.35,17.7 c -1.85,1.69 -3.75,3.34 -5.72,5 a 178,178 0 0 1 -18.88,13.66"
       style="fill:#ffffff"
       id="path248" />
    <g
       clip-path="url(#freepik--clip-path-2--inject-86)"
       id="g274">
      <path
         d="m 426.57,373.25 c 1.55,-3.87 4.8,-6.75 7.69,-9.75 a 70.41,70.41 0 0 0 18.74,-37.83 55.59,55.59 0 0 1 -1.12,28.48 47.84,47.84 0 0 0 13.88,-21.26 44.7,44.7 0 0 1 -9,23.82 33.52,33.52 0 0 0 8.7,-12.19 c -4.3,10.34 -12.54,20.15 -20.32,28.05 -3.35,3.4 -8.76,10.1 -13.37,11.63 -5.55,1.8 -6.77,-6.99 -5.2,-10.95 z"
         style="fill:#7f664c"
         id="path250" />
      <path
         d="m 426.57,373.25 c 1.55,-3.87 4.8,-6.75 7.69,-9.75 a 70.41,70.41 0 0 0 18.74,-37.83 55.59,55.59 0 0 1 -1.12,28.48 47.84,47.84 0 0 0 13.88,-21.26 44.7,44.7 0 0 1 -9,23.82 33.52,33.52 0 0 0 8.7,-12.19 c -4.3,10.34 -12.54,20.15 -20.32,28.05 -3.35,3.4 -8.76,10.1 -13.37,11.63 -5.55,1.8 -6.77,-6.99 -5.2,-10.95 z"
         style="fill:#7f664c"
         id="path252" />
      <path
         d="m 426.57,373.25 c 1.55,-3.87 4.8,-6.75 7.69,-9.75 a 70.41,70.41 0 0 0 18.74,-37.83 55.59,55.59 0 0 1 -1.12,28.48 47.84,47.84 0 0 0 13.88,-21.26 44.7,44.7 0 0 1 -9,23.82 33.52,33.52 0 0 0 8.7,-12.19 c -4.3,10.34 -12.54,20.15 -20.32,28.05 -3.35,3.4 -8.76,10.1 -13.37,11.63 -5.55,1.8 -6.77,-6.99 -5.2,-10.95 z"
         style="opacity:0.5;fill:#ffffff"
         id="path254" />
      <path
         d="m 431,271.3 a 16.35,16.35 0 0 0 14.78,7.81 16.86,16.86 0 0 0 5,11.33 c 2.59,2.57 6.18,4.51 7.25,8 a 12.93,12.93 0 0 1 0,5.64 165.86,165.86 0 0 1 -5.51,24.2 V 306.51 A 25.73,25.73 0 0 0 452,300 c -1.29,-4.9 -5.37,-8.75 -6.42,-13.71 -8.72,-0.66 -16,-9.44 -15,-18.13 z"
         style="fill:#7f664c"
         id="path256" />
      <path
         d="m 411.84,279.53 c -1.53,0.4 -2.14,2.32 -1.88,3.89 0.26,1.57 1.07,3 1.35,4.53 0.28,1.53 -0.24,3.49 -1.75,4 2.43,-0.26 4.51,2.07 4.88,4.49 0.37,2.42 -0.49,4.82 -1.35,7.11 -2.73,7.29 -5.52,14.82 -5.16,22.59 0.36,7.77 4.72,15.93 12.16,18.22 -1.93,0 -3.21,-2.42 -2.57,-4.26 a 5.43,5.43 0 0 1 4.48,-3.22 20.82,20.82 0 0 1 5.78,0.33 10.89,10.89 0 0 0 5.73,-0.42 c -0.2,-4.63 1,-9.19 2.18,-13.67 l 4.92,-18.54 c 0.54,-2 1.06,-4.26 0.14,-6.14 -0.92,-1.88 -4,-2.67 -5.07,-0.87 l 1.77,-4.71 a 6.63,6.63 0 0 0 -5,3.43 l -10,-11.65 c -1.06,4.36 -1.86,9.66 1.41,12.73 1.64,1.54 4,2.13 5.73,3.57 3.06,2.56 3.47,7.07 3.25,11 A 60.49,60.49 0 0 1 429,330.22 l -11.37,-0.1 a 6.08,6.08 0 0 1 -3.19,-0.62 c -1.46,-0.9 -1.88,-2.83 -2,-4.55 -0.28,-6.15 3.37,-14.34 4.61,-20.36 1.59,-7.68 0.12,-13.43 -1.62,-21.07 a 12.18,12.18 0 0 0 -2.15,-5.14 c -0.43,-0.52 -3.2,-2.83 -4,-1.83 -0.8,1 2.05,2.22 2.56,2.98 z"
         style="fill:#7f664c"
         id="path258" />
      <path
         d="m 431,271.3 a 16.35,16.35 0 0 0 14.78,7.81 16.86,16.86 0 0 0 5,11.33 c 2.59,2.57 6.18,4.51 7.25,8 a 12.93,12.93 0 0 1 0,5.64 165.86,165.86 0 0 1 -5.51,24.2 V 306.51 A 25.73,25.73 0 0 0 452,300 c -1.29,-4.9 -5.37,-8.75 -6.42,-13.71 -8.72,-0.66 -16,-9.44 -15,-18.13 z"
         style="fill:#7f664c"
         id="path260" />
      <path
         d="m 411.84,279.53 c -1.53,0.4 -2.14,2.32 -1.88,3.89 0.26,1.57 1.07,3 1.35,4.53 0.28,1.53 -0.24,3.49 -1.75,4 2.43,-0.26 4.51,2.07 4.88,4.49 0.37,2.42 -0.49,4.82 -1.35,7.11 -2.73,7.29 -5.52,14.82 -5.16,22.59 0.36,7.77 4.72,15.93 12.16,18.22 -1.93,0 -3.21,-2.42 -2.57,-4.26 a 5.43,5.43 0 0 1 4.48,-3.22 20.82,20.82 0 0 1 5.78,0.33 10.89,10.89 0 0 0 5.73,-0.42 c -0.2,-4.63 1,-9.19 2.18,-13.67 l 4.92,-18.54 c 0.54,-2 1.06,-4.26 0.14,-6.14 -0.92,-1.88 -4,-2.67 -5.07,-0.87 l 1.77,-4.71 a 6.63,6.63 0 0 0 -5,3.43 l -10,-11.65 c -1.06,4.36 -1.86,9.66 1.41,12.73 1.64,1.54 4,2.13 5.73,3.57 3.06,2.56 3.47,7.07 3.25,11 A 60.49,60.49 0 0 1 429,330.22 l -11.37,-0.1 a 6.08,6.08 0 0 1 -3.19,-0.62 c -1.46,-0.9 -1.88,-2.83 -2,-4.55 -0.28,-6.15 3.37,-14.34 4.61,-20.36 1.59,-7.68 0.12,-13.43 -1.62,-21.07 a 12.18,12.18 0 0 0 -2.15,-5.14 c -0.43,-0.52 -3.2,-2.83 -4,-1.83 -0.8,1 2.05,2.22 2.56,2.98 z"
         style="fill:#7f664c"
         id="path262" />
      <g
         style="opacity:0.5"
         id="g268">
        <path
           d="m 431,271.3 a 16.35,16.35 0 0 0 14.78,7.81 16.86,16.86 0 0 0 5,11.33 c 2.59,2.57 6.18,4.51 7.25,8 a 12.93,12.93 0 0 1 0,5.64 165.86,165.86 0 0 1 -5.51,24.2 V 306.51 A 25.73,25.73 0 0 0 452,300 c -1.29,-4.9 -5.37,-8.75 -6.42,-13.71 -8.72,-0.66 -16,-9.44 -15,-18.13 z"
           style="fill:#ffffff"
           id="path264" />
        <path
           d="m 411.84,279.53 c -1.53,0.4 -2.14,2.32 -1.88,3.89 0.26,1.57 1.07,3 1.35,4.53 0.28,1.53 -0.24,3.49 -1.75,4 2.43,-0.26 4.51,2.07 4.88,4.49 0.37,2.42 -0.49,4.82 -1.35,7.11 -2.73,7.29 -5.52,14.82 -5.16,22.59 0.36,7.77 4.72,15.93 12.16,18.22 -1.93,0 -3.21,-2.42 -2.57,-4.26 a 5.43,5.43 0 0 1 4.48,-3.22 20.82,20.82 0 0 1 5.78,0.33 10.89,10.89 0 0 0 5.73,-0.42 c -0.2,-4.63 1,-9.19 2.18,-13.67 l 4.92,-18.54 c 0.54,-2 1.06,-4.26 0.14,-6.14 -0.92,-1.88 -4,-2.67 -5.07,-0.87 l 1.77,-4.71 a 6.63,6.63 0 0 0 -5,3.43 l -10,-11.65 c -1.06,4.36 -1.86,9.66 1.41,12.73 1.64,1.54 4,2.13 5.73,3.57 3.06,2.56 3.47,7.07 3.25,11 A 60.49,60.49 0 0 1 429,330.22 l -11.37,-0.1 a 6.08,6.08 0 0 1 -3.19,-0.62 c -1.46,-0.9 -1.88,-2.83 -2,-4.55 -0.28,-6.15 3.37,-14.34 4.61,-20.36 1.59,-7.68 0.12,-13.43 -1.62,-21.07 a 12.18,12.18 0 0 0 -2.15,-5.14 c -0.43,-0.52 -3.2,-2.83 -4,-1.83 -0.8,1 2.05,2.22 2.56,2.98 z"
           style="fill:#ffffff"
           id="path266" />
      </g>
      <path
         d="m 460.12,355.05 q 7.88,-15.17 15.23,-30.6 c 1.73,-3.63 3.47,-7.4 3.65,-11.43 0.11,-2.63 -2.06,-12.74 -6.05,-12.67 -2.66,0 -4.18,14.06 -4.7,16.49 z"
         style="fill:#7f664c"
         id="path270" />
      <path
         d="m 460.12,355.05 q 7.88,-15.17 15.23,-30.6 c 1.73,-3.63 3.47,-7.4 3.65,-11.43 0.11,-2.63 -2.06,-12.74 -6.05,-12.67 -2.66,0 -4.18,14.06 -4.7,16.49 z"
         style="opacity:0.5;fill:#ffffff"
         id="path272" />
    </g>
    <path
       d="m 392.53,432.06 v -46.9 l -0.7,-10.44 c 0,0 -6.31,-9.1 -5.91,-19.15 0.33,-8.47 10.09,-35.16 10.78,-37.95 0.26,-1 2.44,-18.45 2.44,-19.48 0,-1.03 1,-15.32 4.52,-18.45 3.52,-3.13 9.4,-4.53 11.14,0 1.74,4.53 3.48,18.79 2.45,24 -1.03,5.21 -3.14,11.49 -3.84,16 a 35.66,35.66 0 0 0 0.36,10.09 h 15.66 l 2.77,-8.7 0.71,-17.41 c 0,0 -8.92,-4.56 -10.55,-9 v -4.21 c 0.07,-1.45 0.06,-2.94 0,-4.28 v -4.61 c 3.1,1.5 23.59,11.51 25.51,14.07 2.09,2.79 3.48,13.93 3.48,13.93 l 2.76,-6.91 v -0.06 c 0,0 -8.71,-14.26 -9.4,-16.69 0,0 -7,-1.74 -10.09,-5.58 -3.09,-3.84 -5.22,-7.65 -2.09,-11.13 3.13,-3.48 20.19,6.26 20.19,6.26 l 11.41,14.75 5.29,6.83 c 0,0 9.75,9.87 10.14,12.47 0.45,2.94 -3.88,15.72 -3.88,15.72 l -14.26,28.55 c -0.83,1.5 -7.7,8.67 -14.68,15.77 -7.67,7.82 -15.47,15.56 -15.47,15.56 l 1.18,10.55"
       style="fill:none;stroke:#263238;stroke-linecap:round;stroke-linejoin:round"
       id="path276" />
    <path
       d="m 471.31,304.79 a 143.08,143.08 0 0 1 -8.58,36.68"
       style="fill:none;stroke:#263238;stroke-linecap:round;stroke-linejoin:round"
       id="path278" />
    <path
       d="m 452.08,315.19 a 90,90 0 0 0 1.18,14.94 c 0.55,3.35 1.22,7.05 -0.58,9.92"
       style="fill:none;stroke:#263238;stroke-linecap:round;stroke-linejoin:round"
       id="path280" />
    <path
       d="m 412.93,292.33 -10.22,0.47 c 0,0 -0.77,-10 3.69,-12.46"
       style="fill:none;stroke:#263238;stroke-linecap:round;stroke-linejoin:round"
       id="path282" />
    <path
       d="m 433.06,304.13 a 7.73,7.73 0 0 1 0.5,-4.65"
       style="fill:none;stroke:#263238;stroke-linecap:round;stroke-linejoin:round"
       id="path284" />
    <path
       d="m 453.81,303.24 2.86,-4.94"
       style="fill:none;stroke:#263238;stroke-linecap:round;stroke-linejoin:round"
       id="path286" />
    <path
       d="m 446.08,281.31 a 6.7,6.7 0 0 0 -0.91,5.55"
       style="fill:none;stroke:#263238;stroke-linecap:round;stroke-linejoin:round"
       id="path288" />
    <path
       d="m 413.14,325.51 c 0,0 -1.17,8.15 3,10.76"
       style="fill:none;stroke:#263238;stroke-linecap:round;stroke-linejoin:round"
       id="path290" />
  </g>
  <g
     id="freepik--Content--inject-86"
     transform="translate(-19.76,-43.299385)">
    <path
       d="m 171.23,335.58 -3.66,-1.17 -3.84,3.49 a 6.3,6.3 0 0 1 7.93,-7.2 l 7.21,-6.55 5.77,-5.24 7.22,-6.55 a 6.29,6.29 0 0 1 7.92,-7.2 l -3.84,3.49 0.82,3.76 3.66,1.17 3.84,-3.49 a 6.3,6.3 0 0 1 -7.93,7.2 l -7.21,6.55 -5.78,5.24 -7.21,6.55 a 6.3,6.3 0 0 1 -7.93,7.19 l 3.85,-3.48 z"
       style="fill:#ffffff;stroke:#263238;stroke-linecap:round;stroke-linejoin:round"
       id="path293" />
    <path
       d="m 171.23,335.58 -3.66,-1.17 -3.84,3.49 a 6.3,6.3 0 0 1 7.93,-7.2 l 7.21,-6.55 5.77,-5.24 7.22,-6.55 a 6.29,6.29 0 0 1 7.92,-7.2 l -3.84,3.49 0.82,3.76 3.66,1.17 3.84,-3.49 a 6.3,6.3 0 0 1 -7.93,7.2 l -7.21,6.55 -5.78,5.24 -7.21,6.55 a 6.3,6.3 0 0 1 -7.93,7.19 l 3.85,-3.48 z"
       style="opacity:0.4;fill:#ffffff;stroke:#263238;stroke-linecap:round;stroke-linejoin:round"
       id="path295" />
    <path
       d="m 170.58,313.66 -5.11,-6.44 3.53,-3.22 5.92,5.71 0.7,1.54 a 5.28,5.28 0 0 0 0.86,1.29 l 7.11,7.83 -3.24,2.94 -7.11,-7.83 a 5.16,5.16 0 0 0 -1.21,-1 z"
       style="fill:#ffffff;stroke:#263238;stroke-linecap:round;stroke-linejoin:round"
       id="path297" />
    <path
       d="m 170.58,313.66 -5.11,-6.44 3.53,-3.22 5.92,5.71 0.7,1.54 a 5.28,5.28 0 0 0 0.86,1.29 l 7.11,7.83 -3.24,2.94 -7.11,-7.83 a 5.16,5.16 0 0 0 -1.21,-1 z"
       style="opacity:0.7;fill:#ffffff;stroke:#263238;stroke-linecap:round;stroke-linejoin:round"
       id="path299" />
    <path
       d="m 183.05,327.4 -2.13,-2.35 -0.15,0.13 a 0.83212078,0.83212078 0 0 1 -1.11,-1.24 l 4.64,-4.21 a 0.83,0.83 0 1 1 1.11,1.23 l -0.14,0.13 2.14,2.36 a 2.44,2.44 0 0 1 2.2,0.9 l 12.32,13.57 c 1.47,1.61 0.61,3.32 -1,4.79 -1.61,1.47 -3.4,2.15 -4.86,0.54 l -12.32,-13.57 a 2.48,2.48 0 0 1 -0.7,-2.28 z"
       style="fill:#ffffff;stroke:#263238;stroke-linecap:round;stroke-linejoin:round"
       id="path301" />
    <path
       d="m 183.05,327.4 -2.13,-2.35 -0.15,0.13 a 0.83212078,0.83212078 0 0 1 -1.11,-1.24 l 4.64,-4.21 a 0.83,0.83 0 1 1 1.11,1.23 l -0.14,0.13 2.14,2.36 a 2.44,2.44 0 0 1 2.2,0.9 l 12.32,13.57 c 1.47,1.61 0.61,3.32 -1,4.79 -1.61,1.47 -3.4,2.15 -4.86,0.54 l -12.32,-13.57 a 2.48,2.48 0 0 1 -0.7,-2.28 z"
       style="fill:#263238"
       id="path303" />
    <rect
       x="143.53999"
       y="271.69"
       width="81.779999"
       height="3"
       style="fill:#263238"
       id="rect305" />
    <rect
       x="153.24001"
       y="278.98999"
       width="59.5"
       height="3"
       style="fill:#263238"
       id="rect307" />
    <rect
       x="157.60001"
       y="287.26999"
       width="48.779999"
       height="3"
       style="fill:#263238"
       id="rect309" />
    <polygon
       points="320.58,367.35 283.35,338.64 320.58,353.74 "
       style="fill:#ffffff;stroke:#263238;stroke-linecap:round;stroke-linejoin:round"
       id="polygon311" />
    <polygon
       points="282.49,338.17 320.58,353.74 328.22,348.15 320.91,342.15 "
       style="fill:#ffffff;stroke:#263238;stroke-linecap:round;stroke-linejoin:round"
       id="polygon313" />
    <polygon
       points="311.25,360.15 316.1,356.56 283.38,338.66 282.49,338.17 293.37,360.13 306.01,364.02 311.04,360.3 "
       style="fill:#ffffff;stroke:#263238;stroke-linecap:round;stroke-linejoin:round"
       id="polygon315" />
    <polygon
       points="320.58,367.35 311.04,360.3 316.1,356.56 "
       style="fill:#ffffff;stroke:#263238;stroke-linecap:round;stroke-linejoin:round"
       id="polygon317" />
    <polygon
       points="346.99,315.27 351.76,315.27 345.17,286.03 342.37,274.63 342.26,274.21 342.26,315.27 "
       style="fill:#ffffff;stroke:#263238;stroke-linecap:square;stroke-miterlimit:10"
       id="polygon319" />
    <polygon
       points="342.28,274.31 342.28,306.58 347.85,317.74 351.75,315.79 "
       style="fill:#ffffff;stroke:#263238;stroke-linecap:square;stroke-miterlimit:10"
       id="polygon321" />
    <polygon
       points="382.01,211.72 382.01,253.36 396.9,253.36 396.9,241.25 "
       style="fill:#ffffff;stroke:#263238;stroke-linecap:round;stroke-linejoin:round"
       id="polygon323" />
    <line
       x1="396.89999"
       y1="241.24001"
       x2="382.01001"
       y2="232.74001"
       style="fill:#ffffff;stroke:#263238;stroke-miterlimit:10"
       id="line325" />
    <polygon
       points="306.96,252.98 277.94,252.98 277.94,241.12 292.83,212.09 306.96,241.12 "
       style="fill:#ffffff;stroke:#263238;stroke-linecap:round;stroke-linejoin:round"
       id="polygon327" />
    <polyline
       points="277.94 241.12 292.83 232.95 306.96 241.12"
       style="fill:none;stroke:#263238;stroke-linecap:round;stroke-linejoin:round"
       id="polyline329" />
    <line
       x1="292.82999"
       y1="212.09"
       x2="292.82999"
       y2="252.98"
       style="fill:none;stroke:#263238;stroke-linecap:round;stroke-linejoin:round"
       id="line331" />
    <path
       d="m 384.94,377 -0.76,-0.65"
       style="fill:none;stroke:#263238;stroke-linecap:round;stroke-linejoin:round"
       id="path333" />
    <path
       d="m 380.89,373.85 a 28.2,28.2 0 0 0 -4.61,-2.51 c -5.92,-2.52 -9.7,1.24 -8.17,3.9 3.41,5.93 15.92,-1.18 3.41,-8.19 -11.12,-6.23 -34.29,5.22 -46.34,2.91"
       style="fill:none;stroke:#263238;stroke-linecap:round;stroke-linejoin:round;stroke-dasharray:2.06141, 4.12283"
       id="path335" />
    <path
       d="m 323.2,369.42 a 9.46,9.46 0 0 1 -0.92,-0.4"
       style="fill:none;stroke:#263238;stroke-linecap:round;stroke-linejoin:round"
       id="path337" />
    <polygon
       points="356.2,252.98 327.17,252.98 327.17,241.12 342.06,212.09 356.2,241.12 "
       style="fill:#ffffff;stroke:#263238;stroke-linecap:round;stroke-linejoin:round"
       id="polygon339" />
    <polyline
       points="327.17 241.12 342.06 232.95 356.2 241.12"
       style="fill:none;stroke:#263238;stroke-linecap:round;stroke-linejoin:round"
       id="polyline341" />
    <line
       x1="342.01001"
       y1="212.50999"
       x2="342.01001"
       y2="253.39999"
       style="fill:none;stroke:#263238;stroke-linecap:round;stroke-linejoin:round;stroke-dasharray:2, 4"
       id="line343" />
    <rect
       x="278.45001"
       y="158.34"
       width="29.57"
       height="41.52"
       style="fill:#ffffff;stroke:#263238;stroke-linecap:round;stroke-linejoin:round"
       id="rect345" />
    <line
       x1="293.23999"
       y1="158.03"
       x2="293.23999"
       y2="199.62"
       style="fill:none;stroke:#263238;stroke-linecap:round;stroke-linejoin:round;stroke-dasharray:2, 4"
       id="line347" />
    <path
       d="m 286.5,183.52 c 2.57,-2.65 7.26,-4.33 12,-4.3 4.74,0.03 9.37,1.77 11.86,4.45 0.13,-3 -2,-6.09 -5.65,-8 a 21,21 0 0 0 -13,-1.67"
       style="fill:none;stroke:#7f664c;stroke-miterlimit:10"
       id="path349" />
    <polygon
       points="291.32,175.59 291.32,172.83 289.09,174.21 "
       style="fill:none;stroke:#7f664c;stroke-miterlimit:10"
       id="polygon351" />
    <polygon
       points="292.45,273.82 292.45,315.46 307.34,315.46 307.34,303.35 "
       style="fill:#ffffff;stroke:#263238;stroke-linecap:square;stroke-miterlimit:10"
       id="polygon353" />
    <line
       x1="292.45001"
       y1="274.20999"
       x2="301.85999"
       y2="315.45999"
       style="fill:none;stroke:#263238;stroke-linecap:round;stroke-linejoin:round;stroke-dasharray:2, 4"
       id="line355" />
    <line
       x1="307.34"
       y1="303.35001"
       x2="292.45001"
       y2="294.84"
       style="fill:#ffffff;stroke:#263238;stroke-linecap:square;stroke-miterlimit:10"
       id="line357" />
    <path
       d="m 303.35,303.28 a 8.14,8.14 0 0 1 -6.79,5.84"
       style="fill:none;stroke:#7f664c;stroke-linecap:round;stroke-linejoin:round"
       id="path359" />
    <polygon
       points="296.83,310.56 296.46,307.82 294.44,309.49 "
       style="fill:none;stroke:#7f664c;stroke-miterlimit:10"
       id="polygon361" />
    <rect
       x="326.89999"
       y="158.34"
       width="29.57"
       height="41.52"
       style="fill:#ffffff;stroke:#263238;stroke-linecap:round;stroke-linejoin:round"
       id="rect363" />
    <polyline
       points="326.84 172.81 342.01 158.34 356.41 172.81"
       style="fill:none;stroke:#263238;stroke-linecap:round;stroke-linejoin:round;stroke-dasharray:2, 4"
       id="polyline365" />
    <line
       x1="342.01001"
       y1="159.31"
       x2="342.01001"
       y2="199.62"
       style="fill:none;stroke:#263238;stroke-linecap:round;stroke-linejoin:round"
       id="line367" />
    <path
       d="m 330.8,162.74 a 8.13,8.13 0 0 1 5.83,6.79"
       style="fill:none;stroke:#7f664c;stroke-linecap:round;stroke-linejoin:round"
       id="path369" />
    <polygon
       points="338.07,169.26 335.33,169.63 337,171.65 "
       style="fill:none;stroke:#7f664c;stroke-miterlimit:10"
       id="polygon371" />
    <path
       d="m 351.65,162.74 a 8.14,8.14 0 0 0 -5.84,6.79"
       style="fill:none;stroke:#7f664c;stroke-linecap:round;stroke-linejoin:round"
       id="path373" />
    <polygon
       points="344.38,169.26 347.11,169.63 345.45,171.65 "
       style="fill:none;stroke:#7f664c;stroke-miterlimit:10"
       id="polygon375" />
    <polygon
       points="404.8,172.5 404.8,199.62 375.23,199.62 375.23,172.5 390.4,158.03 "
       style="fill:#ffffff;stroke:#263238;stroke-linecap:round;stroke-linejoin:round"
       id="polygon377" />
    <polyline
       points="375.23 187.6 390.4 158.03 404.8 187.6"
       style="fill:none;stroke:#263238;stroke-linecap:round;stroke-linejoin:round;stroke-dasharray:2, 4"
       id="polyline379" />
    <polyline
       points="404.8 172.5 397.45 172.5 390.4 172.5 382.98 172.5 375.23 172.5"
       style="fill:none;stroke:#263238;stroke-linecap:round;stroke-linejoin:round"
       id="polyline381" />
    <line
       x1="390.39999"
       y1="158.03"
       x2="390.39999"
       y2="199.62"
       style="fill:none;stroke:#263238;stroke-linecap:round;stroke-linejoin:round"
       id="line383" />
    <path
       d="m 379.39,170.88 a 8.14,8.14 0 0 1 5.84,6.8"
       style="fill:none;stroke:#7f664c;stroke-linecap:round;stroke-linejoin:round"
       id="path385" />
    <polygon
       points="386.67,177.41 383.93,177.77 385.59,179.8 "
       style="fill:none;stroke:#7f664c;stroke-miterlimit:10"
       id="polygon387" />
    <path
       d="m 401.1,170.88 a 8.14,8.14 0 0 0 -5.84,6.8"
       style="fill:none;stroke:#7f664c;stroke-linecap:round;stroke-linejoin:round"
       id="path389" />
    <polygon
       points="393.82,177.41 396.56,177.77 394.89,179.8 "
       style="fill:none;stroke:#7f664c;stroke-miterlimit:10"
       id="polygon391" />
    <path
       d="m 332.92,240.33 a 8.16,8.16 0 0 1 -7.32,0 1.93,1.93 0 0 1 0,-3.41 h 0.06"
       style="fill:none;stroke:#7f664c;stroke-linecap:round;stroke-linejoin:round"
       id="path393" />
    <polygon
       points="325.58,235.28 325.82,238.04 327.92,236.47 "
       style="fill:none;stroke:#7f664c;stroke-miterlimit:10"
       id="polygon395" />
    <path
       d="m 128.51,196.71 v 22.63 H 127 v -22.63 z"
       style="fill:#263238"
       id="path397" />
    <path
       d="m 132.46,219.34 h -1.36 v -22.63 h 1.9 l 6.79,19.11 v -19.11 h 1.36 v 22.63 h -1.65 l -7.08,-20.18 z"
       style="fill:#263238"
       id="path399" />
    <path
       d="m 153.28,202.17 v 0.49 h -1.43 v -0.59 c 0,-2.39 -0.9,-4.2 -3.36,-4.2 -2.46,0 -3.36,1.78 -3.36,4.17 0,5.5 8.18,5.6 8.18,11.84 0,3.26 -1.42,5.65 -4.88,5.65 -3.46,0 -4.89,-2.39 -4.89,-5.65 v -1.17 H 145 V 214 c 0,2.43 0.93,4.17 3.42,4.17 2.49,0 3.43,-1.74 3.43,-4.17 0,-5.43 -8.18,-5.53 -8.18,-11.83 0,-3.4 1.49,-5.59 4.82,-5.63 3.33,-0.04 4.79,2.37 4.79,5.63 z"
       style="fill:#263238"
       id="path401" />
    <path
       d="M 159.61,219.34 V 198.07 H 155 v -1.36 h 10.7 v 1.36 h -4.6 v 21.27 z"
       style="fill:#263238"
       id="path403" />
    <path
       d="m 172.35,196.71 c 3.46,0 4.85,1.91 4.85,5.11 v 2 c 0,2.65 -1,4.17 -3.27,4.69 2.33,0.51 3.27,2.16 3.27,4.62 v 3.52 a 5,5 0 0 0 0.55,2.72 h -1.55 a 5.3,5.3 0 0 1 -0.49,-2.72 v -3.55 c 0,-3 -1.65,-3.85 -4.23,-3.85 h -2.36 v 10.12 h -1.49 v -22.66 z m -0.84,11.15 c 2.65,0 4.2,-0.74 4.2,-3.78 V 202 c 0,-2.43 -0.94,-3.88 -3.39,-3.88 h -3.2 v 9.79 z"
       style="fill:#263238"
       id="path405" />
    <path
       d="m 181.53,213.88 c 0,2.42 0.91,4.3 3.4,4.3 2.49,0 3.39,-1.88 3.39,-4.3 v -17.17 h 1.39 v 17.1 c 0,3.23 -1.36,5.72 -4.82,5.72 -3.46,0 -4.89,-2.53 -4.89,-5.72 v -17.1 h 1.49 z"
       style="fill:#263238"
       id="path407" />
    <path
       d="m 201.93,202.24 v 1.87 h -1.42 v -2 c 0,-2.43 -0.94,-4.27 -3.43,-4.27 -2.49,0 -3.43,1.84 -3.43,4.27 v 11.77 c 0,2.42 0.94,4.23 3.43,4.23 2.49,0 3.43,-1.81 3.43,-4.23 v -2.68 h 1.42 v 2.58 c 0,3.27 -1.42,5.72 -4.88,5.72 -3.46,0 -4.88,-2.45 -4.88,-5.72 v -11.54 c 0,-3.27 1.42,-5.73 4.88,-5.73 3.46,0 4.88,2.49 4.88,5.73 z"
       style="fill:#263238"
       id="path409" />
    <path
       d="m 208.27,219.34 v -21.27 h -4.63 v -1.36 h 10.71 v 1.36 h -4.6 v 21.27 z"
       style="fill:#263238"
       id="path411" />
    <path
       d="m 217.77,196.71 v 22.63 h -1.49 v -22.63 z"
       style="fill:#263238"
       id="path413" />
    <path
       d="m 220.26,202.24 c 0,-3.3 1.52,-5.73 5,-5.73 3.48,0 5,2.43 5,5.73 v 11.57 c 0,3.3 -1.52,5.72 -5,5.72 -3.48,0 -5,-2.42 -5,-5.72 z m 1.49,11.67 c 0,2.46 1,4.27 3.46,4.27 2.46,0 3.52,-1.81 3.52,-4.27 v -11.77 c 0,-2.46 -1,-4.27 -3.52,-4.27 -2.52,0 -3.46,1.81 -3.46,4.27 z"
       style="fill:#263238"
       id="path415" />
    <path
       d="m 234,219.34 h -1.35 v -22.63 h 1.94 l 6.79,19.11 v -19.11 h 1.35 v 22.63 h -1.65 L 234,199.16 Z"
       style="fill:#263238"
       id="path417" />
    <path
       d="m 137.78,250.57 3.5,-23.18 h 7.14 V 260 h -4.85 V 236.62 L 140,260 h -4.85 l -3.81,-23 v 23 h -4.47 V 227.39 H 134 Z"
       style="fill:#263238"
       id="path419" />
    <path
       d="m 168.75,260 h -5.18 l -0.88,-5.92 h -6.3 L 155.5,260 h -4.71 L 156,227.39 h 7.51 z M 157,249.68 h 5 l -2.47,-16.51 z"
       style="fill:#263238"
       id="path421" />
    <path
       d="M 175.7,236.39 V 260 h -4.62 v -32.61 h 6.44 l 5.27,19.54 v -19.54 h 4.57 V 260 h -5.27 z"
       style="fill:#263238"
       id="path423" />
    <path
       d="m 195.94,227.39 v 25.19 c 0,2.33 1,3.17 2.66,3.17 1.66,0 2.66,-0.84 2.66,-3.17 v -25.19 h 4.85 v 24.86 c 0,5.22 -2.61,8.21 -7.65,8.21 -5.04,0 -7.65,-3 -7.65,-8.21 v -24.86 z"
       style="fill:#263238"
       id="path425" />
    <path
       d="M 226.21,260 H 221 l -0.89,-5.92 h -6.3 L 213,260 h -4.71 l 5.22,-32.65 H 221 Z m -11.7,-10.36 h 4.94 L 217,233.17 Z"
       style="fill:#263238"
       id="path427" />
    <path
       d="m 228.59,227.39 h 5.13 v 28 h 8.45 V 260 h -13.58 z"
       style="fill:#263238"
       id="path429" />
  </g>
</svg>
