<?xml version="1.0" encoding="UTF-8" standalone="no"?>
<svg
   xmlns:dc="http://purl.org/dc/elements/1.1/"
   xmlns:cc="http://creativecommons.org/ns#"
   xmlns:rdf="http://www.w3.org/1999/02/22-rdf-syntax-ns#"
   xmlns:svg="http://www.w3.org/2000/svg"
   xmlns="http://www.w3.org/2000/svg"
   xmlns:sodipodi="http://sodipodi.sourceforge.net/DTD/sodipodi-0.dtd"
   xmlns:inkscape="http://www.inkscape.org/namespaces/inkscape"
   viewBox="0 0 420.52002 368.42999"
   version="1.1"
   id="svg216"
   sodipodi:docname="mainContentPic3.svg"
   width="420.52002"
   height="368.42999"
   inkscape:version="1.0.2 (e86c870879, 2021-01-15, custom)">
  <metadata
     id="metadata222">
    <rdf:RDF>
      <cc:Work
         rdf:about="">
        <dc:format>image/svg+xml</dc:format>
        <dc:type
           rdf:resource="http://purl.org/dc/dcmitype/StillImage" />
        <dc:title></dc:title>
      </cc:Work>
    </rdf:RDF>
  </metadata>
  <defs
     id="defs220" />
  <sodipodi:namedview
     pagecolor="#ffffff"
     bordercolor="#666666"
     borderopacity="1"
     objecttolerance="10"
     gridtolerance="10"
     guidetolerance="10"
     inkscape:pageopacity="0"
     inkscape:pageshadow="2"
     inkscape:window-width="1920"
     inkscape:window-height="1001"
     id="namedview218"
     showgrid="false"
     lock-margins="true"
     fit-margin-top="0"
     fit-margin-left="0"
     fit-margin-right="0"
     fit-margin-bottom="0"
     inkscape:zoom="1.6033647"
     inkscape:cx="250"
     inkscape:cy="250"
     inkscape:window-x="-9"
     inkscape:window-y="-9"
     inkscape:window-maximized="1"
     inkscape:current-layer="svg216" />
  <g
     id="freepik--background-simple--inject-76"
     transform="translate(-39.740002,-52.939999)">
    <path
       d="M 436.94,419.9 H 65 C 65,419.9 53.19,400 45,360 36.81,320 75.84,334.6 85.82,300.12 95.8,265.64 52.26,272.91 55.89,225.73 c 3.63,-47.18 63.5,-48.08 92.53,-41.73 29.03,6.35 25.4,-15.42 59,-51.71 33.6,-36.29 84.37,-32.66 109.77,-4.53 25.4,28.13 17.23,57.15 49,57.15 31.77,0 60.81,6.38 79.81,67.16 19,60.78 -15.77,88.56 -15.14,116 a 300.58,300.58 0 0 0 6.08,51.83 z"
       style="fill:#7f664c"
       id="path2" />
    <path
       d="M 436.94,419.9 H 65 C 65,419.9 53.19,400 45,360 36.81,320 75.84,334.6 85.82,300.12 95.8,265.64 52.26,272.91 55.89,225.73 c 3.63,-47.18 63.5,-48.08 92.53,-41.73 29.03,6.35 25.4,-15.42 59,-51.71 33.6,-36.29 84.37,-32.66 109.77,-4.53 25.4,28.13 17.23,57.15 49,57.15 31.77,0 60.81,6.38 79.81,67.16 19,60.78 -15.77,88.56 -15.14,116 a 300.58,300.58 0 0 0 6.08,51.83 z"
       style="opacity:0.7;fill:#ffffff"
       id="path4" />
  </g>
  <g
     id="freepik--Bulb--inject-76"
     transform="translate(-39.740002,-52.939999)">
    <path
       d="m 215.41,419.9 c -9.11,-13.87 -48,-72.19 -59.38,-73.75 -11.09,-1.52 -50.5,57.45 -61.16,73.75 z"
       style="fill:#2e353a;stroke:#2e353a;stroke-linecap:round;stroke-linejoin:round"
       id="path7" />
    <line
       x1="265.28"
       y1="79.129997"
       x2="265.28"
       y2="213.62"
       style="fill:none;stroke:#2e353a;stroke-width:3px;stroke-linecap:round;stroke-linejoin:round"
       id="line9" />
    <line
       x1="281.26001"
       y1="82.739998"
       x2="281.26001"
       y2="213.62"
       style="fill:none;stroke:#2e353a;stroke-width:3px;stroke-linecap:round;stroke-linejoin:round"
       id="line11" />
    <line
       x1="298.78"
       y1="154.36"
       x2="298.78"
       y2="281.13"
       style="fill:none;stroke:#2e353a;stroke-width:3px;stroke-linecap:round;stroke-linejoin:round"
       id="line13" />
    <line
       x1="317.32999"
       y1="82.739998"
       x2="317.32999"
       y2="281.13"
       style="fill:none;stroke:#2e353a;stroke-width:3px;stroke-linecap:round;stroke-linejoin:round"
       id="line15" />
    <line
       x1="335.88"
       y1="82.739998"
       x2="335.88"
       y2="217.23"
       style="fill:none;stroke:#2e353a;stroke-width:3px;stroke-linecap:round;stroke-linejoin:round"
       id="line17" />
    <line
       x1="251.37"
       y1="97.160004"
       x2="336.39999"
       y2="97.160004"
       style="fill:none;stroke:#2e353a;stroke-width:3px;stroke-linecap:round;stroke-linejoin:round"
       id="line19" />
    <line
       x1="251.37"
       y1="127.05"
       x2="343.57999"
       y2="127.05"
       style="fill:none;stroke:#2e353a;stroke-width:3px;stroke-linecap:round;stroke-linejoin:round"
       id="line21" />
    <line
       x1="249.83"
       y1="154.36"
       x2="352.37"
       y2="154.36"
       style="fill:none;stroke:#2e353a;stroke-width:3px;stroke-linecap:round;stroke-linejoin:round"
       id="line23" />
    <line
       x1="248.28"
       y1="184.77"
       x2="352.37"
       y2="184.77"
       style="fill:none;stroke:#2e353a;stroke-width:3px;stroke-linecap:round;stroke-linejoin:round"
       id="line25" />
    <line
       x1="267.85999"
       y1="217.74001"
       x2="346.70001"
       y2="217.74001"
       style="fill:none;stroke:#2e353a;stroke-width:3px;stroke-linecap:round;stroke-linejoin:round"
       id="line27" />
    <line
       x1="288.47"
       y1="249.69"
       x2="340"
       y2="249.69"
       style="fill:none;stroke:#2e353a;stroke-width:3px;stroke-linecap:round;stroke-linejoin:round"
       id="line29" />
    <line
       x1="152.81"
       y1="91.900002"
       x2="171"
       y2="106.14"
       style="fill:none;stroke:#2e353a;stroke-width:2px;stroke-linecap:round;stroke-linejoin:round"
       id="line31" />
    <line
       x1="189.19"
       y1="76.879997"
       x2="195.52"
       y2="86.370003"
       style="fill:none;stroke:#2e353a;stroke-width:2px;stroke-linecap:round;stroke-linejoin:round"
       id="line33" />
    <line
       x1="221.62"
       y1="53.939999"
       x2="227.16"
       y2="71.339996"
       style="fill:none;stroke:#2e353a;stroke-width:2px;stroke-linecap:round;stroke-linejoin:round"
       id="line35" />
    <path
       d="m 325.4,277.54 h -30 V 206.21 H 254.7 V 79.88 a 100,100 0 0 0 -87.42,146.73 c 3.26,7.59 10.92,26.18 18.59,50.22 7.09,22.19 10.79,44.5 10.79,47.87 0,0.33 0,0.67 0,1 a 7.48,7.48 0 0 0 7.47,7.74 h 103.25 a 7.49,7.49 0 0 0 7.47,-7.74 c 0,-0.36 0,-0.7 0,-1 -0.02,-3.33 3.61,-25.21 10.55,-47.16 z"
       style="fill:#7f664c;stroke:#2e353a;stroke-width:2px;stroke-linecap:round;stroke-linejoin:round"
       id="path37" />
    <path
       d="m 220.81,96 a 80.31,80.31 0 0 1 8.89,-3.39"
       style="fill:none;stroke:#2e353a;stroke-width:2px;stroke-linecap:round;stroke-linejoin:round"
       id="path39" />
    <path
       d="m 187.51,121.34 c 0,0 8.15,-13 26.06,-21.75"
       style="fill:none;stroke:#2e353a;stroke-width:2px;stroke-linecap:round;stroke-linejoin:round"
       id="path41" />
    <path
       d="m 189.65,265.26 c 3.71,12.12 8.62,28.91 10.32,38.29 2.88,15.82 1,24 7.2,25.41"
       style="fill:none;stroke:#2e353a;stroke-width:2px;stroke-linecap:round;stroke-linejoin:round"
       id="path43" />
    <path
       d="m 185.11,250.8 c 0,0 1,3.25 2.61,8.23"
       style="fill:none;stroke:#2e353a;stroke-width:2px;stroke-linecap:round;stroke-linejoin:round"
       id="path45" />
    <path
       d="m 249.42,332.47 v -95.6 c 0,0 4,-25 -9,-25 -13,0 -12,13 3,27 15,14 38,1 41,-10 3,-11 -5,-16 -10,-7 -5,9 0,111 0,111"
       style="fill:none;stroke:#2e353a;stroke-width:2px;stroke-linecap:round;stroke-linejoin:round"
       id="path47" />
    <rect
       x="202.08"
       y="332.85999"
       width="107.91"
       height="25.040001"
       style="fill:#ffffff;stroke:#2e353a;stroke-width:2px;stroke-linecap:round;stroke-linejoin:round"
       id="rect49" />
    <rect
       x="202.08"
       y="363.85999"
       width="107.91"
       height="25.040001"
       style="fill:#ffffff;stroke:#2e353a;stroke-width:2px;stroke-linecap:round;stroke-linejoin:round"
       id="rect51" />
    <rect
       x="202.08"
       y="357.89999"
       width="107.91"
       height="5.96"
       style="fill:#2e353a;stroke:#2e353a;stroke-linecap:round;stroke-linejoin:round"
       id="rect53" />
    <rect
       x="202.08"
       y="394.85999"
       width="107.91"
       height="25.040001"
       style="fill:#ffffff;stroke:#2e353a;stroke-width:2px;stroke-linecap:round;stroke-linejoin:round"
       id="rect55" />
    <line
       x1="298.70001"
       y1="354.54999"
       x2="306.72"
       y2="354.54999"
       style="fill:none;stroke:#2e353a;stroke-linecap:round;stroke-linejoin:round"
       id="line57" />
    <line
       x1="206.32001"
       y1="354.54999"
       x2="294.84"
       y2="354.54999"
       style="fill:none;stroke:#2e353a;stroke-linecap:round;stroke-linejoin:round"
       id="line59" />
    <line
       x1="277.89999"
       y1="386.04001"
       x2="303.75"
       y2="386.04001"
       style="fill:none;stroke:#2e353a;stroke-linecap:round;stroke-linejoin:round"
       id="line61" />
    <line
       x1="222.34"
       y1="386.04001"
       x2="274.92999"
       y2="386.04001"
       style="fill:none;stroke:#2e353a;stroke-linecap:round;stroke-linejoin:round"
       id="line63" />
    <line
       x1="213.73"
       y1="386.04001"
       x2="218.17999"
       y2="386.04001"
       style="fill:none;stroke:#2e353a;stroke-linecap:round;stroke-linejoin:round"
       id="line65" />
    <rect
       x="202.08"
       y="388.89999"
       width="107.91"
       height="5.96"
       style="fill:#2e353a;stroke:#2e353a;stroke-linecap:round;stroke-linejoin:round"
       id="rect67" />
    <rect
       x="216.13"
       y="400.35001"
       width="36.939999"
       height="19.23"
       style="fill:#7f664c;stroke:#2e353a;stroke-linecap:round;stroke-linejoin:round"
       id="rect69" />
    <rect
       x="264.20001"
       y="400.35001"
       width="36.939999"
       height="19.23"
       style="fill:#7f664c;stroke:#2e353a;stroke-linecap:round;stroke-linejoin:round"
       id="rect71" />
  </g>
  <g
     id="freepik--Ground--inject-76"
     transform="translate(-39.740002,-52.939999)">
    <path
       d="m 334.37,419.9 c -7.08,-6.21 -37.31,-32.32 -46.11,-33 -8.62,-0.69 -39.22,25.72 -47.5,33 z"
       style="fill:#2e353a;stroke:#2e353a;stroke-linecap:round;stroke-linejoin:round"
       id="path74" />
    <line
       x1="451.07999"
       y1="419.89999"
       x2="459.76001"
       y2="419.89999"
       style="fill:#ffffff;stroke:#2e353a;stroke-linecap:round;stroke-linejoin:round"
       id="line76" />
    <line
       x1="53.740002"
       y1="419.89999"
       x2="442.39999"
       y2="419.89999"
       style="fill:#ffffff;stroke:#2e353a;stroke-linecap:round;stroke-linejoin:round"
       id="line78" />
    <line
       x1="40.240002"
       y1="419.89999"
       x2="46.990002"
       y2="419.89999"
       style="fill:#ffffff;stroke:#2e353a;stroke-linecap:round;stroke-linejoin:round"
       id="line80" />
  </g>
  <g
     id="freepik--Trucks--inject-76"
     transform="translate(-39.740002,-52.939999)">
    <polygon
       points="433.61,399.23 444.37,399.23 444.37,381.03 433.61,362.83 407.66,362.83 407.66,399.23 418.41,399.23 "
       style="fill:#2e353a;stroke:#2e353a;stroke-linecap:round;stroke-linejoin:round"
       id="polygon83" />
    <rect
       x="432.48001"
       y="399.23001"
       width="11.89"
       height="8.2700005"
       style="fill:#ffffff;stroke:#2e353a;stroke-linecap:round;stroke-linejoin:round"
       id="rect85" />
    <path
       d="m 388.37,398.82 c 0,0 13,-7 8.5,-42 l -16.5,-9 -28.5,-4.5 -25.5,1 v 14.5 c 0,0 14.5,12.5 16,16.5 a 27.72,27.72 0 0 1 1.5,8.5 v 14 z"
       style="fill:#7f664c;stroke:#2e353a;stroke-linecap:round;stroke-linejoin:round"
       id="path87" />
    <line
       x1="396.87"
       y1="356.82001"
       x2="388.37"
       y2="398.82001"
       style="fill:none;stroke:#2e353a;stroke-linecap:round;stroke-linejoin:round"
       id="line89" />
    <line
       x1="380.37"
       y1="347.82001"
       x2="370.87"
       y2="398.82001"
       style="fill:none;stroke:#2e353a;stroke-linecap:round;stroke-linejoin:round"
       id="line91" />
    <line
       x1="351.87"
       y1="343.32001"
       x2="344.87"
       y2="381.32001"
       style="fill:none;stroke:#2e353a;stroke-linecap:round;stroke-linejoin:round"
       id="line93" />
    <path
       d="m 327.37,356.82 c 0,0 16.5,7 23,11.5 6.5,4.5 5.5,14 5.5,14"
       style="fill:none;stroke:#2e353a;stroke-linecap:round;stroke-linejoin:round"
       id="path95" />
    <rect
       x="330.35999"
       y="399.48999"
       width="77.529999"
       height="6.5"
       style="fill:#ffffff;stroke:#2e353a;stroke-linecap:round;stroke-linejoin:round"
       id="rect97" />
    <polygon
       points="423.37,382.82 439.56,382.82 430.87,367.82 423.37,367.82 "
       style="fill:#ffffff;stroke:#2e353a;stroke-linecap:round;stroke-linejoin:round"
       id="polygon99" />
    <rect
       x="413.87"
       y="367.82001"
       width="7"
       height="15"
       style="fill:#ffffff;stroke:#2e353a;stroke-linecap:round;stroke-linejoin:round"
       id="rect101" />
    <rect
       x="330.76999"
       y="399.23001"
       width="47.200001"
       height="11.27"
       style="fill:#ffffff;stroke:#2e353a;stroke-linecap:round;stroke-linejoin:round"
       id="rect103" />
    <circle
       cx="420.89999"
       cy="409.98001"
       r="9.9300003"
       transform="rotate(-10.24,420.71728,409.85857)"
       style="fill:#2e353a;stroke:#2e353a;stroke-linecap:round;stroke-linejoin:round"
       id="circle105" />
    <circle
       cx="420.89999"
       cy="409.98001"
       r="5.79"
       style="fill:#ffffff;stroke:#2e353a;stroke-linecap:round;stroke-linejoin:round"
       id="circle107" />
    <circle
       cx="344.39999"
       cy="409.98001"
       r="9.9300003"
       transform="rotate(-10.04,344.29894,409.85588)"
       style="fill:#2e353a;stroke:#2e353a;stroke-linecap:round;stroke-linejoin:round"
       id="circle109" />
    <circle
       cx="344.39999"
       cy="409.98001"
       r="5.79"
       style="fill:#ffffff;stroke:#2e353a;stroke-linecap:round;stroke-linejoin:round"
       id="circle111" />
    <circle
       cx="368.37"
       cy="409.98001"
       r="9.9300003"
       transform="rotate(-42.56,368.31767,409.9523)"
       style="fill:#2e353a;stroke:#2e353a;stroke-linecap:round;stroke-linejoin:round"
       id="circle113" />
    <circle
       cx="368.37"
       cy="409.98001"
       r="5.79"
       style="fill:#ffffff;stroke:#2e353a;stroke-linecap:round;stroke-linejoin:round"
       id="circle115" />
    <rect
       x="336.87"
       y="381.82001"
       width="31.5"
       height="17"
       rx="3.25"
       style="fill:#2e353a;stroke:#2e353a;stroke-linecap:round;stroke-linejoin:round"
       id="rect117" />
    <polyline
       points="324.37 398.82 324.37 349.37 334.37 349.37 334.37 398.82"
       style="fill:none;stroke:#2e353a;stroke-linecap:round;stroke-linejoin:round"
       id="polyline119" />
    <line
       x1="324.44"
       y1="355.92001"
       x2="334.26001"
       y2="355.92001"
       style="fill:none;stroke:#2e353a;stroke-linecap:round;stroke-linejoin:round"
       id="line121" />
    <line
       x1="324.44"
       y1="363.64001"
       x2="334.26001"
       y2="363.64001"
       style="fill:none;stroke:#2e353a;stroke-linecap:round;stroke-linejoin:round"
       id="line123" />
    <line
       x1="324.44"
       y1="371.35999"
       x2="334.26001"
       y2="371.35999"
       style="fill:none;stroke:#2e353a;stroke-linecap:round;stroke-linejoin:round"
       id="line125" />
    <line
       x1="324.44"
       y1="379.09"
       x2="334.26001"
       y2="379.09"
       style="fill:none;stroke:#2e353a;stroke-linecap:round;stroke-linejoin:round"
       id="line127" />
    <line
       x1="324.44"
       y1="386.81"
       x2="334.26001"
       y2="386.81"
       style="fill:none;stroke:#2e353a;stroke-linecap:round;stroke-linejoin:round"
       id="line129" />
    <line
       x1="324.44"
       y1="394.53"
       x2="334.26001"
       y2="394.53"
       style="fill:none;stroke:#2e353a;stroke-linecap:round;stroke-linejoin:round"
       id="line131" />
    <polygon
       points="124.36,420.87 106.36,420.87 106.36,106.87 124.36,127.8 "
       style="fill:none;stroke:#2e353a;stroke-linecap:round;stroke-linejoin:round"
       id="polygon133" />
    <polygon
       points="106.54,354.87 124.19,354.87 106.54,337.8 124.19,337.8 "
       style="fill:none;stroke:#2e353a;stroke-linecap:round;stroke-linejoin:round"
       id="polygon135" />
    <polygon
       points="106.54,337.37 124.19,337.37 106.54,320.3 124.19,320.3 "
       style="fill:none;stroke:#2e353a;stroke-linecap:round;stroke-linejoin:round"
       id="polygon137" />
    <polygon
       points="106.54,319.87 124.19,319.87 106.54,302.8 124.19,302.8 "
       style="fill:none;stroke:#2e353a;stroke-linecap:round;stroke-linejoin:round"
       id="polygon139" />
    <polygon
       points="106.54,302.37 124.19,302.37 106.54,285.3 124.19,285.3 "
       style="fill:none;stroke:#2e353a;stroke-linecap:round;stroke-linejoin:round"
       id="polygon141" />
    <polygon
       points="106.54,284.87 124.19,284.87 106.54,267.8 124.19,267.8 "
       style="fill:none;stroke:#2e353a;stroke-linecap:round;stroke-linejoin:round"
       id="polygon143" />
    <polygon
       points="106.54,267.37 124.19,267.37 106.54,250.3 124.19,250.3 "
       style="fill:none;stroke:#2e353a;stroke-linecap:round;stroke-linejoin:round"
       id="polygon145" />
    <polygon
       points="106.54,249.87 124.19,249.87 106.54,232.8 124.19,232.8 "
       style="fill:none;stroke:#2e353a;stroke-linecap:round;stroke-linejoin:round"
       id="polygon147" />
    <polygon
       points="106.54,232.37 124.19,232.37 106.54,215.3 124.19,215.3 "
       style="fill:none;stroke:#2e353a;stroke-linecap:round;stroke-linejoin:round"
       id="polygon149" />
    <polygon
       points="106.54,214.87 124.19,214.87 106.54,197.8 124.19,197.8 "
       style="fill:none;stroke:#2e353a;stroke-linecap:round;stroke-linejoin:round"
       id="polygon151" />
    <polygon
       points="106.54,197.37 124.19,197.37 106.54,180.3 124.19,180.3 "
       style="fill:none;stroke:#2e353a;stroke-linecap:round;stroke-linejoin:round"
       id="polygon153" />
    <polygon
       points="106.54,179.87 124.19,179.87 106.54,162.8 124.19,162.8 "
       style="fill:none;stroke:#2e353a;stroke-linecap:round;stroke-linejoin:round"
       id="polygon155" />
    <polygon
       points="106.54,162.37 124.19,162.37 106.54,145.3 124.19,145.3 "
       style="fill:none;stroke:#2e353a;stroke-linecap:round;stroke-linejoin:round"
       id="polygon157" />
    <polygon
       points="106.54,144.87 124.19,144.87 106.54,127.8 124.19,127.8 "
       style="fill:none;stroke:#2e353a;stroke-linecap:round;stroke-linejoin:round"
       id="polygon159" />
    <polygon
       points="207.93,145.34 199.21,139.85 136.98,139.85 129.38,145.34 "
       style="fill:none;stroke:#2e353a;stroke-linecap:round;stroke-linejoin:round"
       id="polygon161" />
    <rect
       x="57.369999"
       y="144.87"
       width="152"
       height="4"
       style="fill:#2e353a;stroke:#2e353a;stroke-linecap:round;stroke-linejoin:round"
       id="rect163" />
    <polyline
       points="199.21 139.85 106.36 106.87 136.98 139.85"
       style="fill:none;stroke:#2e353a;stroke-linecap:round;stroke-linejoin:round"
       id="polyline165" />
    <line
       x1="106.37"
       y1="106.87"
       x2="57.369999"
       y2="144.87"
       style="fill:none;stroke:#2e353a;stroke-linecap:round;stroke-linejoin:round"
       id="line167" />
    <rect
       x="99.870003"
       y="153.37"
       width="37.5"
       height="24"
       style="fill:#2e353a;stroke:#2e353a;stroke-linecap:round;stroke-linejoin:round"
       id="rect169" />
    <rect
       x="107.68"
       y="158.37"
       width="21.870001"
       height="7"
       style="fill:#ffffff;stroke:#2e353a;stroke-linecap:round;stroke-linejoin:round"
       id="rect171" />
    <line
       x1="209.37"
       y1="148.87"
       x2="209.37"
       y2="191.99001"
       style="fill:#ffffff;stroke:#2e353a;stroke-linecap:round;stroke-linejoin:round"
       id="line173" />
    <rect
       x="203.96001"
       y="206.72"
       width="11.11"
       height="12.59"
       style="fill:#2e353a;stroke:#2e353a;stroke-linecap:round;stroke-linejoin:round"
       id="rect175" />
    <polyline
       points="203.96 206.72 209.52 191.17 215.08 206.72"
       style="fill:none;stroke:#2e353a;stroke-linecap:round;stroke-linejoin:round"
       id="polyline177" />
    <path
       d="m 179.4,358.65 24,37.94 6,-4.39 -17.66,-35.32 a 9.55,9.55 0 0 0 -8.55,-5.28 v 0 a 4.59,4.59 0 0 0 -3.79,7.05 z"
       style="fill:#7f664c;stroke:#2e353a;stroke-linecap:round;stroke-linejoin:round"
       id="path179" />
    <path
       d="m 207.29,387.26 -24.69,17.56 c 0,0 2.2,9.32 16.46,8.77 14.26,-0.55 13.72,-15.36 13.72,-15.36 z"
       style="fill:#2e353a;stroke:#ffffff;stroke-linecap:round;stroke-linejoin:round"
       id="path181" />
    <path
       d="m 138.71,375.74 44.72,-20.15 a 7.08,7.08 0 0 1 8.6,2.25 v 0 a 7.07,7.07 0 0 1 -1.64,10 l -48.93,34.25 z"
       style="fill:#7f664c;stroke:#2e353a;stroke-linecap:round;stroke-linejoin:round"
       id="path183" />
    <rect
       x="86.040001"
       y="400.42999"
       width="46.09"
       height="7.1300001"
       style="fill:#ffffff;stroke:#2e353a;stroke-linecap:round;stroke-linejoin:round"
       id="rect185" />
    <rect
       x="69.580002"
       y="380.13"
       width="40.049999"
       height="16.459999"
       style="fill:#2e353a;stroke:#2e353a;stroke-linecap:round;stroke-linejoin:round"
       id="rect187" />
    <path
       d="m 104.42,361.47 h 34 a 3,3 0 0 1 3,3 v 32.1 h -40.01 v -32.1 a 3,3 0 0 1 3.01,-3 z"
       style="fill:#7f664c;stroke:#2e353a;stroke-linecap:round;stroke-linejoin:round"
       id="path189" />
    <path
       d="m 69.17,419.9 h 65.57 a 7.81,7.81 0 0 0 7.81,-7.81 v 0 a 7.82,7.82 0 0 0 -7.81,-7.82 H 69.17 a 7.82,7.82 0 0 0 -7.81,7.82 v 0 a 7.81,7.81 0 0 0 7.81,7.81 z"
       style="fill:#2e353a;stroke:#2e353a;stroke-linecap:round;stroke-linejoin:round"
       id="path191" />
    <path
       d="m 79.05,419.9 h 65.56 a 7.82,7.82 0 0 0 7.82,-7.81 v 0 a 7.82,7.82 0 0 0 -7.82,-7.82 H 79.05 a 7.82,7.82 0 0 0 -7.82,7.82 v 0 a 7.82,7.82 0 0 0 7.82,7.81 z"
       style="fill:#ffffff;stroke:#2e353a;stroke-linecap:round;stroke-linejoin:round"
       id="path193" />
    <rect
       x="69.580002"
       y="396.59"
       width="71.870003"
       height="5.4899998"
       style="fill:#ffffff;stroke:#2e353a;stroke-linecap:round;stroke-linejoin:round"
       id="rect195" />
    <path
       d="m 84.4,412.09 a 4.94,4.94 0 1 1 -4.94,-4.94 4.94,4.94 0 0 1 4.94,4.94 z"
       style="fill:#2e353a;stroke:#2e353a;stroke-linecap:round;stroke-linejoin:round"
       id="path197" />
    <circle
       cx="92.629997"
       cy="412.09"
       r="4.9400001"
       style="fill:#2e353a;stroke:#2e353a;stroke-linecap:round;stroke-linejoin:round"
       id="circle199" />
    <circle
       cx="105.79"
       cy="412.09"
       r="4.9400001"
       style="fill:#2e353a;stroke:#2e353a;stroke-linecap:round;stroke-linejoin:round"
       id="circle201" />
    <path
       d="m 123.9,412.09 a 4.94,4.94 0 1 1 -4.94,-4.94 4.94,4.94 0 0 1 4.94,4.94 z"
       style="fill:#2e353a;stroke:#2e353a;stroke-linecap:round;stroke-linejoin:round"
       id="path203" />
    <path
       d="m 137.07,412.09 a 4.94,4.94 0 1 1 -4.94,-4.94 4.94,4.94 0 0 1 4.94,4.94 z"
       style="fill:#2e353a;stroke:#2e353a;stroke-linecap:round;stroke-linejoin:round"
       id="path205" />
    <path
       d="m 150.23,412.09 a 4.94,4.94 0 1 1 -4.93,-4.94 4.93,4.93 0 0 1 4.93,4.94 z"
       style="fill:#2e353a;stroke:#2e353a;stroke-linecap:round;stroke-linejoin:round"
       id="path207" />
    <path
       d="m 188.64,361.47 a 2.75,2.75 0 1 0 -2.74,2.75 2.74,2.74 0 0 0 2.74,-2.75 z"
       style="fill:#2e353a;stroke:#2e353a;stroke-linecap:round;stroke-linejoin:round"
       id="path209" />
    <rect
       x="106.34"
       y="365.85999"
       width="29.08"
       height="17.559999"
       style="fill:#ffffff;stroke:#2e353a;stroke-linecap:round;stroke-linejoin:round"
       id="rect211" />
    <rect
       x="119.51"
       y="365.85999"
       width="15.91"
       height="17.559999"
       style="fill:#ffffff;stroke:#2e353a;stroke-linecap:round;stroke-linejoin:round"
       id="rect213" />
  </g>
</svg>
