<?xml version="1.0" encoding="UTF-8" standalone="no"?>
<svg
   xmlns:dc="http://purl.org/dc/elements/1.1/"
   xmlns:cc="http://creativecommons.org/ns#"
   xmlns:rdf="http://www.w3.org/1999/02/22-rdf-syntax-ns#"
   xmlns:svg="http://www.w3.org/2000/svg"
   xmlns="http://www.w3.org/2000/svg"
   xmlns:sodipodi="http://sodipodi.sourceforge.net/DTD/sodipodi-0.dtd"
   xmlns:inkscape="http://www.inkscape.org/namespaces/inkscape"
   viewBox="0 0 392.90002 362.76999"
   version="1.1"
   id="svg516"
   sodipodi:docname="mainContentPic1.svg"
   width="392.90002"
   height="362.76999"
   inkscape:version="1.0.2 (e86c870879, 2021-01-15, custom)">
  <metadata
     id="metadata520">
    <rdf:RDF>
      <cc:Work
         rdf:about="">
        <dc:format>image/svg+xml</dc:format>
        <dc:type
           rdf:resource="http://purl.org/dc/dcmitype/StillImage" />
        <dc:title></dc:title>
      </cc:Work>
    </rdf:RDF>
  </metadata>
  <sodipodi:namedview
     pagecolor="#ffffff"
     bordercolor="#666666"
     borderopacity="1"
     objecttolerance="10"
     gridtolerance="10"
     guidetolerance="10"
     inkscape:pageopacity="0"
     inkscape:pageshadow="2"
     inkscape:window-width="1920"
     inkscape:window-height="1001"
     id="namedview518"
     showgrid="false"
     lock-margins="false"
     fit-margin-top="10"
     fit-margin-left="0"
     fit-margin-right="0"
     fit-margin-bottom="2"
     inkscape:zoom="1.5486617"
     inkscape:cx="196.45"
     inkscape:cy="194.83792"
     inkscape:window-x="-9"
     inkscape:window-y="-9"
     inkscape:window-maximized="1"
     inkscape:current-layer="svg516"
     inkscape:document-rotation="0" />
  <defs
     id="defs41">
    <clipPath
       id="freepik--clip-path--inject-87">
      <path
         d="m 356.48,395.13 c 0,0 -13,-4.79 -15.54,4.79 0,0 2.32,10.55 0.93,16.32 -1.39,5.77 -8.39,16.79 -8.82,18.88 -0.85,4.1 -0.21,4.38 -0.21,4.38 0,0 5.09,2.94 11.93,-0.21 6.84,-3.15 18.68,-16.71 20.53,-19.5 C 367.15,417 359.5,406 359.5,406 Z"
         style="fill:#ffffff;stroke:#263238;stroke-linecap:round;stroke-linejoin:round"
         id="path2" />
    </clipPath>
    <clipPath
       id="freepik--clip-path-2--inject-87">
      <path
         d="m 236.88,224.6 h 22 a 1.88,1.88 0 0 1 1.88,1.88 v 15.7 H 235 v -15.7 a 1.88,1.88 0 0 1 1.88,-1.88 z"
         transform="matrix(1,0.09,-0.09,1,20.91,-20.38)"
         style="fill:#7f664c;stroke:#263238;stroke-linecap:round;stroke-linejoin:round"
         id="path5" />
    </clipPath>
    <clipPath
       id="freepik--clip-path-3--inject-87">
      <path
         d="m 274.74,227.86 h 22 a 1.88,1.88 0 0 1 1.88,1.88 v 15.7 h -25.76 v -15.7 a 1.88,1.88 0 0 1 1.88,-1.88 z"
         transform="rotate(4.91,286.00122,236.83011)"
         style="fill:#7f664c;stroke:#263238;stroke-linecap:round;stroke-linejoin:round"
         id="path8" />
    </clipPath>
    <clipPath
       id="freepik--clip-path-4--inject-87">
      <path
         d="m 339.19,246.39 -6.19,71.93 -115.89,-10 6.19,-71.92 a 4.54,4.54 0 0 1 4.92,-4.14 l 106.82,9.18 a 4.54,4.54 0 0 1 4.15,4.95 z"
         style="fill:#7f664c;stroke:#263238;stroke-linecap:round;stroke-linejoin:round"
         id="path11" />
    </clipPath>
    <clipPath
       id="freepik--clip-path-5--inject-87">
      <path
         d="m 390.8,408.81 c 0,0 -5.54,-3.95 -17,-3.16 0,0 -0.84,13.75 -2.4,17.75 -1.56,4 -9.78,10.93 -11.31,12.12 -1.53,1.19 -1.53,5.34 -1.53,5.34 h 34.82 a 110.91,110.91 0 0 0 -2.77,-17.66 z"
         style="fill:#ffffff;stroke:#263238;stroke-linecap:round;stroke-linejoin:round"
         id="path14" />
    </clipPath>
    <clipPath
       id="freepik--clip-path-6--inject-87">
      <path
         d="m 399.68,268.23 c 0,0 -22.21,4.35 -44,-2.71 A 63,63 0 0 1 341.55,259 c 0,0 0.06,-1.4 0.1,-3.69 0.18,-8.94 0.13,-31.43 -4.58,-37 -3,-3.51 -5.35,-25.21 0.44,-36.18 l 17.71,-14.24 c 24.52,4.79 29.7,11.28 33.75,25.28 0.75,2.56 1.45,5.37 2.23,8.47 0.85,3.38 1.65,7.51 2.41,12 3.68,22.36 6.07,54.59 6.07,54.59 z"
         style="fill:#999999;stroke:#263238;stroke-linecap:round;stroke-linejoin:round"
         id="path17" />
    </clipPath>
    <clipPath
       id="freepik--clip-path-7--inject-87">
      <path
         d="m 181.11,247.91 4,8.48 c 0,0 16.54,34.18 26.67,73.32 0.24,0.93 5.48,19.47 1.28,65.64 l 2.4,8.1 -2.62,13.38 c 0,0 3.94,5.69 3.8,7.55 0,0 -9.72,1.81 -13,3.55 -2.52,1.36 -10.09,8.83 -10.09,8.83 -2.15,-0.44 -2.34,-9.12 -2.34,-9.12 0,0 -4.49,-77.07 -5.78,-80.39 -1.29,-3.32 -9.17,-17.64 -21.47,-50.41 0,0 -0.28,45.77 -3.56,57.35 -2.93,10.3 0.54,39.13 0.54,39.13 l -2,32.09 c 0,0 6.92,7.19 1.31,9.12 0,0 -3.75,-7.21 -14.43,-8.85 -5.43,-0.84 -12.19,8.8 -12.19,8.8 -2.38,-0.76 1,-12.87 1,-12.87 -7.57,-57.12 -2,-46.78 -3.5,-74.7 -1,-17.92 -6.05,-94.58 -0.09,-100.81 z"
         style="fill:#bfbfbf;stroke:#263238;stroke-linecap:round;stroke-linejoin:round"
         id="path20" />
    </clipPath>
    <clipPath
       id="freepik--clip-path-8--inject-87">
      <path
         d="m 196,104 h 22 a 1.88,1.88 0 0 1 1.88,1.88 v 15.7 h -25.72 v -15.7 A 1.88,1.88 0 0 1 196,104 Z"
         transform="rotate(-5.27,207.11077,112.85314)"
         style="fill:#7f664c;stroke:#263238;stroke-linecap:round;stroke-linejoin:round"
         id="path23" />
    </clipPath>
    <clipPath
       id="freepik--clip-path-9--inject-87">
      <path
         d="m 233.88,100.49 h 22 a 1.88,1.88 0 0 1 1.88,1.88 v 15.7 H 232 v -15.7 a 1.88,1.88 0 0 1 1.88,-1.88 z"
         transform="rotate(-5.27,244.94159,109.36823)"
         style="fill:#7f664c;stroke:#263238;stroke-linecap:round;stroke-linejoin:round"
         id="path26" />
    </clipPath>
    <clipPath
       id="freepik--clip-path-10--inject-87">
      <path
         d="M 299.21,109.42 305.85,181.3 190,192 183.4,120.1 a 4.55,4.55 0 0 1 4.11,-4.95 l 106.76,-9.85 a 4.54,4.54 0 0 1 4.94,4.12 z"
         style="fill:#7f664c;stroke:#263238;stroke-linecap:round;stroke-linejoin:round"
         id="path29" />
    </clipPath>
    <clipPath
       id="freepik--clip-path-11--inject-87">
      <path
         d="m 216.33,357.31 h 22 a 1.88,1.88 0 0 1 1.88,1.88 v 15.7 h -25.76 v -15.7 a 1.88,1.88 0 0 1 1.88,-1.88 z"
         style="fill:#7f664c;stroke:#263238;stroke-linecap:round;stroke-linejoin:round"
         id="path32" />
    </clipPath>
    <clipPath
       id="freepik--clip-path-12--inject-87">
      <path
         d="m 254.33,357.31 h 22 a 1.88,1.88 0 0 1 1.88,1.88 v 15.7 h -25.76 v -15.7 a 1.88,1.88 0 0 1 1.88,-1.88 z"
         style="fill:#7f664c;stroke:#263238;stroke-linecap:round;stroke-linejoin:round"
         id="path35" />
    </clipPath>
    <clipPath
       id="freepik--clip-path-13--inject-87">
      <path
         d="m 319.42,371.23 v 72.19 H 203.11 v -72.19 a 4.55,4.55 0 0 1 4.55,-4.55 h 107.21 a 4.55,4.55 0 0 1 4.55,4.55 z"
         style="fill:#7f664c;stroke:#263238;stroke-linecap:round;stroke-linejoin:round"
         id="path38" />
    </clipPath>
  </defs>
  <g
     id="freepik--background-simple--inject-87"
     transform="translate(-53.549999,-83.16)">
    <path
       d="m 67.93,167.09 c 0,0 -27.88,72 11.3,144.5 39.18,72.5 119.88,110.8 184.47,143.55 64.59,32.75 131.66,16.8 163.53,-36.84 31.87,-53.64 -11.84,-91.93 -11.9,-168.42 -0.06,-76.49 11.45,-96.74 -30,-161.36 C 343.88,23.9 242.27,9.59 165.43,57.52 88.59,105.45 67.93,167.09 67.93,167.09 Z"
       style="opacity:0.7;fill:#ffffff"
       id="path43" />
    <path
       d="M 110,112.47 C 123.46,96.39 141.65,84 163.33,84.21 c 37,0.46 57,33.21 78.22,58.47 11,13.1 23.49,25.74 39.83,31.9 24.51,9.23 51.81,3.84 75.69,-4.73 10.7,-3.84 23.37,-9.24 35.42,-6.48 36.63,8.38 32.82,53.08 26.77,81.39 -8.17,38.24 -21.45,78.9 -48.36,108.24 -64.43,70.29 -180.38,27.2 -238.5,-28.89 -4.27,-4.13 -8.36,-8.43 -12.21,-13 A 179.75,179.75 0 0 1 95,272.74 C 76.28,233.79 73.7,186.45 90,146.2 a 128,128 0 0 1 20,-33.73 z"
       style="fill:#7f664c"
       id="path45" />
    <path
       d="M 110,112.47 C 123.46,96.39 141.65,84 163.33,84.21 c 37,0.46 57,33.21 78.22,58.47 11,13.1 23.49,25.74 39.83,31.9 24.51,9.23 51.81,3.84 75.69,-4.73 10.7,-3.84 23.37,-9.24 35.42,-6.48 36.63,8.38 32.82,53.08 26.77,81.39 -8.17,38.24 -21.45,78.9 -48.36,108.24 -64.43,70.29 -180.38,27.2 -238.5,-28.89 -4.27,-4.13 -8.36,-8.43 -12.21,-13 A 179.75,179.75 0 0 1 95,272.74 C 76.28,233.79 73.7,186.45 90,146.2 a 128,128 0 0 1 20,-33.73 z"
       style="opacity:0.7;fill:#ffffff"
       id="path47" />
  </g>
  <g
     id="freepik--Floor--inject-87"
     transform="translate(-53.549999,-83.16)">
    <line
       x1="54.049999"
       y1="443.42999"
       x2="445.95001"
       y2="443.42999"
       style="fill:none;stroke:#263238;stroke-linecap:round;stroke-linejoin:round"
       id="line50" />
  </g>
  <g
     id="freepik--Window--inject-87"
     transform="translate(-53.549999,-83.16)">
    <polyline
       points="291.97 240.8 291.97 93.66 301.08 93.66"
       style="fill:none;stroke:#263238;stroke-linecap:round;stroke-linejoin:round"
       id="polyline53" />
    <line
       x1="291.97"
       y1="258.31"
       x2="291.97"
       y2="254.41"
       style="fill:none;stroke:#263238;stroke-linecap:round;stroke-linejoin:round"
       id="line55" />
    <polyline
       points="324.51 93.66 418.52 93.66 418.52 272.03 291.97 272.03"
       style="fill:none;stroke:#263238;stroke-linecap:round;stroke-linejoin:round"
       id="polyline57" />
    <line
       x1="312.98999"
       y1="93.660004"
       x2="321.25"
       y2="93.660004"
       style="fill:none;stroke:#263238;stroke-linecap:round;stroke-linejoin:round"
       id="line59" />
    <rect
       x="296.73001"
       y="98.410004"
       width="117.03"
       height="168.87"
       style="fill:none;stroke:#263238;stroke-linecap:round;stroke-linejoin:round"
       id="rect61" />
    <polyline
       points="408.32 107.45 408.32 177.58 302.17 177.58 302.17 173"
       style="fill:none;stroke:#263238;stroke-linecap:round;stroke-linejoin:round"
       id="polyline63" />
    <polyline
       points="302.17 162.28 302.17 103.39 408.32 103.39"
       style="fill:none;stroke:#263238;stroke-linecap:round;stroke-linejoin:round"
       id="polyline65" />
    <line
       x1="302.17001"
       y1="169.49001"
       x2="302.17001"
       y2="165.03999"
       style="fill:none;stroke:#263238;stroke-linecap:round;stroke-linejoin:round"
       id="line67" />
    <line
       x1="390.39001"
       y1="182.84"
       x2="413.76001"
       y2="182.84"
       style="fill:none;stroke:#263238;stroke-linecap:round;stroke-linejoin:round"
       id="line69" />
    <line
       x1="382.07999"
       y1="182.84"
       x2="385.39001"
       y2="182.84"
       style="fill:none;stroke:#263238;stroke-linecap:round;stroke-linejoin:round"
       id="line71" />
    <line
       x1="296.73001"
       y1="182.84"
       x2="378.14001"
       y2="182.84"
       style="fill:none;stroke:#263238;stroke-linecap:round;stroke-linejoin:round"
       id="line73" />
    <polyline
       points="349.36 177.58 349.36 175.16 359.15 175.16 359.15 176.53 355.25 176.53 355.25 177.58"
       style="fill:none;stroke:#263238;stroke-linecap:round;stroke-linejoin:round"
       id="polyline75" />
    <path
       d="m 296.93,246 c 0,0 1.63,1.23 2.77,8.67 0,0 2,-11.88 4.34,-12.06 2.34,-0.18 1.9,7.72 1.9,7.72 0,0 0.4,-3.89 2.26,-3.71 1.86,0.18 0,8 0,8 0,0 2.24,-6.14 4.36,-6 2.12,0.14 -1.4,11.12 -1.4,11.12 0,0 5.44,-3.94 7.64,-2 2.2,1.94 -1.22,6.78 -1.22,6.78 0,0 7.8,-1.69 9,2.89"
       style="fill:none;stroke:#263238;stroke-linecap:round;stroke-linejoin:round"
       id="path77" />
    <path
       d="m 326.59,263 c 0,0 3.4,-2.23 6.08,-1.19 0,0 -1.7,-2.59 0,-4.17 1.7,-1.58 3.88,4.17 3.88,4.17 0,0 0.25,-9.65 3.65,-9.16 3.4,0.49 0,9.16 0,9.16 0,0 6.07,-5.38 7.53,-3.51 1.46,1.87 -1,4.7 -1,4.7 a 6.58,6.58 0 0 1 6.32,1.55 c 0,0 4.07,-4.15 8.59,-4.75 0,0 -3,-8.73 -1.55,-10.49 1.45,-1.76 4.11,7.62 4.11,7.62 0,0 1.16,-6.1 5,-6.58 0,0 -3.17,-1.72 -2.23,-4.33 0.94,-2.61 5.31,0.62 5.31,0.62 0,0 -1.8,-4.59 1.05,-5.85 2.85,-1.26 4,3.84 4,3.84 0,0 0.8,-5.34 4.14,-5 3.34,0.34 2.26,6.44 2.26,6.44 0,0 3.15,-4.88 4.84,-4.39 3.37,1 2.35,8.72 2.35,8.72 0,0 4.7,-3.27 5.92,-1.76 1.22,1.51 -4.9,5.81 -4.9,5.81 0,0 4.67,0.51 7.58,3.24"
       style="fill:none;stroke:#263238;stroke-linecap:round;stroke-linejoin:round"
       id="path79" />
    <path
       d="m 413.76,247.8 c 0,0 -0.54,-4.9 -5.44,-5.16 -4.9,-0.26 1.35,10.75 1.35,10.75 0,0 -4.05,-3.35 -5.5,-2.32 -1.45,1.03 4.15,6.71 4.15,6.71 0,0 -2.69,-2.49 -5.52,-1.72 -2.83,0.77 1.61,8.66 1.61,8.66 A 20.18,20.18 0 0 0 392,266.18"
       style="fill:none;stroke:#263238;stroke-linecap:round;stroke-linejoin:round"
       id="path81" />
  </g>
  <g
     id="freepik--Table--inject-87"
     transform="translate(-53.549999,-83.16)">
    <line
       x1="246.69"
       y1="399.64999"
       x2="246.69"
       y2="443.17001"
       style="fill:none;stroke:#263238;stroke-linecap:round;stroke-linejoin:round"
       id="line84" />
    <line
       x1="246.69"
       y1="385.41"
       x2="246.69"
       y2="394.73001"
       style="fill:none;stroke:#263238;stroke-linecap:round;stroke-linejoin:round"
       id="line86" />
    <polyline
       points="63.49 443.43 63.49 362.33 246.69 362.33 246.69 380.13"
       style="fill:none;stroke:#263238;stroke-linecap:round;stroke-linejoin:round"
       id="polyline88" />
    <polyline
       points="90.18 371.2 74.28 371.2 74.28 435.99"
       style="fill:none;stroke:#263238;stroke-linecap:round;stroke-linejoin:round"
       id="polyline90" />
    <polyline
       points="235.9 443.17 235.9 371.2 99.41 371.2"
       style="fill:none;stroke:#263238;stroke-linecap:round;stroke-linejoin:round"
       id="polyline92" />
    <line
       x1="228.28"
       y1="353.92999"
       x2="223.23"
       y2="353.92999"
       style="fill:none;stroke:#263238;stroke-linecap:round;stroke-linejoin:round"
       id="line94" />
    <polyline
       points="215.98 353.93 58.94 353.93 58.94 362.27 251.24 362.27 251.24 353.93 231.5 353.93"
       style="fill:none;stroke:#263238;stroke-linecap:round;stroke-linejoin:round"
       id="polyline96" />
    <path
       d="m 69.77,300.49 c 0,0 15,1.19 15.68,12.29 0,0 -15.25,7.02 -15.68,-12.29 z"
       style="fill:none;stroke:#263238;stroke-linecap:round;stroke-linejoin:round"
       id="path98" />
    <path
       d="m 99.54,303.25 c 0,0 8.41,-11.37 22,-5.54 0,0 -8.3,13.74 -22,5.54 z"
       style="fill:none;stroke:#263238;stroke-linecap:round;stroke-linejoin:round"
       id="path100" />
    <path
       d="m 120.39,267.35 c 0,0 2.42,21.87 -17.49,15.85 0,0 6.32,-16.08 17.49,-15.85 z"
       style="fill:none;stroke:#263238;stroke-linecap:round;stroke-linejoin:round"
       id="path102" />
    <path
       d="m 95.94,255.17 c 0,0 15.75,8.5 4.17,21.38 0,0 -11.04,-9.2 -4.17,-21.38 z"
       style="fill:none;stroke:#263238;stroke-linecap:round;stroke-linejoin:round"
       id="path104" />
    <path
       d="m 76.57,274.72 c 0,0 17.12,-1.72 17.12,14.12 0,0 -17.12,0.68 -17.12,-14.12 z"
       style="fill:none;stroke:#263238;stroke-linecap:round;stroke-linejoin:round"
       id="path106" />
    <path
       d="m 89.4,321.73 c -0.25,-5.32 -0.25,-12.16 3,-19.39 7.49,-16.68 10,-30.73 6.11,-40.63"
       style="fill:none;stroke:#263238;stroke-linecap:round;stroke-linejoin:round"
       id="path108" />
    <path
       d="m 82.19,279 c 0,0 10.26,4.08 13.75,14.65"
       style="fill:none;stroke:#263238;stroke-linecap:round;stroke-linejoin:round"
       id="path110" />
    <path
       d="m 115,276.1 c 0,0 -5.93,8.08 -16,7.21"
       style="fill:none;stroke:#263238;stroke-linecap:round;stroke-linejoin:round"
       id="path112" />
    <path
       d="m 115,300 c 0,0 -16.43,4.73 -23,3.18"
       style="fill:none;stroke:#263238;stroke-linecap:round;stroke-linejoin:round"
       id="path114" />
    <path
       d="m 74.67,305.49 c 0,0 7.35,8.06 14.73,7.93"
       style="fill:none;stroke:#263238;stroke-linecap:round;stroke-linejoin:round"
       id="path116" />
    <path
       d="M 108.93,321.73 H 73.24 a 0.87,0.87 0 0 0 -0.87,0.87 v 2.71 a 0.86,0.86 0 0 0 0.87,0.86 h 1 l 3.18,27.76 h 27.28 l 3.18,-27.76 h 1.05 a 0.85,0.85 0 0 0 0.86,-0.86 v -2.71 a 0.86,0.86 0 0 0 -0.86,-0.87 z"
       style="fill:none;stroke:#263238;stroke-miterlimit:10"
       id="path118" />
    <line
       x1="76.57"
       y1="326.17001"
       x2="97.330002"
       y2="326.17001"
       style="fill:none;stroke:#263238;stroke-linecap:round;stroke-linejoin:round"
       id="line120" />
    <line
       x1="101.24"
       y1="326.17001"
       x2="104.36"
       y2="326.17001"
       style="fill:none;stroke:#263238;stroke-linecap:round;stroke-linejoin:round"
       id="line122" />
  </g>
  <g
     id="freepik--character-3--inject-87"
     transform="translate(-53.549999,-83.16)">
    <path
       d="m 328.71,211.09 -4,21.74 -32.62,19.82 4.51,8.28 c 0,0 37.71,-11.5 38.63,-14.19 0.92,-2.69 9.61,-31.18 9.61,-31.18 z"
       style="fill:#263238"
       id="path125" />
    <path
       d="m 343,174.33 -2.18,26.36 -1.15,13.83 c -6.29,3.06 -12.44,-1.54 -12.82,-1.84 v 0 c 1.71,-5.02 3.7,-33.35 16.15,-38.35 z"
       style="fill:#999999;stroke:#263238;stroke-linecap:round;stroke-linejoin:round"
       id="path127" />
    <path
       d="m 340.78,200.69 -1.15,13.83 c -6.29,3.06 -12.44,-1.54 -12.82,-1.84 0.27,0.12 3.58,1.52 5.73,0 a 16.78,16.78 0 0 1 -2,-2.64 c -0.13,-0.52 2,-0.66 2,-0.66 0,0 -1.4,-11.21 2.33,-16 1.46,-1.82 3.74,1.98 5.91,7.31 z"
       style="fill:#263238"
       id="path129" />
    <path
       d="m 365.59,418.44 1,2.94 a 59.51,59.51 0 0 1 -5.08,7.14 c 0,0 -1,-0.32 -2.64,1.13 a 6.07,6.07 0 0 0 -1.76,3.76 c 0,0 -7.64,9.16 -17.33,9.29 -9.69,0.13 -6.77,-4.75 -6.77,-4.75 z"
       style="fill:#7f664c;stroke:#263238;stroke-linecap:round;stroke-linejoin:round"
       id="path131" />
    <path
       d="m 356.48,395.13 c 0,0 -13,-4.79 -15.54,4.79 0,0 2.32,10.55 0.93,16.32 -1.39,5.77 -8.39,16.79 -8.82,18.88 -0.85,4.1 -0.21,4.38 -0.21,4.38 0,0 5.09,2.94 11.93,-0.21 6.84,-3.15 18.68,-16.71 20.53,-19.5 C 367.15,417 359.5,406 359.5,406 Z"
       style="fill:#ffffff"
       id="path133" />
    <g
       clip-path="url(#freepik--clip-path--inject-87)"
       id="g137">
      <path
         d="m 356.48,395.13 c 0,0 -13,-4.79 -15.54,4.79 0,0 2.32,10.55 0.93,16.32 -1.39,5.77 -8.39,16.79 -8.82,18.88 -0.85,4.1 -0.21,4.38 -0.21,4.38 0,0 5.09,2.94 11.93,-0.21 6.84,-3.15 18.68,-16.71 20.53,-19.5 C 367.15,417 359.5,406 359.5,406 Z"
         style="opacity:0.4;fill:#7f664c"
         id="path135" />
    </g>
    <path
       d="m 356.48,395.13 c 0,0 -13,-4.79 -15.54,4.79 0,0 2.32,10.55 0.93,16.32 -1.39,5.77 -8.39,16.79 -8.82,18.88 -0.85,4.1 -0.21,4.38 -0.21,4.38 0,0 5.09,2.94 11.93,-0.21 6.84,-3.15 18.68,-16.71 20.53,-19.5 C 367.15,417 359.5,406 359.5,406 Z"
       style="fill:none;stroke:#263238;stroke-linecap:round;stroke-linejoin:round"
       id="path139" />
    <path
       d="m 349.83,408.68 a 28.23,28.23 0 0 1 -3.25,18.8"
       style="fill:none;stroke:#263238;stroke-linecap:round;stroke-linejoin:round"
       id="path141" />
    <path
       d="m 346.58,430 a 8.77,8.77 0 0 1 -5.56,5.14 15.47,15.47 0 0 1 -8,0 l 3.12,-6.32 a 19.94,19.94 0 0 0 10.44,1.18 z"
       style="fill:#7f664c;stroke:#263238;stroke-linecap:round;stroke-linejoin:round"
       id="path143" />
    <path
       d="m 348.42,426.17 c 0,0 -6.8,0.41 -10.35,-1"
       style="fill:none;stroke:#263238;stroke-linecap:round;stroke-linejoin:round"
       id="path145" />
    <path
       d="m 349.68,422.42 c 0,0 -6.36,1 -9.91,-1"
       style="fill:none;stroke:#263238;stroke-linecap:round;stroke-linejoin:round"
       id="path147" />
    <path
       d="m 350.76,418.25 c 0,0 -5.57,0.81 -9.21,-0.91"
       style="fill:none;stroke:#263238;stroke-linecap:round;stroke-linejoin:round"
       id="path149" />
    <path
       d="m 351.38,413.53 c 0,0 -6.2,1.94 -9.13,0"
       style="fill:none;stroke:#263238;stroke-linecap:round;stroke-linejoin:round"
       id="path151" />
    <path
       d="m 352.31,401.87 1.08,6.81 c 0,0 -8.2,5.4 -13.62,-1.35 v -7.11 c 0,0 2.04,4.78 12.54,1.65 z"
       style="fill:#7f664c;stroke:#263238;stroke-linecap:round;stroke-linejoin:round"
       id="path153" />
    <path
       d="m 345.19,249 c -8.31,26.33 -34.1,68.56 -31.49,79.37 1.43,5.9 9.94,39.33 16.6,54 2.53,5.61 8,9.36 8,9.36 l 3.95,8.47 c 9.63,4.19 13.08,-4.33 13.08,-4.33 l -1.94,-9.6 c 5.16,-9.38 3,-9.38 -3.71,-58 -0.79,-5.73 12.5,-23.44 12.5,-23.44 l 6.82,44.56 1.11,36.5 3.54,11.28 c 0,0 0.88,10.59 0.8,11.23 h 15.83 L 392,396.76 c 0,0 7.35,-6.93 7.35,-14.93 0,-8 -1.58,-48.75 0,-60.62 1.58,-11.87 -3.7,-67.21 -3.7,-67.21 z"
       style="fill:#263238"
       id="path155" />
    <path
       d="m 236.88,224.6 h 22 a 1.88,1.88 0 0 1 1.88,1.88 v 15.7 H 235 v -15.7 a 1.88,1.88 0 0 1 1.88,-1.88 z"
       transform="matrix(1,0.09,-0.09,1,20.91,-20.38)"
       style="fill:#7f664c"
       id="path157" />
    <g
       clip-path="url(#freepik--clip-path-2--inject-87)"
       id="g163">
      <path
         d="m 236.88,224.6 h 22 a 1.88,1.88 0 0 1 1.88,1.88 v 15.7 H 235 v -15.7 a 1.88,1.88 0 0 1 1.88,-1.88 z"
         transform="matrix(1,0.09,-0.09,1,20.91,-20.38)"
         style="opacity:0.3;fill-opacity:0.7"
         id="path159" />
      <rect
         x="253.03999"
         y="226.97"
         width="6.3299999"
         height="12.66"
         transform="rotate(4.91,256.41783,233.5419)"
         style="opacity:0.3;fill:#ffffff;fill-opacity:0.7"
         id="rect161" />
    </g>
    <path
       d="m 236.88,224.6 h 22 a 1.88,1.88 0 0 1 1.88,1.88 v 15.7 H 235 v -15.7 a 1.88,1.88 0 0 1 1.88,-1.88 z"
       transform="matrix(1,0.09,-0.09,1,20.91,-20.38)"
       style="fill:none;stroke:#263238;stroke-linecap:round;stroke-linejoin:round"
       id="path165" />
    <path
       d="m 274.74,227.86 h 22 a 1.88,1.88 0 0 1 1.88,1.88 v 15.7 h -25.76 v -15.7 a 1.88,1.88 0 0 1 1.88,-1.88 z"
       transform="rotate(4.91,286.00122,236.83011)"
       style="fill:#7f664c"
       id="path167" />
    <g
       clip-path="url(#freepik--clip-path-3--inject-87)"
       id="g173">
      <path
         d="m 274.74,227.86 h 22 a 1.88,1.88 0 0 1 1.88,1.88 v 15.7 h -25.76 v -15.7 a 1.88,1.88 0 0 1 1.88,-1.88 z"
         transform="rotate(4.91,286.00122,236.83011)"
         style="opacity:0.3;fill-opacity:0.7"
         id="path169" />
      <rect
         x="292.98001"
         y="230.3"
         width="3.8199999"
         height="12.66"
         transform="rotate(4.91,295.11263,236.78997)"
         style="opacity:0.3;fill:#ffffff;fill-opacity:0.7"
         id="rect171" />
    </g>
    <path
       d="m 274.74,227.86 h 22 a 1.88,1.88 0 0 1 1.88,1.88 v 15.7 h -25.76 v -15.7 a 1.88,1.88 0 0 1 1.88,-1.88 z"
       transform="rotate(4.91,286.00122,236.83011)"
       style="fill:none;stroke:#263238;stroke-linecap:round;stroke-linejoin:round"
       id="path175" />
    <path
       d="m 266.77,227.17 h 22 a 1.88,1.88 0 0 1 1.88,1.88 v 15.7 h -25.76 v -15.7 a 1.88,1.88 0 0 1 1.88,-1.88 z"
       transform="rotate(4.91,278.03102,236.23714)"
       style="fill:#7f664c;stroke:#263238;stroke-linecap:round;stroke-linejoin:round"
       id="path177" />
    <path
       d="m 304.63,230.43 h 22 a 1.88,1.88 0 0 1 1.88,1.88 V 248 h -25.76 v -15.7 a 1.88,1.88 0 0 1 1.88,-1.87 z"
       transform="rotate(4.91,315.90447,239.40358)"
       style="fill:#7f664c;stroke:#263238;stroke-linecap:round;stroke-linejoin:round"
       id="path179" />
    <rect
       x="282.92999"
       y="229.53999"
       width="6.3299999"
       height="12.66"
       transform="rotate(4.91,286.32108,236.11538)"
       style="opacity:0.3;fill:#ffffff;fill-opacity:0.7"
       id="rect181" />
    <rect
       x="320.37"
       y="232.75999"
       width="6.3299999"
       height="12.66"
       transform="rotate(4.91,323.84467,239.29683)"
       style="opacity:0.3;fill:#ffffff;fill-opacity:0.7"
       id="rect183" />
    <path
       d="m 339.19,246.39 -6.19,71.93 -115.89,-10 6.19,-71.92 a 4.54,4.54 0 0 1 4.92,-4.14 l 106.82,9.18 a 4.54,4.54 0 0 1 4.15,4.95 z"
       style="fill:#7f664c"
       id="path185" />
    <g
       clip-path="url(#freepik--clip-path-4--inject-87)"
       id="g189">
      <path
         d="m 339.19,246.39 -6.19,71.93 -115.89,-10 6.19,-71.92 a 4.54,4.54 0 0 1 4.92,-4.14 l 106.82,9.18 a 4.54,4.54 0 0 1 4.15,4.95 z"
         style="opacity:0.3;fill-opacity:0.7"
         id="path187" />
    </g>
    <path
       d="m 339.19,246.39 -6.19,71.93 -115.89,-10 6.19,-71.92 a 4.54,4.54 0 0 1 4.92,-4.14 l 106.82,9.18 a 4.54,4.54 0 0 1 4.15,4.95 z"
       style="fill:none;stroke:#263238;stroke-linecap:round;stroke-linejoin:round"
       id="path191" />
    <path
       d="m 339.19,246.39 -6.19,71.93 -86,-7.4 6.2,-71.92 a 4.54,4.54 0 0 1 4.92,-4.14 l 76.93,6.61 a 4.54,4.54 0 0 1 4.14,4.92 z"
       style="fill:#7f664c;stroke:#263238;stroke-linecap:round;stroke-linejoin:round"
       id="path193" />
    <path
       d="m 333.15,248.45 -73.51,-6.32 a 1.88,1.88 0 0 1 -1.71,-2 v 0 a 1.88,1.88 0 0 1 2,-1.71 l 73.51,6.32 a 1.88,1.88 0 0 1 1.71,2 v 0 a 1.88,1.88 0 0 1 -2,1.71 z"
       style="opacity:0.3;fill:#ffffff;fill-opacity:0.7"
       id="path195" />
    <path
       d="m 390.8,408.81 c 0,0 -5.54,-3.95 -17,-3.16 0,0 -0.84,13.75 -2.4,17.75 -1.56,4 -9.78,10.93 -11.31,12.12 -1.53,1.19 -1.53,5.34 -1.53,5.34 h 34.82 a 110.91,110.91 0 0 0 -2.77,-17.66 z"
       style="fill:#ffffff"
       id="path197" />
    <g
       clip-path="url(#freepik--clip-path-5--inject-87)"
       id="g201">
      <path
         d="m 390.8,408.81 c 0,0 -5.54,-3.95 -17,-3.16 0,0 -0.84,13.75 -2.4,17.75 -1.56,4 -9.78,10.93 -11.31,12.12 -1.53,1.19 -1.53,5.34 -1.53,5.34 h 34.82 a 110.91,110.91 0 0 0 -2.77,-17.66 z"
         style="opacity:0.4;fill:#7f664c"
         id="path199" />
    </g>
    <path
       d="m 390.8,408.81 c 0,0 -5.54,-3.95 -17,-3.16 0,0 -0.84,13.75 -2.4,17.75 -1.56,4 -9.78,10.93 -11.31,12.12 -1.53,1.19 -1.53,5.34 -1.53,5.34 h 34.82 a 110.91,110.91 0 0 0 -2.77,-17.66 z"
       style="fill:none;stroke:#263238;stroke-linecap:round;stroke-linejoin:round"
       id="path203" />
    <path
       d="m 383.61,410.59 c 0,0 -0.82,12.66 -2.79,16 a 23.13,23.13 0 0 1 -3.86,5"
       style="fill:none;stroke:#263238;stroke-linecap:round;stroke-linejoin:round"
       id="path205" />
    <path
       d="m 376,433.34 c 0,0 -1.75,2.18 -3.69,2.47 -1.94,0.29 -12.19,-0.29 -12.19,-0.29 l 4.18,-3.62 c 0,0 8.5,-1.43 11.7,1.44 z"
       style="fill:#7f664c;stroke:#263238;stroke-linecap:round;stroke-linejoin:round"
       id="path207" />
    <path
       d="m 379.62,430.37 c 0,0 -7.42,-4.26 -12.71,-1"
       style="fill:none;stroke:#263238;stroke-linecap:round;stroke-linejoin:round"
       id="path209" />
    <path
       d="m 381.41,427.48 c 0,0 -5.18,-4.05 -11.29,-1.83"
       style="fill:none;stroke:#263238;stroke-linecap:round;stroke-linejoin:round"
       id="path211" />
    <path
       d="m 383.61,423.07 c 0,0 -5.58,-4.34 -11.46,-1.58"
       style="fill:none;stroke:#263238;stroke-linecap:round;stroke-linejoin:round"
       id="path213" />
    <path
       d="m 384.37,417.56 c 0,0 -6.77,-3.64 -11.69,-0.88"
       style="fill:none;stroke:#263238;stroke-linecap:round;stroke-linejoin:round"
       id="path215" />
    <path
       d="m 393.37,440.86 v 2.57 h -4 c 0,0 -3.43,-2 -6.69,0 H 363.9 a 13.62,13.62 0 0 1 -5.74,-1.29 l 0.39,-1.28 z"
       style="fill:#7f664c;stroke:#263238;stroke-linecap:round;stroke-linejoin:round"
       id="path217" />
    <path
       d="m 388.38,408 -0.89,5.61 c 0,0 -10.45,-3.39 -16.22,-1.19 v -6.9 c 0,0 10.73,-3.76 17.11,2.48 z"
       style="fill:#7f664c;stroke:#263238;stroke-linecap:round;stroke-linejoin:round"
       id="path219" />
    <path
       d="m 399.68,268.23 c 0,0 -22.21,4.35 -44,-2.71 A 63,63 0 0 1 341.55,259 c 0,0 0.06,-1.4 0.1,-3.69 0.18,-8.94 0.13,-31.43 -4.58,-37 -3,-3.51 -5.35,-25.21 0.44,-36.18 l 17.71,-14.24 c 24.52,4.79 29.7,11.28 33.75,25.28 0.75,2.56 1.45,5.37 2.23,8.47 0.85,3.38 1.65,7.51 2.41,12 3.68,22.36 6.07,54.59 6.07,54.59 z"
       style="fill:#999999"
       id="path221" />
    <g
       clip-path="url(#freepik--clip-path-6--inject-87)"
       id="g225">
      <path
         d="m 393.61,213.64 -10,44.67 c 0,0 -14.45,4 -27.92,7.21 A 63,63 0 0 1 341.55,259 c 0,0 0.06,-1.4 0.1,-3.69 12.1,-6.19 29.76,-15.29 29.62,-15.72 -0.23,-0.67 0,-24 0,-24 0,0 16,-3.71 17.7,-22.45 0.75,2.56 1.45,5.37 2.23,8.47 0.85,3.39 1.65,7.49 2.41,12.03 z"
         style="opacity:0.2"
         id="path223" />
    </g>
    <path
       d="m 399.68,268.23 c 0,0 -22.21,4.35 -44,-2.71 A 63,63 0 0 1 341.55,259 c 0,0 0.06,-1.4 0.1,-3.69 0.18,-8.94 0.13,-31.43 -4.58,-37 -3,-3.51 -5.35,-25.21 0.44,-36.18 l 17.71,-14.24 c 24.52,4.79 29.7,11.28 33.75,25.28 0.75,2.56 1.45,5.37 2.23,8.47 0.85,3.38 1.65,7.51 2.41,12 3.68,22.36 6.07,54.59 6.07,54.59 z"
       style="fill:none;stroke:#263238;stroke-linecap:round;stroke-linejoin:round"
       id="path227" />
    <path
       d="m 356,149.2 c 0,0 -7.82,11.2 2.58,19.94 0,0 -12.62,14.16 -16.77,12.21 -1.75,-0.82 0,-5.93 0,-5.93 l -7.32,-13.54 z"
       style="fill:#ffffff;stroke:#263238;stroke-linecap:round;stroke-linejoin:round"
       id="path229" />
    <path
       d="m 353.45,155 c 2.44,-10.67 1.27,-26.56 -13.68,-25.15 -10.48,1 -17.95,6.8 -15,20.86 1.23,5.93 2.24,14.33 7.68,21.91 1.51,2.1 17.31,-5.33 16.35,-11.34"
       style="fill:#ffffff;stroke:#263238;stroke-linecap:round;stroke-linejoin:round"
       id="path231" />
    <path
       d="m 332.06,148.33 a 7.24,7.24 0 0 1 6.48,0.63"
       style="fill:none;stroke:#263238;stroke-linecap:round;stroke-linejoin:round"
       id="path233" />
    <path
       d="m 324.54,149.64 a 1.88,1.88 0 0 1 2.25,-1"
       style="fill:none;stroke:#263238;stroke-linecap:round;stroke-linejoin:round"
       id="path235" />
    <path
       d="m 328.28,151.86 c 0,0 -3.08,5.61 -3.09,6.41 -0.01,0.8 3.79,1.07 3.79,1.07"
       style="fill:#ffffff;stroke:#263238;stroke-linecap:round;stroke-linejoin:round"
       id="path237" />
    <path
       d="m 334.9,153 c 0,0.61 -0.27,1.11 -0.65,1.13 -0.38,0.02 -0.7,-0.48 -0.72,-1.09 -0.02,-0.61 0.27,-1.11 0.65,-1.12 0.38,-0.01 0.7,0.49 0.72,1.08 z"
       style="fill:#263238"
       id="path239" />
    <path
       d="m 330.55,163.42 c 0,0 5.91,-1.11 7,-3.19"
       style="fill:none;stroke:#263238;stroke-linecap:round;stroke-linejoin:round"
       id="path241" />
    <path
       d="m 324.5,141 4.6,-1.34 c 0,0 6.45,-3 7.82,-2.58 1.37,0.42 4.15,4.69 4.06,7.13 0,0 4.34,3.82 4.89,9.36 l 1.32,-0.6 c 0,0 -0.07,-5 2.77,-4.87 2.84,0.13 4.12,3.53 3.93,4.6 -0.19,1.07 -3.3,5.51 -3.3,5.51 0,0 7.12,-1.06 7.35,-15 0.23,-13.94 -15.05,-16.21 -22.48,-15.64 a 97,97 0 0 1 -11.32,0.42 l 0.42,4 -3,0.79 2.26,2.77 -2.48,1.13 z"
       style="fill:#263238"
       id="path243" />
    <path
       d="m 350.26,293 c 0,0 18.1,4.79 23,18.27"
       style="fill:none;stroke:#ffffff;stroke-linecap:round;stroke-linejoin:round"
       id="path245" />
    <path
       d="m 358.55,300.25 c 0,0 -9.78,16.29 -24.75,24.75"
       style="fill:none;stroke:#ffffff;stroke-linecap:round;stroke-linejoin:round"
       id="path247" />
    <path
       d="m 344.8,391.86 c 0,0 5.56,-1.25 7.08,-3.41"
       style="fill:none;stroke:#ffffff;stroke-linecap:round;stroke-linejoin:round"
       id="path249" />
    <path
       d="m 375.76,393.93 c 0,0 5.44,-2.82 10.86,0"
       style="fill:none;stroke:#ffffff;stroke-linecap:round;stroke-linejoin:round"
       id="path251" />
    <path
       d="m 393.37,318.09 c 0,0 -9.13,23.65 -13.75,25.84"
       style="fill:none;stroke:#ffffff;stroke-linecap:round;stroke-linejoin:round"
       id="path253" />
    <path
       d="m 353.39,281.05 c 0.25,2.57 11,14.48 19.87,19.2"
       style="fill:none;stroke:#ffffff;stroke-linecap:round;stroke-linejoin:round"
       id="path255" />
    <path
       d="m 362.56,271 a 16.57,16.57 0 0 1 0.77,10.05 15.49,15.49 0 0 0 0,8.86"
       style="fill:none;stroke:#ffffff;stroke-linecap:round;stroke-linejoin:round"
       id="path257" />
    <path
       d="m 343,221.82 c 0,0 16.83,21.78 34.92,28.93"
       style="fill:none;stroke:#263238;stroke-linecap:round;stroke-linejoin:round"
       id="path259" />
    <path
       d="m 360.42,186.61 c 0,0 -0.06,14.81 10.62,21.49"
       style="fill:none;stroke:#263238;stroke-linecap:round;stroke-linejoin:round"
       id="path261" />
    <path
       d="m 366.43,208.22 c -2.26,2.22 0.2,30.08 0.2,30.08 0,0 -13.13,5.14 -17.24,8.45 -4.11,3.31 -23.58,10.91 -23.58,10.91 0,0 -3,10.22 0.74,10.57 3.74,0.35 42.47,-12.85 51.33,-17.48 0,0 5.77,-34 5.73,-42.65"
       style="fill:#ffffff;stroke:#263238;stroke-linecap:round;stroke-linejoin:round"
       id="path263" />
    <path
       d="m 327.35,257.05 c -1.8,-0.34 -5,-1.52 -6.68,-1.13 -1.68,0.39 -4.75,2.24 -7.91,3 -3.16,0.76 -1.85,2 0,2.37 a 12.45,12.45 0 0 0 4.09,0 l -2.57,2.51 a 40.53,40.53 0 0 1 -4.55,2.11 c -0.93,0 -4.22,0.89 -4,2.29 0.22,1.4 2.11,1.24 4.22,1.32 0,0 -3.36,0.67 -3,2.58 0.22,1.31 4,0.13 5.93,0.13 0,0 -1.58,1.72 -0.4,2.25 1.18,0.53 3.8,-0.79 3.8,-0.79 0,0 -0.1,1.42 1.08,1.56 1.18,0.14 4.15,-1 6.17,-2.22 a 54.74,54.74 0 0 0 5.7,-4.22 9.39,9.39 0 0 1 2.59,-1.68"
       style="fill:#ffffff;stroke:#263238;stroke-linecap:round;stroke-linejoin:round"
       id="path265" />
    <path
       d="m 310,269.56 a 22.88,22.88 0 0 0 2.77,-0.32 c 0.79,-0.2 1.58,-0.46 1.58,-0.46"
       style="fill:none;stroke:#263238;stroke-linecap:round;stroke-linejoin:round"
       id="path267" />
    <path
       d="m 312.89,272.27 a 9.52,9.52 0 0 0 3.43,-1.18"
       style="fill:none;stroke:#263238;stroke-linecap:round;stroke-linejoin:round"
       id="path269" />
    <path
       d="m 316.29,273.73 a 5.83,5.83 0 0 0 2.5,-0.93"
       style="fill:none;stroke:#263238;stroke-linecap:round;stroke-linejoin:round"
       id="path271" />
    <path
       d="m 314.6,264.56 c 0,0 -0.72,1.65 0,2.57 0.72,0.92 1.59,1 1.72,2 0.13,1 1.85,1 2.47,1.65 0.62,0.65 1.09,1.9 3.07,2"
       style="fill:none;stroke:#263238;stroke-linecap:round;stroke-linejoin:round"
       id="path273" />
    <path
       d="m 365.59,179.33 c -6.81,15.41 0,36.79 0,36.79 0,0 16.48,5.6 18,3.19 1.52,-2.41 4.3,-14.23 4.77,-19.69"
       style="fill:#999999;stroke:#263238;stroke-linecap:round;stroke-linejoin:round"
       id="path275" />
    <path
       d="m 383.61,201.33 c 0,0 -7,9.63 -12.57,9.76"
       style="fill:none;stroke:#263238;stroke-linecap:round;stroke-linejoin:round"
       id="path277" />
  </g>
  <g
     id="freepik--character-2--inject-87"
     transform="translate(-53.549999,-83.16)">
    <path
       d="m 133.41,443.43 c 0,0 -1.71,-6.53 0.29,-8.95 3.58,-4.34 -0.44,-8 3.16,-9.49 l 1.51,1.75 c 0.29,-1.77 -0.55,-7.18 6.13,-7.88 8.08,-0.85 8.23,5 8.67,7 l -0.14,-2.71 c 3.45,0 1.66,3.44 6.88,9.06 a 14.9,14.9 0 0 1 3.78,11.26 z"
       style="fill:#263238"
       id="path280" />
    <path
       d="m 195,443.43 c -3.25,-1.45 -0.27,-13.71 -0.27,-13.71 0,0 -4.37,-2.93 0,-6 a 12.16,12.16 0 0 0 12.41,2 c 0,0 0.85,-8.2 6,-7.15 0,0 1.32,5.2 4.33,8.17 8.15,8 18.68,9 20.44,12.84 0.53,1.16 -0.11,3.81 -0.11,3.81 z"
       style="fill:#263238"
       id="path282" />
    <path
       d="m 181.11,247.91 4,8.48 c 0,0 16.54,34.18 26.67,73.32 0.24,0.93 5.48,19.47 1.28,65.64 l 2.4,8.1 -2.62,13.38 c 0,0 3.94,5.69 3.8,7.55 0,0 -9.72,1.81 -13,3.55 -2.52,1.36 -10.09,8.83 -10.09,8.83 -2.15,-0.44 -2.34,-9.12 -2.34,-9.12 0,0 -4.49,-77.07 -5.78,-80.39 -1.29,-3.32 -9.17,-17.64 -21.47,-50.41 0,0 -0.28,45.77 -3.56,57.35 -2.93,10.3 0.54,39.13 0.54,39.13 l -2,32.09 c 0,0 6.92,7.19 1.31,9.12 0,0 -3.75,-7.21 -14.43,-8.85 -5.43,-0.84 -12.19,8.8 -12.19,8.8 -2.38,-0.76 1,-12.87 1,-12.87 -7.57,-57.12 -2,-46.78 -3.5,-74.7 -1,-17.92 -6.05,-94.58 -0.09,-100.81 z"
       style="fill:#bfbfbf"
       id="path284" />
    <g
       clip-path="url(#freepik--clip-path-7--inject-87)"
       id="g290">
      <path
         d="m 128.26,274.31 c 26.74,2.1 49.89,-6.65 59.94,-11.22 -1.91,-4.28 -3.08,-6.7 -3.08,-6.7 l -4,-8.47 -50,-1.82 c -2.12,2.25 -2.87,13.68 -2.86,28.21 z"
         style="opacity:0.2"
         id="path286" />
      <path
         d="m 164.23,297.43 c 12.17,32.35 20,46.51 21.26,49.81 0.73,1.92 2.52,28.09 3.92,50.05 1.6,-20 3.25,-41.07 3.39,-45.2 0.3,-8.24 -5.65,-19.53 -6.54,-22.45 -0.89,-2.92 1.12,-6.08 1.12,-6.08 l -10.7,-13.5 c 0.36,-4.58 -5.31,-24.57 -5.31,-24.57 -3.37,3.19 -6.37,9.98 -7.14,11.94 z"
         style="opacity:0.2"
         id="path288" />
    </g>
    <path
       d="m 181.11,247.91 4,8.48 c 0,0 16.54,34.18 26.67,73.32 0.24,0.93 5.48,19.47 1.28,65.64 l 2.4,8.1 -2.62,13.38 c 0,0 3.94,5.69 3.8,7.55 0,0 -9.72,1.81 -13,3.55 -2.52,1.36 -10.09,8.83 -10.09,8.83 -2.15,-0.44 -2.34,-9.12 -2.34,-9.12 0,0 -4.49,-77.07 -5.78,-80.39 -1.29,-3.32 -9.17,-17.64 -21.47,-50.41 0,0 -0.28,45.77 -3.56,57.35 -2.93,10.3 0.54,39.13 0.54,39.13 l -2,32.09 c 0,0 6.92,7.19 1.31,9.12 0,0 -3.75,-7.21 -14.43,-8.85 -5.43,-0.84 -12.19,8.8 -12.19,8.8 -2.38,-0.76 1,-12.87 1,-12.87 -7.57,-57.12 -2,-46.78 -3.5,-74.7 -1,-17.92 -6.05,-94.58 -0.09,-100.81 z"
       style="fill:none;stroke:#263238;stroke-linecap:round;stroke-linejoin:round"
       id="path292" />
    <path
       d="m 164,296.84 c 0,0 6.11,-11.79 11.32,-15.08"
       style="fill:none;stroke:#263238;stroke-linecap:round;stroke-linejoin:round"
       id="path294" />
    <path
       d="m 177.62,277.94 c 0,0 -18.56,5.65 -25,6.74"
       style="fill:none;stroke:#263238;stroke-linecap:round;stroke-linejoin:round"
       id="path296" />
    <path
       d="m 168.12,259 c 0.8,15.45 6.25,18.08 1,21.45 0,0 0.15,7.23 -2.47,11.81"
       style="fill:none;stroke:#263238;stroke-linecap:round;stroke-linejoin:round"
       id="path298" />
    <path
       d="m 135.6,253.09 c 0,0 2.19,23.75 -5.12,28.22"
       style="fill:none;stroke:#263238;stroke-linecap:round;stroke-linejoin:round"
       id="path300" />
    <path
       d="m 130.48,260.75 c 0,0 -0.55,15.81 0,28.55 0,0 1.83,53.85 3.66,60.61 1.83,6.76 -2.82,17 -2.42,46.22"
       style="fill:none;stroke:#263238;stroke-linecap:round;stroke-linejoin:round"
       id="path302" />
    <path
       d="m 148,419 a 7.59,7.59 0 0 0 -5.11,0.68"
       style="fill:none;stroke:#263238;stroke-linecap:round;stroke-linejoin:round"
       id="path304" />
    <path
       d="m 159,425.41 a 28.05,28.05 0 0 0 -7.86,-5.39"
       style="fill:none;stroke:#263238;stroke-linecap:round;stroke-linejoin:round"
       id="path306" />
    <path
       d="m 156,300.57 c -4.1,4.6 -10.6,13.27 -17.26,14"
       style="fill:none;stroke:#263238;stroke-linecap:round;stroke-linejoin:round"
       id="path308" />
    <path
       d="m 162.27,293.09 c -1.26,1.59 -2.56,3.15 -3.88,4.7"
       style="fill:none;stroke:#263238;stroke-linecap:round;stroke-linejoin:round"
       id="path310" />
    <path
       d="m 156.43,346.91 c 0,0 -9.32,12.69 -14.43,13.42"
       style="fill:none;stroke:#263238;stroke-linecap:round;stroke-linejoin:round"
       id="path312" />
    <path
       d="m 167.39,294.55 c 0,0 16.6,46.23 22.37,50.79 0,0 0.65,34 0.84,45.87 0.19,11.87 2.92,27.65 2.92,27.65"
       style="fill:none;stroke:#263238;stroke-linecap:round;stroke-linejoin:round"
       id="path314" />
    <path
       d="m 211.24,418.52 c 0,0 -6.39,2.21 -9.5,3.62 a 8.59,8.59 0 0 0 -4.2,4.51"
       style="fill:none;stroke:#263238;stroke-linecap:round;stroke-linejoin:round"
       id="path316" />
    <path
       d="m 195.07,328.67 c -8.91,-5.59 -20.66,-12.58 -25.4,-22.43"
       style="fill:none;stroke:#263238;stroke-linecap:round;stroke-linejoin:round"
       id="path318" />
    <path
       d="m 202.84,333.28 c -1.69,-0.93 -3.35,-1.9 -5,-2.9"
       style="fill:none;stroke:#263238;stroke-linecap:round;stroke-linejoin:round"
       id="path320" />
    <path
       d="m 174.76,265.25 c -4.79,-0.07 -10,-0.7 -14.13,-3.41"
       style="fill:none;stroke:#263238;stroke-linecap:round;stroke-linejoin:round"
       id="path322" />
    <path
       d="m 182.37,264.8 c -1.37,0.19 -2.75,0.31 -4.13,0.38"
       style="fill:none;stroke:#263238;stroke-linecap:round;stroke-linejoin:round"
       id="path324" />
    <path
       d="m 191.26,158.64 c -3.66,-5.54 -22.31,-6.95 -34.28,-6.95 -11.97,0 -26.5,-2 -33.06,11.5 -5,10.31 6.52,64.83 6.52,64.83 l -2.82,23.54 c 21.68,6.8 58.82,5.3 58.82,5.3 l -5,-21.28 c 0,0 13.48,-71.41 9.82,-76.94 z"
       style="fill:#263238"
       id="path326" />
    <path
       d="m 149.87,138 c 0,0 1.61,12.83 -3.27,15.6 0,0 2.44,9.41 11,10 8.56,0.59 12.34,-8.6 12.34,-8.6 z"
       style="fill:#ffffff;stroke:#263238;stroke-linecap:round;stroke-linejoin:round"
       id="path328" />
    <path
       d="m 196,104 h 22 a 1.88,1.88 0 0 1 1.88,1.88 v 15.7 h -25.72 v -15.7 A 1.88,1.88 0 0 1 196,104 Z"
       transform="rotate(-5.27,207.11077,112.85314)"
       style="fill:#7f664c"
       id="path330" />
    <g
       clip-path="url(#freepik--clip-path-8--inject-87)"
       id="g336">
      <path
         d="m 196,104 h 22 a 1.88,1.88 0 0 1 1.88,1.88 v 15.7 h -25.72 v -15.7 A 1.88,1.88 0 0 1 196,104 Z"
         transform="rotate(-5.27,207.11077,112.85314)"
         style="opacity:0.3;fill-opacity:0.7"
         id="path332" />
      <rect
         x="212.05"
         y="104.87"
         width="6.3299999"
         height="12.66"
         transform="rotate(-5.27,215.34907,111.27255)"
         style="opacity:0.3;fill:#ffffff;fill-opacity:0.7"
         id="rect334" />
    </g>
    <path
       d="m 196,104 h 22 a 1.88,1.88 0 0 1 1.88,1.88 v 15.7 h -25.72 v -15.7 A 1.88,1.88 0 0 1 196,104 Z"
       transform="rotate(-5.27,207.11077,112.85314)"
       style="fill:none;stroke:#263238;stroke-linecap:round;stroke-linejoin:round"
       id="path338" />
    <path
       d="m 233.88,100.49 h 22 a 1.88,1.88 0 0 1 1.88,1.88 v 15.7 H 232 v -15.7 a 1.88,1.88 0 0 1 1.88,-1.88 z"
       transform="rotate(-5.27,244.94159,109.36823)"
       style="fill:#7f664c"
       id="path340" />
    <g
       clip-path="url(#freepik--clip-path-9--inject-87)"
       id="g346">
      <path
         d="m 233.88,100.49 h 22 a 1.88,1.88 0 0 1 1.88,1.88 v 15.7 H 232 v -15.7 a 1.88,1.88 0 0 1 1.88,-1.88 z"
         transform="rotate(-5.27,244.94159,109.36823)"
         style="opacity:0.3;fill-opacity:0.7"
         id="path342" />
      <rect
         x="251.98"
         y="101.31"
         width="3.8199999"
         height="12.66"
         transform="rotate(-5.27,254.05404,107.71899)"
         style="opacity:0.3;fill:#ffffff;fill-opacity:0.7"
         id="rect344" />
    </g>
    <path
       d="m 233.88,100.49 h 22 a 1.88,1.88 0 0 1 1.88,1.88 v 15.7 H 232 v -15.7 a 1.88,1.88 0 0 1 1.88,-1.88 z"
       transform="rotate(-5.27,244.94159,109.36823)"
       style="fill:none;stroke:#263238;stroke-linecap:round;stroke-linejoin:round"
       id="path348" />
    <path
       d="m 225.92,101.22 h 22 a 1.88,1.88 0 0 1 1.88,1.88 v 15.7 H 224 v -15.7 a 1.88,1.88 0 0 1 1.92,-1.88 z"
       transform="rotate(-5.27,236.96058,110.08967)"
       style="fill:#7f664c;stroke:#263238;stroke-linecap:round;stroke-linejoin:round"
       id="path350" />
    <path
       d="m 263.76,97.73 h 22 a 1.88,1.88 0 0 1 1.88,1.88 v 15.7 h -25.76 v -15.7 a 1.88,1.88 0 0 1 1.88,-1.88 z"
       transform="rotate(-5.27,274.7914,106.60476)"
       style="fill:#7f664c;stroke:#263238;stroke-linecap:round;stroke-linejoin:round"
       id="path352" />
    <rect
       x="241.92999"
       y="102.12"
       width="6.3299999"
       height="12.66"
       transform="rotate(-5.27,245.19888,108.50908)"
       style="opacity:0.3;fill:#ffffff;fill-opacity:0.7"
       id="rect354" />
    <rect
       x="279.35001"
       y="98.660004"
       width="6.3299999"
       height="12.66"
       transform="rotate(-5.27,282.59512,105.00417)"
       style="opacity:0.3;fill:#ffffff;fill-opacity:0.7"
       id="rect356" />
    <path
       d="M 299.21,109.42 305.85,181.3 190,192 183.4,120.1 a 4.55,4.55 0 0 1 4.11,-4.95 l 106.76,-9.85 a 4.54,4.54 0 0 1 4.94,4.12 z"
       style="fill:#7f664c"
       id="path358" />
    <g
       clip-path="url(#freepik--clip-path-10--inject-87)"
       id="g362">
      <path
         d="M 299.21,109.42 305.85,181.3 190,192 183.4,120.1 a 4.55,4.55 0 0 1 4.11,-4.95 l 106.76,-9.85 a 4.54,4.54 0 0 1 4.94,4.12 z"
         style="opacity:0.3;fill-opacity:0.7"
         id="path360" />
    </g>
    <path
       d="M 299.21,109.42 305.85,181.3 190,192 183.4,120.1 a 4.55,4.55 0 0 1 4.11,-4.95 l 106.76,-9.85 a 4.54,4.54 0 0 1 4.94,4.12 z"
       style="fill:none;stroke:#263238;stroke-linecap:round;stroke-linejoin:round"
       id="path364" />
    <path
       d="m 299.21,109.42 6.64,71.88 -86,7.93 -6.63,-71.88 a 4.55,4.55 0 0 1 4.11,-4.95 l 76.89,-7.1 a 4.54,4.54 0 0 1 4.99,4.12 z"
       style="fill:#7f664c;stroke:#263238;stroke-linecap:round;stroke-linejoin:round"
       id="path366" />
    <path
       d="m 293.64,112.51 -73.47,6.78 a 1.88,1.88 0 0 1 -2,-1.7 v 0 a 1.87,1.87 0 0 1 1.69,-2 l 73.47,-6.78 a 1.88,1.88 0 0 1 2,1.7 v 0 a 1.89,1.89 0 0 1 -1.69,2 z"
       style="opacity:0.3;fill:#ffffff;fill-opacity:0.7"
       id="path368" />
    <path
       d="m 164.54,112.56 c 0,0 -16.95,-3.4 -18.85,7.51 -1.9,10.91 4.31,15.55 4.31,15.55 z"
       style="fill:#263238"
       id="path370" />
    <path
       d="m 150,141.61 a 29.42,29.42 0 0 1 -0.87,-16.89 c 1.66,-7 10,-16.63 22.65,-7.88 6.51,4.51 6.91,14.3 4.88,23.26 -0.48,2.14 -0.12,4.23 -0.83,6.2 -2.5,6.9 -7.07,12.21 -9.57,12.33 -4.17,0.21 -12.51,-4.84 -12.17,-9.24"
       style="fill:#ffffff;stroke:#263238;stroke-linecap:round;stroke-linejoin:round"
       id="path372" />
    <path
       d="m 166.89,138.44 c 0,0 -3.37,-2.44 -6.61,-0.44"
       style="fill:none;stroke:#263238;stroke-linecap:round;stroke-linejoin:round"
       id="path374" />
    <path
       d="m 173.25,138 c 0,0 2.55,-2.34 4.21,-2"
       style="fill:none;stroke:#263238;stroke-linecap:round;stroke-linejoin:round"
       id="path376" />
    <path
       d="m 162.13,142.18 c 0,0.62 0.31,1.13 0.7,1.13 0.39,0 0.71,-0.51 0.71,-1.13 0,-0.62 -0.32,-1.12 -0.71,-1.12 -0.39,0 -0.7,0.5 -0.7,1.12 z"
       style="fill:#263238"
       id="path378" />
    <ellipse
       cx="173.25"
       cy="141.56"
       rx="0.70999998"
       ry="1.12"
       style="fill:#263238"
       id="ellipse380" />
    <path
       d="m 171.82,140.36 c -1.24,1.62 0.5,7.79 0,8.23 -0.5,0.44 -3.68,-0.81 -3.68,-0.81 0,0 -0.74,-0.94 0.81,-1.44"
       style="fill:none;stroke:#263238;stroke-linecap:round;stroke-linejoin:round"
       id="path382" />
    <path
       d="m 169,151.69 c 0,0 -4.27,0 -5.41,-1.56"
       style="fill:none;stroke:#263238;stroke-linecap:round;stroke-linejoin:round"
       id="path384" />
    <path
       d="m 158.78,128.58 -0.33,5.16 c 0,0 -3.66,1.89 -4.58,3.81 a 7.67,7.67 0 0 0 -0.58,4 c 0,0 -2.22,-3.88 -3.42,-3.56 -0.43,0.11 -0.43,1.74 -0.43,1.74 0,0 -5,-11.16 -0.48,-17.06 4.52,-5.9 9.82,5.91 9.82,5.91 z"
       style="fill:#757575;stroke:#263238;stroke-linecap:round;stroke-linejoin:round"
       id="path386" />
    <path
       d="m 151.73,140.44 c 0,0 -1,-3.75 -4.37,-4.74 -3.37,-0.99 -1.06,8 1.81,9.17 2.87,1.17 3.59,2 3.76,0.93"
       style="fill:#ffffff;stroke:#263238;stroke-linecap:round;stroke-linejoin:round"
       id="path388" />
    <path
       d="m 147.14,127.93 c -0.28,-0.38 -1.52,-10 4.83,-14.32 6.35,-4.32 17.08,-3.86 23.91,2.12 6.83,5.98 4.89,16.35 0,19.89 v -4.33 c 0,0 -2.25,4.34 -9,4.7 l 2.06,-3.18 c 0,0 -3.32,2 -9.17,1.83 0,0 2.75,-2.19 2.35,-4.14 0.01,0 -9.28,5.23 -14.98,-2.57 z"
       style="fill:#263238"
       id="path390" />
    <path
       d="m 148.33,162.61 c -4.68,0.56 -11.34,6.67 -7,17.52 2.77,6.88 25.53,2.79 25.53,2.79 8.44,-3.48 20.77,-16 29.82,-21.81 0,0 -1.91,-12 -4.11,-10.3 -10.23,7.83 -18.64,8.37 -32.91,15.23 0.03,-0.04 -8.39,-3.78 -11.33,-3.43 z"
       style="fill:#ffffff;stroke:#263238;stroke-linecap:round;stroke-linejoin:round"
       id="path392" />
    <path
       d="m 158.78,175.93 c -0.14,4.48 1.7,5.27 4.8,6.33"
       style="fill:#ffffff;stroke:#263238;stroke-linecap:round;stroke-linejoin:round"
       id="path394" />
    <path
       d="m 191.89,151.69 c 0.21,-0.65 4,-7.31 5.07,-9 1.07,-1.69 5.85,-3.22 7.7,-4.24 1.85,-1.02 2,-2.57 3,-1.46 1,1.11 0,3.64 -5.54,6.33 a 53.53,53.53 0 0 0 5.91,0 c 1.48,-0.22 2.8,-1.56 3.46,-0.63 0.66,0.93 0.79,2.6 -2.51,3.62 a 17.16,17.16 0 0 1 -4.88,1 34.26,34.26 0 0 1 4.75,1.38 c 0.53,0.39 1.32,1.3 2.11,1.44 0.79,0.14 1.65,1 0.2,2 a 3.6,3.6 0 0 1 -3.37,0.06 c 0,0 3.83,1.85 2.64,3 -1.19,1.15 -5,0.92 -5,0.92 0,0 -5.65,6.89 -10.43,5.45"
       style="fill:#ffffff;stroke:#263238;stroke-linecap:round;stroke-linejoin:round"
       id="path396" />
    <path
       d="M 198.66,142.68 A 1.8,1.8 0 0 1 200,144 c 0.33,1.18 1.3,1.25 1.89,2.57 0.59,1.32 0.42,3.36 1,4.06 0.58,0.7 0,3.65 0,3.65"
       style="fill:none;stroke:#263238;stroke-linecap:round;stroke-linejoin:round"
       id="path398" />
    <path
       d="m 149.31,161.76 c -2.45,-3.12 -7.95,-1.71 -7.95,-1.71"
       style="fill:none;stroke:#ffffff;stroke-linecap:round;stroke-linejoin:round"
       id="path400" />
    <path
       d="m 138.36,154.3 c 0,0 5.66,0.83 7.33,5.54"
       style="fill:none;stroke:#ffffff;stroke-linecap:round;stroke-linejoin:round"
       id="path402" />
    <path
       d="m 148.33,184.12 c 0,0 -5.52,4.27 -13.92,-1.86"
       style="fill:none;stroke:#ffffff;stroke-linecap:round;stroke-linejoin:round"
       id="path404" />
    <path
       d="m 141.36,185.41 c 0,0 -2.8,3.87 -9.62,3.82"
       style="fill:none;stroke:#ffffff;stroke-linecap:round;stroke-linejoin:round"
       id="path406" />
    <path
       d="m 176.44,234.1 c 0,0 -14.44,11.51 -29.11,10"
       style="fill:none;stroke:#ffffff;stroke-linecap:round;stroke-linejoin:round"
       id="path408" />
    <path
       d="m 137.41,208.81 c 0,0 22.41,16.44 39,17.49"
       style="fill:none;stroke:#ffffff;stroke-linecap:round;stroke-linejoin:round"
       id="path410" />
  </g>
  <g
     id="freepik--character-1--inject-87"
     transform="translate(-53.549999,-83.16)">
    <path
       d="m 138,330.51 a 17.09,17.09 0 0 1 12.65,-1.58 c 7.31,1.84 26.3,29 28.94,31.65 2.64,2.65 7.58,4 12.13,8.79 7.2,7.51 17.67,14.15 18.73,14.15 1.06,0 1.91,-0.66 3.23,-0.92 1.32,-0.26 11.54,-1.19 11.54,-1.19 0,0 3.43,0.76 0,2.23 -3.43,1.47 -3.17,2.78 -3.17,2.78 0,0 -0.69,1.11 0.69,2.17 1.38,1.06 2.19,0.48 4.16,3.27 1.97,2.79 -2.78,1.21 -2.78,1.21 0,0 1.05,3 -1.06,2.7 -2.11,-0.3 -0.26,2.93 -3.69,2.49 -3.43,-0.44 -10.77,-5.07 -12.61,-9.92 0,0 -29.94,-14.31 -34.42,-18 -4.48,-3.69 -23.34,-23.48 -24.63,-23.74"
       style="fill:#263238"
       id="path413" />
    <path
       d="m 216.33,357.31 h 22 a 1.88,1.88 0 0 1 1.88,1.88 v 15.7 h -25.76 v -15.7 a 1.88,1.88 0 0 1 1.88,-1.88 z"
       style="fill:#7f664c"
       id="path415" />
    <g
       clip-path="url(#freepik--clip-path-11--inject-87)"
       id="g421">
      <path
         d="m 216.33,357.31 h 22 a 1.88,1.88 0 0 1 1.88,1.88 v 15.7 h -25.76 v -15.7 a 1.88,1.88 0 0 1 1.88,-1.88 z"
         style="opacity:0.3;fill-opacity:0.7"
         id="path417" />
      <rect
         x="232.45"
         y="358.97"
         width="6.3299999"
         height="12.66"
         style="opacity:0.3;fill:#ffffff;fill-opacity:0.7"
         id="rect419" />
    </g>
    <path
       d="m 216.33,357.31 h 22 a 1.88,1.88 0 0 1 1.88,1.88 v 15.7 h -25.76 v -15.7 a 1.88,1.88 0 0 1 1.88,-1.88 z"
       style="fill:none;stroke:#263238;stroke-linecap:round;stroke-linejoin:round"
       id="path423" />
    <path
       d="m 254.33,357.31 h 22 a 1.88,1.88 0 0 1 1.88,1.88 v 15.7 h -25.76 v -15.7 a 1.88,1.88 0 0 1 1.88,-1.88 z"
       style="fill:#7f664c"
       id="path425" />
    <g
       clip-path="url(#freepik--clip-path-12--inject-87)"
       id="g431">
      <path
         d="m 254.33,357.31 h 22 a 1.88,1.88 0 0 1 1.88,1.88 v 15.7 h -25.76 v -15.7 a 1.88,1.88 0 0 1 1.88,-1.88 z"
         style="opacity:0.3;fill-opacity:0.7"
         id="path427" />
      <rect
         x="272.54001"
         y="358.97"
         width="3.8199999"
         height="12.66"
         style="opacity:0.3;fill:#ffffff;fill-opacity:0.7"
         id="rect429" />
    </g>
    <path
       d="m 254.33,357.31 h 22 a 1.88,1.88 0 0 1 1.88,1.88 v 15.7 h -25.76 v -15.7 a 1.88,1.88 0 0 1 1.88,-1.88 z"
       style="fill:none;stroke:#263238;stroke-linecap:round;stroke-linejoin:round"
       id="path433" />
    <path
       d="m 246.33,357.31 h 22 a 1.88,1.88 0 0 1 1.88,1.88 v 15.7 h -25.76 v -15.7 a 1.88,1.88 0 0 1 1.88,-1.88 z"
       style="fill:#7f664c;stroke:#263238;stroke-linecap:round;stroke-linejoin:round"
       id="path435" />
    <path
       d="m 284.33,357.31 h 22 a 1.88,1.88 0 0 1 1.88,1.88 v 15.7 h -25.76 v -15.7 a 1.88,1.88 0 0 1 1.88,-1.88 z"
       style="fill:#7f664c;stroke:#263238;stroke-linecap:round;stroke-linejoin:round"
       id="path437" />
    <rect
       x="262.45001"
       y="358.97"
       width="6.3299999"
       height="12.66"
       style="opacity:0.3;fill:#ffffff;fill-opacity:0.7"
       id="rect439" />
    <rect
       x="300.03"
       y="358.97"
       width="6.3299999"
       height="12.66"
       style="opacity:0.3;fill:#ffffff;fill-opacity:0.7"
       id="rect441" />
    <path
       d="m 319.42,371.23 v 72.19 H 203.11 v -72.19 a 4.55,4.55 0 0 1 4.55,-4.55 h 107.21 a 4.55,4.55 0 0 1 4.55,4.55 z"
       style="fill:#7f664c"
       id="path443" />
    <g
       clip-path="url(#freepik--clip-path-13--inject-87)"
       id="g447">
      <path
         d="m 319.42,371.23 v 72.19 H 203.11 v -72.19 a 4.55,4.55 0 0 1 4.55,-4.55 h 107.21 a 4.55,4.55 0 0 1 4.55,4.55 z"
         style="opacity:0.3;fill-opacity:0.7"
         id="path445" />
    </g>
    <path
       d="m 319.42,371.23 v 72.19 H 203.11 v -72.19 a 4.55,4.55 0 0 1 4.55,-4.55 h 107.21 a 4.55,4.55 0 0 1 4.55,4.55 z"
       style="fill:none;stroke:#263238;stroke-linecap:round;stroke-linejoin:round"
       id="path449" />
    <path
       d="m 319.42,371.23 v 72.19 h -86.31 v -72.19 a 4.55,4.55 0 0 1 4.55,-4.55 h 77.21 a 4.55,4.55 0 0 1 4.55,4.55 z"
       style="fill:#7f664c;stroke:#263238;stroke-linecap:round;stroke-linejoin:round"
       id="path451" />
    <path
       d="M 313.58,373.8 H 239.8 a 1.88,1.88 0 0 1 -1.88,-1.88 v 0 A 1.88,1.88 0 0 1 239.8,370 h 73.78 a 1.88,1.88 0 0 1 1.88,1.88 v 0 a 1.88,1.88 0 0 1 -1.88,1.92 z"
       style="opacity:0.3;fill:#ffffff;fill-opacity:0.7"
       id="path453" />
    <path
       d="m 177,443.42 c -6,0 -14.43,-3.86 -24.14,-7.94 -10.07,-4.24 -21.54,-8.72 -33.18,-9.39 -4.34,-0.25 -1.71,17.33 -1.71,17.33 h -9.5 c 0,0 -9.38,-12.52 -10.47,-23.73 0,0 7.66,-4.73 9.5,-5 a 16.76,16.76 0 0 1 1.91,-0.09 c 2.06,0 4.81,0.09 4.81,0.09 v 0 c -0.44,-0.26 -7.45,-4.48 -11.32,-8.77 -3.19,-3.54 -4.65,-9.13 -4.76,-12.47 a 61.16,61.16 0 0 1 0.73,-6.6 l 49.92,0.83 c 0,0 0.54,0.38 1.5,1.09 5.79,4.22 26.95,19.94 37.53,31.79 3.42,3.83 5.73,7.25 6.07,9.75 1.59,11.53 -7.84,13.11 -16.89,13.11 z"
       style="fill:#757575;stroke:#263238;stroke-linecap:round;stroke-linejoin:round"
       id="path455" />
    <path
       d="m 187.83,420.54 -24.28,5.55 a 35.81,35.81 0 0 0 -10.71,9.39 c -10.07,-4.24 -21.54,-8.72 -33.18,-9.39 -4.34,-0.25 -1.71,17.33 -1.71,17.33 h -9.5 c 0,0 -9.36,-12.52 -10.45,-23.73 0,0 8.84,12.6 11,19 0,0 3.43,-11.84 9,-16.59 a 45.66,45.66 0 0 0 -8.51,-7.47 c 2.06,0 4.81,0.09 4.81,0.09 v 0 c -0.44,-0.26 -7.45,-4.48 -11.32,-8.77 -3.19,-3.54 -4.48,-9.14 -4.76,-12.47 -0.14,-1.64 0.06,-6.6 0.06,-6.6 0,0 37.23,5.31 52.09,1.92 5.72,4.2 26.88,19.89 37.46,31.74 z"
       style="fill:#263238"
       id="path457" />
    <path
       d="m 148.8,419.69 c 0,0 19.78,9.91 25.06,13.79 5.28,3.88 6.85,2.83 6.85,2.83"
       style="fill:none;stroke:#263238;stroke-linecap:round;stroke-linejoin:round"
       id="path459" />
    <path
       d="m 102.91,418.64 c 0,0 4.75,7.25 5,9.42"
       style="fill:none;stroke:#263238;stroke-linecap:round;stroke-linejoin:round"
       id="path461" />
    <path
       d="m 182.47,279.48 c 0,0 10.53,-4.58 9.53,14.9 -1,19.48 2.57,20.48 2.57,20.48 0,0 -26.5,10.88 -33.23,1.58 -6.73,-9.3 -0.34,-34.75 21.13,-36.96 z"
       style="fill:#263238"
       id="path463" />
    <path
       d="m 181,314.86 c 0,0 -10.9,5.14 -11.89,9.89 -0.99,4.75 -14.64,-2.4 -14.64,-2.4 l 9.89,-14.22 z"
       style="fill:#ffffff;stroke:#263238;stroke-linecap:round;stroke-linejoin:round"
       id="path465" />
    <path
       d="m 109.53,367 c -25,31.84 -4.71,47.2 23.63,44.66 l -5.68,9 14.26,2.47 c 0,0 10.93,-7.14 25.83,-14.77 25.36,-13 35.61,-12.22 33,-25.23 -2.61,-13.01 -33.69,-21.45 -64.85,-7.74 -0.03,-0.01 -16.95,-20.11 -26.19,-8.39 z"
       style="fill:#757575;stroke:#263238;stroke-linecap:round;stroke-linejoin:round"
       id="path467" />
    <path
       d="m 118.25,436.31 c 0,0 6.51,-18 9.23,-19 2.72,-1 13,2.9 14.26,5.8 0,0 3.47,-5.32 4.89,-3.06 1.42,2.26 -0.63,6 0,8.86 0.63,2.86 7.66,6.86 10.47,7.39 2.81,0.53 4.41,2.11 4.41,3.69 v 3.43 h -43.26 a 9.05,9.05 0 0 1 0,-7.11 z"
       style="fill:#ffffff;stroke:#263238;stroke-linecap:round;stroke-linejoin:round"
       id="path469" />
    <path
       d="m 146.63,426.09 c 0,0 -5.73,2.83 -7.82,2 -2.09,-0.83 1.07,4.75 1.86,5.28 0.79,0.53 6,-1.85 6,-1.85"
       style="fill:none;stroke:#263238;stroke-linecap:round;stroke-linejoin:round"
       id="path471" />
    <path
       d="m 123.66,423.12 c 0,0 7.78,0.15 10.15,3"
       style="fill:none;stroke:#263238;stroke-linecap:round;stroke-linejoin:round"
       id="path473" />
    <path
       d="m 118.25,436.31 c 0,0 12.4,2.9 13.45,2.9 a 30.17,30.17 0 0 0 5,-1.45 c 0,0 3.4,1.71 5.66,2.77 2.26,1.06 17,0 17,0"
       style="fill:none;stroke:#263238;stroke-linecap:round;stroke-linejoin:round"
       id="path475" />
    <path
       d="M 133.16,411.68 C 145,410.4 168,395.81 176,390.74 184,385.67 186,387 186,387"
       style="fill:none;stroke:#263238;stroke-linecap:round;stroke-linejoin:round"
       id="path477" />
    <path
       d="m 98.21,386.83 1.89,-14.35 4.56,-3.44 c 7.39,-17.93 40.87,-51.42 50,-51.31 13.71,0.16 16.13,14.55 17.82,30.3 1.69,15.75 -19.67,13.38 -19.67,13.38 v 3.95 l -12.15,6.29 7.36,-0.23 c 0,0 -21.17,20.58 -49.81,15.41 z"
       style="fill:#7f664c;stroke:#263238;stroke-linecap:round;stroke-linejoin:round"
       id="path479" />
    <path
       d="m 157.55,290 c 2.87,-9 16,-11.4 20.72,-9.93 a 16.79,16.79 0 0 1 8.91,8.13 c 1.2,2.59 -1.31,7.17 0.48,9.84 2.56,3.83 2.34,11.91 1.42,17 -0.5,2.7 -11.73,4.3 -20.91,-2 -9.86,-6.82 -13.4,-14.38 -10.62,-23.04 z"
       style="fill:#ffffff;stroke:#263238;stroke-linecap:round;stroke-linejoin:round"
       id="path481" />
    <path
       d="m 170.82,277.38 c 0,0 11.56,-1.88 11.64,1.09 0.51,19.73 -11.32,23.87 -11.32,23.87 0,0 -4.83,-3.85 -5.91,-1.21 -1.08,2.64 1.7,9.94 5.12,10.09 a 7.82,7.82 0 0 0 -0.14,8.24 c 0,0 -19.58,3.27 -21.2,-5.8 a 71.4,71.4 0 0 0 1.62,-9.58 c 1.27,-12.71 -1.7,-21.26 20.19,-26.7 z"
       style="fill:#263238"
       id="path483" />
    <path
       d="m 186.26,297.49 c 2.41,2.17 4.14,2.17 4.11,2.95 -0.09,2.43 -3,3.64 -3,3.64"
       style="fill:#ffffff;stroke:#263238;stroke-linecap:round;stroke-linejoin:round"
       id="path485" />
    <path
       d="m 187.31,308.13 a 8.87,8.87 0 0 1 -5.27,0.13"
       style="fill:none;stroke:#263238;stroke-linecap:round;stroke-linejoin:round"
       id="path487" />
    <path
       d="m 180.9,285.38 c 0,0 7.69,-2.23 6.28,10.25 0,0 3.2,-4.35 3.19,-9.24 0,-8.47 -11.33,-6.77 -11.33,-6.77 l 1.48,6"
       style="fill:#263238"
       id="path489" />
    <path
       d="m 187.89,291.49 a 2.59,2.59 0 0 0 -2,-0.37"
       style="fill:none;stroke:#263238;stroke-linecap:round;stroke-linejoin:round"
       id="path491" />
    <path
       d="m 182.71,291.35 c 0,0 -4.13,0.24 -5.92,3"
       style="fill:none;stroke:#263238;stroke-linecap:round;stroke-linejoin:round"
       id="path493" />
    <path
       d="m 181.72,297.92 c 0.06,0.66 -0.22,1.23 -0.63,1.27 -0.41,0.04 -0.79,-0.47 -0.86,-1.13 -0.07,-0.66 0.22,-1.23 0.63,-1.27 0.41,-0.04 0.8,0.47 0.86,1.13 z"
       style="fill:#263238"
       id="path495" />
    <path
       d="m 133.81,414.68 c 0,0 9.2,1 11.2,5"
       style="fill:none;stroke:#263238;stroke-linecap:round;stroke-linejoin:round"
       id="path497" />
    <path
       d="m 157.1,324.48 a 17.09,17.09 0 0 1 12.65,-1.58 c 7.32,1.85 26.3,29 28.94,31.65 2.64,2.65 7.58,4 12.13,8.79 7.2,7.51 17.67,14.15 18.73,14.15 1.06,0 1.91,-0.66 3.23,-0.92 1.32,-0.26 11.54,-1.19 11.54,-1.19 0,0 3.43,0.77 0,2.23 -3.43,1.46 -3.17,2.79 -3.17,2.79 0,0 -0.68,1.1 0.69,2.16 1.37,1.06 2.19,0.48 4.16,3.27 1.97,2.79 -2.78,1.21 -2.78,1.21 0,0 1.05,3 -1.06,2.7 -2.11,-0.3 -0.26,2.93 -3.69,2.49 -3.43,-0.44 -10.77,-5.07 -12.61,-9.92 0,0 -29.94,-14.31 -34.42,-18 -4.48,-3.69 -23.32,-23.48 -24.65,-23.74"
       style="fill:#ffffff;stroke:#263238;stroke-linecap:round;stroke-linejoin:round"
       id="path499" />
    <path
       d="m 152.8,321.58 c 0,0 14.76,-3.95 19.91,-1.05 5.15,2.9 14.91,16.35 14.91,16.35 0,0 -11.9,10.65 -15.58,9.68 C 168.36,345.59 157.1,344 157.1,344"
       style="fill:#7f664c;stroke:#263238;stroke-linecap:round;stroke-linejoin:round"
       id="path501" />
    <path
       d="m 165.6,345.3 c 0,0 -5.35,2.94 -7.32,2.94"
       style="fill:none;stroke:#263238;stroke-linecap:round;stroke-linejoin:round"
       id="path503" />
    <path
       d="m 157.1,330.55 c 0.45,0.79 0.3,9.44 9.69,12.13"
       style="fill:none;stroke:#263238;stroke-linecap:round;stroke-linejoin:round"
       id="path505" />
    <path
       d="m 106.91,369.32 c 0,0 20,3.43 26.9,-2.64"
       style="fill:none;stroke:#263238;stroke-linecap:round;stroke-linejoin:round"
       id="path507" />
    <path
       d="m 140.65,371.65 c 0,0 -5,-0.88 -6.84,1.69 -1.84,2.57 -11.86,5 -11.86,5"
       style="fill:none;stroke:#263238;stroke-linecap:round;stroke-linejoin:round"
       id="path509" />
    <path
       d="m 100.45,390.74 c 0,0 -2.89,12.46 9.44,18"
       style="fill:none;stroke:#263238;stroke-linecap:round;stroke-linejoin:round"
       id="path511" />
    <path
       d="m 106.91,391.6 c 0,0 0.07,6.14 2,9.5 l 6.13,2 6.86,-3.82 c 0,0 -1.46,-7.85 -1.59,-9.44"
       style="fill:none;stroke:#263238;stroke-linecap:round;stroke-linejoin:round"
       id="path513" />
  </g>
</svg>
