<?xml version="1.0" encoding="UTF-8" standalone="no"?>
<svg
   xmlns:dc="http://purl.org/dc/elements/1.1/"
   xmlns:cc="http://creativecommons.org/ns#"
   xmlns:rdf="http://www.w3.org/1999/02/22-rdf-syntax-ns#"
   xmlns:svg="http://www.w3.org/2000/svg"
   xmlns="http://www.w3.org/2000/svg"
   xmlns:sodipodi="http://sodipodi.sourceforge.net/DTD/sodipodi-0.dtd"
   xmlns:inkscape="http://www.inkscape.org/namespaces/inkscape"
   viewBox="0 0 598.45001 426.50299"
   version="1.1"
   id="svg444"
   sodipodi:docname="topPic.svg"
   width="598.45001"
   height="426.50299"
   inkscape:version="1.0.2 (e86c870879, 2021-01-15, custom)">
  <metadata
     id="metadata450">
    <rdf:RDF>
      <cc:Work
         rdf:about="">
        <dc:format>image/svg+xml</dc:format>
        <dc:type
           rdf:resource="http://purl.org/dc/dcmitype/StillImage" />
        <dc:title></dc:title>
      </cc:Work>
    </rdf:RDF>
  </metadata>
  <defs
     id="defs448" />
  <sodipodi:namedview
     pagecolor="#ffffff"
     bordercolor="#666666"
     borderopacity="1"
     objecttolerance="10"
     gridtolerance="10"
     guidetolerance="10"
     inkscape:pageopacity="0"
     inkscape:pageshadow="2"
     inkscape:window-width="1920"
     inkscape:window-height="1001"
     id="namedview446"
     showgrid="false"
     inkscape:zoom="1.6033647"
     inkscape:cx="375"
     inkscape:cy="250"
     inkscape:window-x="-9"
     inkscape:window-y="-9"
     inkscape:window-maximized="1"
     inkscape:current-layer="svg444" />
  <g
     id="freepik--background-simple--inject-33"
     transform="translate(-92.19,-29.7)">
    <path
       d="M 405.27,140.27 C 379.56,135.38 371,123.64 352.44,110.13 333.34,96.23 314.08,82.24 292.52,72.23 270.96,62.22 246.67,56.36 223,59.71 c -43.67,6.18 -78.12,44.55 -85.15,86.56 -7.03,42.01 10.18,85.57 39,117.78 28.82,32.21 68.26,54.17 109.27,69.95 49,18.84 100.64,22.72 153.22,18.15 52.58,-4.57 101.84,-23.86 142.18,-55.67 28.29,-22.31 42,-60.3 39.48,-95.46 -2.52,-35.16 -27.88,-69.56 -63.52,-77.39 -25.42,-5.57 -51.65,2.23 -76.85,8.66 -25.2,6.43 -45,12.53 -75.36,8"
       style="fill:#ebebeb"
       id="path2" />
  </g>
  <g
     id="freepik--Bridge--inject-33"
     transform="translate(-92.19,-29.7)">
    <path
       d="m 645.65,310 c 0,0.44 -121.18,0.79 -270.64,0.79 -149.46,0 -270.66,-0.35 -270.66,-0.79 0,-0.44 121.15,-0.78 270.66,-0.78 149.51,0 270.64,0.31 270.64,0.78 z"
       style="fill:#263238"
       id="path5" />
    <path
       d="m 645.65,322.08 c 0,0.14 -121.18,0.26 -270.64,0.26 -149.46,0 -270.66,-0.12 -270.66,-0.26 0,-0.14 121.15,-0.26 270.66,-0.26 149.51,0 270.64,0.11 270.64,0.26 z"
       style="fill:#263238"
       id="path7" />
    <path
       d="m 137.83,384.4 c -0.43,0 -0.78,-16.89 -0.78,-37.71 0,-20.82 0.35,-37.71 0.78,-37.71 0.43,0 0.78,16.88 0.78,37.71 0,20.83 -0.35,37.71 -0.78,37.71 z"
       style="fill:#263238"
       id="path9" />
    <path
       d="m 153.22,384.4 c -0.15,0 -0.26,-16.89 -0.26,-37.71 0,-20.82 0.11,-37.71 0.26,-37.71 0.15,0 0.26,16.88 0.26,37.71 0,20.83 -0.12,37.71 -0.26,37.71 z"
       style="fill:#263238"
       id="path11" />
    <path
       d="m 168.6,384.4 c -0.14,0 -0.26,-16.89 -0.26,-37.71 0,-20.82 0.12,-37.71 0.26,-37.71 0.14,0 0.26,16.88 0.26,37.71 0,20.83 -0.11,37.71 -0.26,37.71 z"
       style="fill:#263238"
       id="path13" />
    <path
       d="m 184,384.4 c -0.15,0 -0.26,-16.89 -0.26,-37.71 0,-20.82 0.1,-37.69 0.26,-37.69 0.16,0 0.26,16.88 0.26,37.71 0,20.83 -0.13,37.69 -0.26,37.69 z"
       style="fill:#263238"
       id="path15" />
    <path
       d="m 199.38,384.4 c -0.15,0 -0.27,-16.89 -0.27,-37.71 0,-20.82 0.12,-37.71 0.27,-37.71 0.15,0 0.26,16.88 0.26,37.71 0,20.83 -0.12,37.71 -0.26,37.71 z"
       style="fill:#263238"
       id="path17" />
    <path
       d="m 214.76,384.4 c -0.43,0 -0.78,-16.89 -0.78,-37.71 0,-20.82 0.35,-37.71 0.78,-37.71 0.43,0 0.78,16.88 0.78,37.71 0,20.83 -0.35,37.71 -0.78,37.71 z"
       style="fill:#263238"
       id="path19" />
    <path
       d="m 230.15,384.4 c -0.15,0 -0.26,-16.89 -0.26,-37.71 0,-20.82 0.11,-37.69 0.26,-37.69 0.15,0 0.26,16.88 0.26,37.71 0,20.83 -0.12,37.69 -0.26,37.69 z"
       style="fill:#263238"
       id="path21" />
    <path
       d="m 245.53,384.4 c -0.14,0 -0.26,-16.89 -0.26,-37.71 0,-20.82 0.12,-37.71 0.26,-37.71 0.14,0 0.26,16.88 0.26,37.71 0,20.83 -0.11,37.71 -0.26,37.71 z"
       style="fill:#263238"
       id="path23" />
    <path
       d="m 260.92,384.4 c -0.14,0 -0.26,-16.89 -0.26,-37.71 0,-20.82 0.12,-37.71 0.26,-37.71 0.14,0 0.26,16.88 0.26,37.71 0,20.83 -0.12,37.71 -0.26,37.71 z"
       style="fill:#263238"
       id="path25" />
    <path
       d="m 276.31,384.4 c -0.15,0 -0.26,-16.89 -0.26,-37.71 0,-20.82 0.11,-37.71 0.26,-37.71 0.15,0 0.26,16.88 0.26,37.71 0,20.83 -0.12,37.71 -0.26,37.71 z"
       style="fill:#263238"
       id="path27" />
    <path
       d="m 291.69,384.4 c -0.43,0 -0.78,-16.89 -0.78,-37.71 0,-20.82 0.35,-37.71 0.78,-37.71 0.43,0 0.79,16.88 0.79,37.71 0,20.83 -0.35,37.71 -0.79,37.71 z"
       style="fill:#263238"
       id="path29" />
    <path
       d="m 307.08,384.4 c -0.14,0 -0.26,-16.89 -0.26,-37.71 0,-20.82 0.12,-37.71 0.26,-37.71 0.14,0 0.26,16.88 0.26,37.71 0,20.83 -0.12,37.71 -0.26,37.71 z"
       style="fill:#263238"
       id="path31" />
    <path
       d="m 322.47,384.4 c -0.15,0 -0.26,-16.89 -0.26,-37.71 0,-20.82 0.11,-37.71 0.26,-37.71 0.15,0 0.26,16.88 0.26,37.71 0,20.83 -0.12,37.71 -0.26,37.71 z"
       style="fill:#263238"
       id="path33" />
    <path
       d="m 337.85,384.4 c -0.14,0 -0.26,-16.89 -0.26,-37.71 0,-20.82 0.12,-37.71 0.26,-37.71 0.14,0 0.26,16.88 0.26,37.71 0,20.83 -0.11,37.71 -0.26,37.71 z"
       style="fill:#263238"
       id="path35" />
    <path
       d="m 353.24,384.4 c -0.14,0 -0.26,-16.89 -0.26,-37.71 0,-20.82 0.12,-37.71 0.26,-37.71 0.14,0 0.26,16.88 0.26,37.71 0,20.83 -0.12,37.71 -0.26,37.71 z"
       style="fill:#263238"
       id="path37" />
    <path
       d="m 368.63,384.4 c -0.44,0 -0.78,-16.89 -0.78,-37.71 0,-20.82 0.34,-37.71 0.78,-37.71 0.44,0 0.78,16.88 0.78,37.71 0,20.83 -0.35,37.71 -0.78,37.71 z"
       style="fill:#263238"
       id="path39" />
    <path
       d="m 384,384.4 c -0.14,0 -0.26,-16.89 -0.26,-37.71 0,-20.82 0.13,-37.69 0.26,-37.69 0.13,0 0.26,16.88 0.26,37.71 0,20.83 -0.1,37.69 -0.26,37.69 z"
       style="fill:#263238"
       id="path41" />
    <path
       d="m 399.4,384.4 c -0.14,0 -0.26,-16.89 -0.26,-37.71 0,-20.82 0.12,-37.71 0.26,-37.71 0.14,0 0.26,16.88 0.26,37.71 0,20.83 -0.12,37.71 -0.26,37.71 z"
       style="fill:#263238"
       id="path43" />
    <path
       d="m 414.79,384.4 c -0.15,0 -0.26,-16.89 -0.26,-37.71 0,-20.82 0.11,-37.71 0.26,-37.71 0.15,0 0.26,16.88 0.26,37.71 0,20.83 -0.12,37.71 -0.26,37.71 z"
       style="fill:#263238"
       id="path45" />
    <path
       d="m 430.17,384.4 c -0.14,0 -0.26,-16.89 -0.26,-37.71 0,-20.82 0.09,-37.69 0.26,-37.69 0.17,0 0.26,16.88 0.26,37.71 0,20.83 -0.11,37.69 -0.26,37.69 z"
       style="fill:#263238"
       id="path47" />
    <path
       d="m 445.56,384.4 c -0.43,0 -0.78,-16.89 -0.78,-37.71 0,-20.82 0.35,-37.71 0.78,-37.71 0.43,0 0.78,16.88 0.78,37.71 0,20.83 -0.34,37.71 -0.78,37.71 z"
       style="fill:#263238"
       id="path49" />
    <path
       d="m 461,384.4 c -0.15,0 -0.27,-16.89 -0.27,-37.71 0,-20.82 0.07,-37.69 0.27,-37.69 0.2,0 0.26,16.88 0.26,37.71 0,20.83 -0.17,37.69 -0.26,37.69 z"
       style="fill:#263238"
       id="path51" />
    <path
       d="m 476.33,384.4 c -0.14,0 -0.26,-16.89 -0.26,-37.71 0,-20.82 0.12,-37.71 0.26,-37.71 0.14,0 0.26,16.88 0.26,37.71 0,20.83 -0.11,37.71 -0.26,37.71 z"
       style="fill:#263238"
       id="path53" />
    <path
       d="m 491.72,384.4 c -0.15,0 -0.26,-16.89 -0.26,-37.71 0,-20.82 0.11,-37.71 0.26,-37.71 0.15,0 0.26,16.88 0.26,37.71 0,20.83 -0.12,37.71 -0.26,37.71 z"
       style="fill:#263238"
       id="path55" />
    <path
       d="m 507.1,384.4 c -0.14,0 -0.26,-16.89 -0.26,-37.71 0,-20.82 0.16,-37.69 0.26,-37.69 0.1,0 0.26,16.88 0.26,37.71 0,20.83 -0.11,37.69 -0.26,37.69 z"
       style="fill:#263238"
       id="path57" />
    <path
       d="m 522.49,384.4 c -0.43,0 -0.78,-16.89 -0.78,-37.71 0,-20.82 0.35,-37.71 0.78,-37.71 0.43,0 0.78,16.88 0.78,37.71 0,20.83 -0.35,37.71 -0.78,37.71 z"
       style="fill:#263238"
       id="path59" />
    <path
       d="m 537.88,384.4 c -0.15,0 -0.26,-16.89 -0.26,-37.71 0,-20.82 0.11,-37.71 0.26,-37.71 0.15,0 0.26,16.88 0.26,37.71 0,20.83 -0.14,37.71 -0.26,37.71 z"
       style="fill:#263238"
       id="path61" />
    <path
       d="m 553.26,384.4 c -0.14,0 -0.26,-16.89 -0.26,-37.71 0,-20.82 0.12,-37.71 0.26,-37.71 0.14,0 0.26,16.88 0.26,37.71 0,20.83 -0.11,37.71 -0.26,37.71 z"
       style="fill:#263238"
       id="path63" />
    <path
       d="m 568.65,384.4 c -0.14,0 -0.26,-16.89 -0.26,-37.71 0,-20.82 0.12,-37.71 0.26,-37.71 0.14,0 0.26,16.88 0.26,37.71 0,20.83 -0.12,37.71 -0.26,37.71 z"
       style="fill:#263238"
       id="path65" />
    <path
       d="m 584,384.4 c -0.15,0 -0.26,-16.89 -0.26,-37.71 0,-20.82 0.15,-37.69 0.26,-37.69 0.11,0 0.26,16.88 0.26,37.71 0,20.83 -0.08,37.69 -0.26,37.69 z"
       style="fill:#263238"
       id="path67" />
    <path
       d="m 599.42,384.4 c -0.43,0 -0.78,-16.89 -0.78,-37.71 0,-20.82 0.36,-37.69 0.78,-37.69 0.42,0 0.78,16.88 0.78,37.71 0,20.83 -0.35,37.69 -0.78,37.69 z"
       style="fill:#263238"
       id="path69" />
    <rect
       x="104.35"
       y="382.62"
       width="541.31"
       height="12.62"
       style="fill:#263238"
       id="rect71" />
    <path
       d="m 621.51,262.81 c 0,0 -0.41,0 -1.21,0.08 l -3.55,0.18 -13.63,0.63 -50.12,2.24 -34.63,1.52 c -12.44,0.53 -25.76,1.07 -39.77,0.91 -14.01,-0.16 -28.71,-1.1 -43.91,-2.17 -15.2,-1.07 -31,-2 -47.11,-2.8 -32.3,-1.43 -63.11,-2 -91.13,-2 -28.02,0 -53.25,0.22 -74.44,0.55 l -50.18,0.92 -13.64,0.26 -3.55,0.05 h -1.21 c 0,0 0.41,0 1.21,-0.05 l 3.55,-0.11 13.64,-0.35 c 11.85,-0.29 29,-0.71 50.18,-1.09 21.18,-0.38 46.42,-0.72 74.44,-0.66 28.02,0.06 58.84,0.58 91.16,2 16.15,0.77 31.91,1.71 47.11,2.81 15.2,1.1 29.88,2 43.88,2.2 14,0.2 27.31,-0.35 39.76,-0.86 l 34.64,-1.5 50.15,-2.07 13.64,-0.53 3.55,-0.13 c 0.76,-0.03 1.17,-0.03 1.17,-0.03 z"
       style="fill:#455a64"
       id="path73" />
    <path
       d="m 352.61,171.91 c -27,0 -50.19,-7.36 -68.84,-21.86 C 268.86,138.45 256.77,122.28 247.9,102 232.79,67.5 232.12,32.54 232.11,32.19 h 1 c 0,0.35 0.68,35.13 15.72,69.44 8.82,20.13 20.79,36.16 35.57,47.65 18.46,14.36 41.41,21.64 68.21,21.64 24.42,0 45.88,-7.28 63.81,-21.64 14.35,-11.49 26.49,-27.53 36.07,-47.67 16.33,-34.32 19.59,-69.11 19.62,-69.46 l 1,0.09 c 0,0.35 -3.31,35.29 -19.71,69.78 -9.64,20.28 -21.87,36.44 -36.34,48 -18.06,14.53 -39.79,21.89 -64.45,21.89 z"
       style="fill:#ea9034"
       id="path75" />
    <polygon
       points="221,184.99 217.35,184.99 217.35,295.37 241.04,295.37 242.2,185.36 239.03,185 239.03,116.8 236.91,116.8 236.74,73.92 233.79,73.92 233.39,29.7 225.11,29.7 225.11,73.71 222.82,73.71 222.82,117.03 221,117.03 "
       style="fill:#ea9034"
       id="polygon77" />
    <g
       style="opacity:0.2"
       id="g81">
      <polygon
         points="221,184.99 217.35,184.99 217.35,295.37 241.04,295.37 242.2,185.36 239.03,185 239.03,116.8 236.91,116.8 236.74,73.92 233.79,73.92 233.39,29.7 225.11,29.7 225.11,73.71 222.82,73.71 222.82,117.03 221,117.03 "
         id="polygon79" />
    </g>
    <polygon
       points="212.67,184.99 209.03,184.99 209.03,295.37 232.71,295.37 233.88,185.36 230.7,185 230.7,116.8 228.59,116.8 228.41,73.92 225.46,73.92 225.06,29.7 216.78,29.7 216.78,73.71 214.5,73.71 214.5,117.03 212.67,117.03 "
       style="fill:#ea9034"
       id="polygon83" />
    <polygon
       points="272.63,78.36 272.63,88.89 232.72,88.89 232.61,78.36 "
       style="fill:#ea9034"
       id="polygon85" />
    <polygon
       points="275.43,123.7 275.43,134.24 235.53,134.24 235.42,123.7 "
       style="fill:#ea9034"
       id="polygon87" />
    <polygon
       points="275.43,171.41 275.43,181.94 235.53,181.94 235.42,171.41 "
       style="fill:#ea9034"
       id="polygon89" />
    <rect
       x="184.85001"
       y="295.07001"
       width="131.47"
       height="6.3600001"
       style="fill:#263238"
       id="rect91" />
    <polygon
       points="472.16,184.99 468.51,184.99 468.51,295.37 492.2,295.37 493.36,185.36 490.19,185 490.19,116.8 488.07,116.8 487.9,73.92 484.95,73.92 484.55,29.7 476.26,29.7 476.26,73.71 473.98,73.71 473.98,117.03 472.16,117.03 "
       style="fill:#ea9034"
       id="polygon93" />
    <g
       style="opacity:0.2"
       id="g97">
      <polygon
         points="472.16,184.99 468.51,184.99 468.51,295.37 492.2,295.37 493.36,185.36 490.19,185 490.19,116.8 488.07,116.8 487.9,73.92 484.95,73.92 484.55,29.7 476.26,29.7 476.26,73.71 473.98,73.71 473.98,117.03 472.16,117.03 "
         id="polygon95" />
    </g>
    <polygon
       points="463.83,184.99 460.18,184.99 460.18,295.37 483.87,295.37 485.03,185.36 481.86,185 481.86,116.8 479.74,116.8 479.57,73.92 476.62,73.92 476.22,29.7 467.94,29.7 467.94,73.71 465.66,73.71 465.66,117.03 463.83,117.03 "
       style="fill:#ea9034"
       id="polygon99" />
    <polygon
       points="523.78,78.36 523.78,88.89 483.88,88.89 483.77,78.36 "
       style="fill:#ea9034"
       id="polygon101" />
    <polygon
       points="526.59,123.7 526.59,134.24 486.69,134.24 486.58,123.7 "
       style="fill:#ea9034"
       id="polygon103" />
    <polygon
       points="526.59,171.41 526.59,181.94 486.69,181.94 486.58,171.41 "
       style="fill:#ea9034"
       id="polygon105" />
    <rect
       x="436.01001"
       y="295.07001"
       width="131.47"
       height="6.3600001"
       style="fill:#263238"
       id="rect107" />
    <path
       d="m 407.53,178.85 c -27,0 -50.19,-7.35 -68.84,-21.86 -14.91,-11.6 -27,-27.76 -35.86,-48.05 C 287.71,74.44 287,39.49 287,39.14 h 1 c 0,0.35 0.67,35.13 15.71,69.45 8.82,20.12 20.79,36.15 35.57,47.64 18.47,14.36 41.42,21.64 68.21,21.64 24.42,0 45.89,-7.28 63.81,-21.63 14.36,-11.5 26.49,-27.54 36.07,-47.67 C 523.74,74.22 527,39.43 527,39.09 l 1,0.08 c 0,0.35 -3.3,35.3 -19.71,69.79 -9.64,20.27 -21.87,36.43 -36.34,48 -18.08,14.54 -39.76,21.89 -64.42,21.89 z"
       style="fill:#ea9034"
       id="path109" />
    <path
       d="m 250.68,212.86 c 0,0 -0.11,-0.06 -0.29,-0.21 l -0.82,-0.69 -3.07,-2.64 -10.82,-9.5 H 236 l -13.67,12.32 -1,0.9 -0.17,0.16 L 221,213 208.17,200.19 h 0.29 l -10.07,9.21 -2.89,2.6 -0.76,0.66 a 1.32,1.32 0 0 1 -0.27,0.21 1.69,1.69 0 0 1 0.23,-0.25 c 0.18,-0.19 0.42,-0.42 0.71,-0.71 l 2.77,-2.64 9.95,-9.33 0.14,-0.14 0.15,0.14 12.87,12.76 H 221 l 1,-0.9 13.72,-12.28 0.14,-0.13 0.14,0.13 10.71,9.63 3,2.73 c 0.32,0.3 0.58,0.54 0.78,0.74 a 1.73,1.73 0 0 1 0.19,0.24 z"
       style="fill:#ea9034"
       id="path111" />
    <path
       d="m 248.58,213.63 a 54.16,54.16 0 0 1 -0.25,-7.37 54.16,54.16 0 0 1 0.25,-7.37 57.34,57.34 0 0 1 0.24,7.37 57.34,57.34 0 0 1 -0.24,7.37 z"
       style="fill:#ea9034"
       id="path113" />
    <path
       d="m 304.91,212.86 a 1.23,1.23 0 0 1 -0.3,-0.21 l -0.82,-0.69 -3.07,-2.64 -10.82,-9.5 h 0.28 l -13.67,12.32 -1,0.9 -0.17,0.16 -0.16,-0.16 -12.82,-12.81 h 0.28 l -10.07,9.21 c -1.19,1.08 -2.15,1.93 -2.84,2.55 l -0.76,0.66 q -0.26,0.22 -0.27,0.21 a 1.69,1.69 0 0 1 0.23,-0.25 l 0.72,-0.71 2.76,-2.64 10,-9.33 0.15,-0.14 0.14,0.14 12.87,12.76 h -0.33 l 1,-0.9 13.66,-12.29 0.14,-0.13 0.14,0.13 10.71,9.63 3,2.73 0.77,0.74 a 2.42,2.42 0 0 1 0.25,0.26 z"
       style="fill:#ea9034"
       id="path115" />
    <path
       d="m 302.8,213.63 a 57.34,57.34 0 0 1 -0.24,-7.37 57.34,57.34 0 0 1 0.24,-7.37 57.34,57.34 0 0 1 0.24,7.37 57.34,57.34 0 0 1 -0.24,7.37 z"
       style="fill:#ea9034"
       id="path117" />
    <path
       d="m 359.77,212.86 a 1.73,1.73 0 0 1 -0.29,-0.21 l -0.82,-0.69 -3.07,-2.64 -10.82,-9.5 h 0.28 l -13.67,12.32 -1,0.9 -0.17,0.16 L 330,213 317.17,200.19 h 0.29 l -10.07,9.21 c -1.19,1.08 -2.15,1.93 -2.84,2.55 l -0.76,0.66 q -0.25,0.22 -0.27,0.21 a 1.69,1.69 0 0 1 0.23,-0.25 l 0.72,-0.71 2.76,-2.64 10,-9.33 0.14,-0.14 0.15,0.14 12.87,12.76 h -0.33 l 1,-0.9 13.71,-12.28 0.14,-0.13 0.14,0.13 10.71,9.63 3,2.73 0.77,0.74 a 1.23,1.23 0 0 1 0.24,0.29 z"
       style="fill:#ea9034"
       id="path119" />
    <path
       d="m 357.67,213.63 a 55.25,55.25 0 0 1 -0.24,-7.37 55.25,55.25 0 0 1 0.24,-7.37 57.34,57.34 0 0 1 0.24,7.37 57.34,57.34 0 0 1 -0.24,7.37 z"
       style="fill:#ea9034"
       id="path121" />
    <path
       d="m 414.24,212.86 a 1.23,1.23 0 0 1 -0.3,-0.21 l -0.82,-0.69 -3.07,-2.64 -10.82,-9.5 h 0.28 l -13.67,12.32 -1,0.9 -0.17,0.16 -0.16,-0.16 -12.82,-12.81 H 372 l -10.07,9.21 c -1.19,1.08 -2.15,1.93 -2.84,2.55 l -0.76,0.66 q -0.26,0.22 -0.27,0.21 a 1.69,1.69 0 0 1 0.23,-0.25 l 0.72,-0.71 2.76,-2.64 9.95,-9.33 0.15,-0.14 0.14,0.14 12.87,12.76 h -0.33 l 1,-0.9 13.71,-12.28 0.14,-0.13 0.14,0.13 10.71,9.63 3,2.73 0.77,0.74 a 2.42,2.42 0 0 1 0.22,0.25 z"
       style="fill:#ea9034"
       id="path123" />
    <path
       d="m 412.13,213.63 a 57.34,57.34 0 0 1 -0.24,-7.37 57.34,57.34 0 0 1 0.24,-7.37 57.34,57.34 0 0 1 0.24,7.37 57.34,57.34 0 0 1 -0.24,7.37 z"
       style="fill:#ea9034"
       id="path125" />
    <path
       d="m 384.78,213.63 a 57.34,57.34 0 0 1 -0.24,-7.37 57.34,57.34 0 0 1 0.24,-7.37 57.34,57.34 0 0 1 0.24,7.37 57.34,57.34 0 0 1 -0.24,7.37 z"
       style="fill:#ea9034"
       id="path127" />
    <path
       d="m 467.83,212.86 c 0,0 -0.11,-0.06 -0.29,-0.21 l -0.82,-0.69 -3.07,-2.64 -10.82,-9.5 h 0.28 l -13.67,12.32 -1,0.9 -0.17,0.16 -0.16,-0.16 -12.83,-12.81 h 0.29 l -10.07,9.21 -2.85,2.56 -0.76,0.66 c -0.17,0.15 -0.27,0.22 -0.28,0.21 l 0.24,-0.25 c 0.18,-0.19 0.42,-0.42 0.71,-0.71 l 2.77,-2.64 9.95,-9.33 0.14,-0.14 0.14,0.14 12.88,12.76 h -0.33 l 1,-0.9 13.72,-12.28 0.14,-0.13 0.14,0.13 10.71,9.63 3,2.73 c 0.32,0.3 0.58,0.54 0.78,0.74 a 1.73,1.73 0 0 1 0.23,0.24 z"
       style="fill:#ea9034"
       id="path129" />
    <path
       d="m 465.72,213.63 a 57.34,57.34 0 0 1 -0.24,-7.37 57.34,57.34 0 0 1 0.24,-7.37 54.16,54.16 0 0 1 0.25,7.37 54.16,54.16 0 0 1 -0.25,7.37 z"
       style="fill:#ea9034"
       id="path131" />
    <path
       d="m 438.38,213.63 a 54.16,54.16 0 0 1 -0.25,-7.37 54.16,54.16 0 0 1 0.25,-7.37 57.34,57.34 0 0 1 0.24,7.37 57.34,57.34 0 0 1 -0.24,7.37 z"
       style="fill:#ea9034"
       id="path133" />
    <path
       d="m 521.43,212.86 a 1.23,1.23 0 0 1 -0.3,-0.21 l -0.82,-0.69 -3.06,-2.64 -10.83,-9.5 h 0.28 l -13.7,12.32 -1,0.9 -0.18,0.16 -0.16,-0.16 -12.82,-12.81 h 0.29 l -10.07,9.21 -2.81,2.56 -0.76,0.66 c -0.18,0.15 -0.27,0.22 -0.28,0.21 a 1.69,1.69 0 0 1 0.23,-0.25 l 0.72,-0.71 2.76,-2.64 9.95,-9.33 0.15,-0.14 0.14,0.14 12.84,12.75 h -0.33 l 1,-0.9 13.71,-12.28 0.14,-0.13 0.14,0.13 10.71,9.63 3,2.73 0.78,0.74 a 1.73,1.73 0 0 1 0.28,0.25 z"
       style="fill:#ea9034"
       id="path135" />
    <path
       d="m 519.32,213.63 a 57.34,57.34 0 0 1 -0.24,-7.37 57.34,57.34 0 0 1 0.24,-7.37 57.34,57.34 0 0 1 0.24,7.37 57.34,57.34 0 0 1 -0.24,7.37 z"
       style="fill:#ea9034"
       id="path137" />
    <path
       d="m 492,213.63 a 57.34,57.34 0 0 1 -0.24,-7.37 57.34,57.34 0 0 1 0.24,-7.37 57.34,57.34 0 0 1 0.24,7.37 57.34,57.34 0 0 1 -0.24,7.37 z"
       style="fill:#ea9034"
       id="path139" />
    <path
       d="m 575,212.86 a 1.73,1.73 0 0 1 -0.29,-0.21 l -0.82,-0.69 -3.07,-2.64 -10.82,-9.5 h 0.28 l -13.67,12.32 -1,0.9 -0.17,0.16 -0.16,-0.16 -12.83,-12.81 h 0.29 l -10.07,9.21 c -1.19,1.08 -2.15,1.93 -2.84,2.55 l -0.76,0.66 a 1.32,1.32 0 0 1 -0.27,0.21 1.69,1.69 0 0 1 0.23,-0.25 l 0.72,-0.71 2.76,-2.64 10,-9.33 0.14,-0.14 0.15,0.14 12.87,12.76 h -0.33 l 1,-0.9 13.66,-12.29 0.14,-0.13 0.14,0.13 10.72,9.63 3,2.73 0.77,0.74 a 1.23,1.23 0 0 1 0.23,0.26 z"
       style="fill:#ea9034"
       id="path141" />
    <path
       d="m 572.92,213.63 a 55.25,55.25 0 0 1 -0.24,-7.37 55.25,55.25 0 0 1 0.24,-7.37 57.34,57.34 0 0 1 0.24,7.37 57.34,57.34 0 0 1 -0.24,7.37 z"
       style="fill:#ea9034"
       id="path143" />
    <path
       d="m 545.57,213.63 a 55.25,55.25 0 0 1 -0.24,-7.37 55.25,55.25 0 0 1 0.24,-7.37 57.34,57.34 0 0 1 0.24,7.37 57.34,57.34 0 0 1 -0.24,7.37 z"
       style="fill:#ea9034"
       id="path145" />
    <path
       d="m 599.06,212.86 a 7,7 0 0 1 -1.08,-0.93 l -2.8,-2.68 c -2.35,-2.28 -5.58,-5.46 -9.14,-9 h 0.33 l -0.25,0.23 c -3.74,3.47 -7.15,6.58 -9.63,8.82 l -3,2.64 a 7,7 0 0 1 -1.13,0.91 10.55,10.55 0 0 1 1,-1.05 l 2.86,-2.75 c 2.42,-2.3 5.79,-5.46 9.53,-8.92 l 0.25,-0.24 0.17,-0.15 0.17,0.16 c 3.56,3.54 6.75,6.76 9,9.1 l 2.7,2.79 a 9.54,9.54 0 0 1 1.02,1.07 z"
       style="fill:#ea9034"
       id="path147" />
    <path
       d="m 599.16,213.63 a 57.34,57.34 0 0 1 -0.24,-7.37 57.34,57.34 0 0 1 0.24,-7.37 54.16,54.16 0 0 1 0.25,7.37 54.16,54.16 0 0 1 -0.25,7.37 z"
       style="fill:#ea9034"
       id="path149" />
    <path
       d="m 330.7,213.63 a 57.34,57.34 0 0 1 -0.24,-7.37 57.34,57.34 0 0 1 0.24,-7.37 57.34,57.34 0 0 1 0.24,7.37 57.34,57.34 0 0 1 -0.24,7.37 z"
       style="fill:#ea9034"
       id="path151" />
    <path
       d="m 144.28,213.63 a 57.34,57.34 0 0 1 -0.24,-7.37 57.34,57.34 0 0 1 0.24,-7.37 57.34,57.34 0 0 1 0.24,7.37 57.34,57.34 0 0 1 -0.24,7.37 z"
       style="fill:#ea9034"
       id="path153" />
    <rect
       x="140.55"
       y="198.81"
       width="464.75"
       height="3.95"
       style="fill:#ea9034"
       id="rect155" />
    <rect
       x="140.55"
       y="210.89"
       width="464.75"
       height="3.95"
       style="fill:#ea9034"
       id="rect157" />
    <path
       d="m 198.16,212.86 a 1.23,1.23 0 0 1 -0.3,-0.21 L 197,212 l -3,-2.68 -10.83,-9.5 h 0.29 l -13.68,12.32 -1,0.9 -0.17,0.16 -0.16,-0.16 -12.85,-12.81 h 0.29 l -10.07,9.21 -2.82,2.56 -0.76,0.66 c -0.18,0.15 -0.27,0.22 -0.28,0.21 a 3.07,3.07 0 0 1 0.23,-0.25 l 0.72,-0.71 2.76,-2.64 9.95,-9.33 0.15,-0.14 0.14,0.14 12.88,12.76 h -0.34 c 0.34,-0.29 0.67,-0.6 1,-0.9 l 13.71,-12.28 0.15,-0.13 0.14,0.13 10.7,9.63 3,2.73 c 0.32,0.3 0.58,0.54 0.78,0.74 a 1.73,1.73 0 0 1 0.23,0.24 z"
       style="fill:#ea9034"
       id="path159" />
    <path
       d="m 169.09,213.63 a 57.34,57.34 0 0 1 -0.24,-7.37 57.34,57.34 0 0 1 0.24,-7.37 57.34,57.34 0 0 1 0.24,7.37 57.34,57.34 0 0 1 -0.24,7.37 z"
       style="fill:#ea9034"
       id="path161" />
    <path
       d="m 196.05,213.63 a 57.34,57.34 0 0 1 -0.24,-7.37 57.34,57.34 0 0 1 0.24,-7.37 55.25,55.25 0 0 1 0.24,7.37 55.25,55.25 0 0 1 -0.24,7.37 z"
       style="fill:#ea9034"
       id="path163" />
    <polygon
       points="276.27,184.99 272.63,184.99 272.63,295.37 296.31,295.37 297.48,185.36 294.3,185 294.3,116.8 292.19,116.8 292.01,73.92 289.06,73.92 288.66,29.7 280.38,29.7 280.38,73.71 278.1,73.71 278.1,117.03 276.27,117.03 "
       style="fill:#ea9034"
       id="polygon165" />
    <g
       style="opacity:0.2"
       id="g169">
      <polygon
         points="276.27,184.99 272.63,184.99 272.63,295.37 296.31,295.37 297.48,185.36 294.3,185 294.3,116.8 292.19,116.8 292.01,73.92 289.06,73.92 288.66,29.7 280.38,29.7 280.38,73.71 278.1,73.71 278.1,117.03 276.27,117.03 "
         id="polygon167" />
    </g>
    <polygon
       points="267.95,184.99 264.3,184.99 264.3,295.37 287.99,295.37 289.15,185.36 285.97,185 285.97,116.8 283.86,116.8 283.68,73.92 280.74,73.92 280.33,29.7 272.05,29.7 272.05,73.71 269.77,73.71 269.77,117.03 267.95,117.03 "
       style="fill:#ea9034"
       id="polygon171" />
    <polygon
       points="527.43,184.99 523.78,184.99 523.78,295.37 547.47,295.37 548.63,185.36 545.46,185 545.46,116.8 543.35,116.8 543.17,73.92 540.22,73.92 539.82,29.7 531.54,29.7 531.54,73.71 529.26,73.71 529.26,117.03 527.43,117.03 "
       style="fill:#ea9034"
       id="polygon173" />
    <g
       style="opacity:0.2"
       id="g177">
      <polygon
         points="527.43,184.99 523.78,184.99 523.78,295.37 547.47,295.37 548.63,185.36 545.46,185 545.46,116.8 543.35,116.8 543.17,73.92 540.22,73.92 539.82,29.7 531.54,29.7 531.54,73.71 529.26,73.71 529.26,117.03 527.43,117.03 "
         id="polygon175" />
    </g>
    <polygon
       points="519.11,184.99 515.46,184.99 515.46,295.37 539.15,295.37 540.31,185.36 537.13,185 537.13,116.8 535.02,116.8 534.84,73.92 531.89,73.92 531.49,29.7 523.21,29.7 523.21,73.71 520.93,73.71 520.93,117.03 519.11,117.03 "
       style="fill:#ea9034"
       id="polygon179" />
    <path
       d="m 188.89,301.68 -0.23,-0.12 -0.64,-0.4 c -0.55,-0.36 -1.41,-0.83 -2.51,-1.41 a 33.56,33.56 0 0 0 -10.11,-3.06 59.63,59.63 0 0 0 -15.69,0.05 c -5.89,0.7 -12.29,2.05 -19.11,2.9 a 70.14,70.14 0 0 1 -10,0.57 77.06,77.06 0 0 1 -9.3,-0.88 c -5.88,-0.85 -11.2,-1.56 -15.67,-1.17 a 25.11,25.11 0 0 0 -10.14,2.76 18.52,18.52 0 0 0 -2.49,1.55 l -0.6,0.45 a 1.21,1.21 0 0 1 -0.21,0.15 c 0,0 0,-0.07 0.18,-0.19 l 0.56,-0.5 a 17.26,17.26 0 0 1 2.4,-1.64 24.48,24.48 0 0 1 10.21,-2.94 c 4.51,-0.45 9.89,0.24 15.76,1.06 a 81.45,81.45 0 0 0 9.26,0.84 70.8,70.8 0 0 0 9.95,-0.58 c 6.79,-0.85 13.2,-2.18 19.12,-2.86 a 58.74,58.74 0 0 1 15.8,0.07 32.47,32.47 0 0 1 10.14,3.24 20.79,20.79 0 0 1 3.32,2.11 z"
       style="fill:#455a64"
       id="path181" />
    <path
       d="m 377.58,300.83 a 3.18,3.18 0 0 1 -0.71,0 l -2,-0.08 -7.49,-0.39 c -6.31,-0.33 -15,-0.76 -24.68,-1.12 -9.68,-0.36 -18.39,-0.59 -24.71,-0.73 l -7.49,-0.17 -2,-0.07 a 3.36,3.36 0 0 1 -0.71,-0.06 5,5 0 0 1 0.71,0 h 2 c 1.77,0 4.33,0 7.5,0 6.32,0.05 15.06,0.22 24.72,0.58 9.66,0.36 18.37,0.84 24.69,1.27 3.15,0.21 5.71,0.4 7.47,0.55 l 2,0.19 a 3.42,3.42 0 0 1 0.7,0.03 z"
       style="fill:#455a64"
       id="path183" />
    <path
       d="m 690.64,300.62 -0.35,0.07 -1,0.18 c -0.91,0.15 -2.25,0.36 -4,0.58 -3.47,0.45 -8.52,1 -14.78,1.26 -6.26,0.26 -13.72,0.37 -22,0.24 l -26.93,-0.6 -48.92,-1.25 -14.82,-0.44 -4,-0.15 -1,-0.05 h -0.36 a 1.48,1.48 0 0 1 0.36,0 h 1 4 l 14.83,0.27 48.92,1.1 26.92,0.64 c 8.28,0.16 15.73,0.13 22,-0.13 6.27,-0.26 11.3,-0.7 14.78,-1.09 1.74,-0.19 3.08,-0.36 4,-0.48 l 1,-0.13 a 1.22,1.22 0 0 1 0.35,-0.02 z"
       style="fill:#455a64"
       id="path185" />
  </g>
  <g
     id="freepik--character-2--inject-33"
     transform="translate(-92.19,-29.7)">
    <path
       d="m 474.06,296.48 -8.61,-8.48 7.7,-10 c 0,0.6 18,14 14.19,23 -2.06,4.84 -17.13,16.1 -23.29,19.86 a 38.5,38.5 0 0 1 5,1 c 1.56,0.52 -3.55,1.87 -4.79,2.12 -0.49,0.1 -1.48,-0.67 -2.54,-1.69 l -0.28,0.17 -0.33,-0.78 a 35.88,35.88 0 0 1 -3.16,-3.69 c -0.26,-0.4 -0.25,-2.21 -0.15,-4.13 L 457,312 Z"
       style="fill:#e5baab"
       id="path188" />
    <path
       d="m 417.31,267.32 -25.25,18.27 c 0,0 -30.48,-9.31 -31.85,-9.57 0,0 -1.49,-1.06 -1.91,-1.46 a 6.88,6.88 0 0 1 -1.36,-1.81 10.59,10.59 0 0 1 -1.05,-2.63 c -0.12,-0.85 -1.21,-1.13 -1.57,-0.45 -0.36,0.68 -0.07,3.06 1.43,5.42 1.5,2.36 -2.61,0.94 -4.12,0.45 -1.51,-0.49 -6.24,-1.79 -6.75,-1.44 -0.74,0.51 -0.32,1.42 1.2,1.88 1.52,0.46 6,2.14 5.7,2.93 -0.3,0.79 -7.92,-1.83 -7.92,-1.83 0,0 -1.55,-0.82 -1.9,0.08 -0.63,1.62 7.68,3.79 8.48,4 0.55,0.13 0.28,1 -0.31,0.83 -0.59,-0.17 -7.57,-2.78 -8.23,-1.14 -0.5,1.27 6.83,1.85 8,3.2 1.17,1.35 -5.53,-1 -6,0.22 -0.16,0.45 -0.21,0.82 3.81,1.62 2.17,0.43 9.75,1.21 9.75,1.21 1.5,0.44 32.71,13.91 37.49,12.58 4.78,-1.33 31.07,-19.8 31.07,-19.8 z"
       style="fill:#e5baab"
       id="path190" />
    <path
       d="m 438.4,452.57 v -6.87 l -12.86,-0.15 -0.17,10 0.8,0.07 c 3.55,0.24 18.06,1 20.44,0.28 2.69,-0.74 -8.21,-3.33 -8.21,-3.33 z"
       style="fill:#ea9034"
       id="path192" />
    <path
       d="m 430.08,455.55 a 4.46,4.46 0 0 0 -1.61,-2.76 4.3,4.3 0 0 0 -3,-1 l -0.05,3.59 z"
       style="fill:#ea9034"
       id="path194" />
    <path
       d="m 443.73,454 c 0,0 3.82,1.15 3.33,1.78 -0.49,0.63 -15.17,0.43 -21.65,-0.22 v -0.28 l 17.13,0.36 c 0,0 0.46,-1.59 1.19,-1.64 z"
       style="fill:#e6e6e6"
       id="path196" />
    <path
       d="m 425.24,455.3 h 0.22 l 0.63,0.05 2.34,0.13 c 2,0.1 4.7,0.19 7.72,0.23 3.02,0.04 5.74,0 7.72,0 l 2.34,-0.07 h 0.64 a 1,1 0 0 0 0.22,0 h -0.86 -2.34 c -2,0 -4.71,0 -7.72,0 -3.01,0 -5.74,-0.12 -7.72,-0.19 l -2.33,-0.08 h -0.64 z"
       style="fill:#455a64"
       id="path198" />
    <path
       d="m 442.56,455.87 a 3.35,3.35 0 0 1 1.26,-2 1.7,1.7 0 0 0 -0.94,0.8 1.74,1.74 0 0 0 -0.32,1.2 z"
       style="fill:#263238"
       id="path200" />
    <path
       d="m 438.79,453.9 c 0,0 0.22,-0.2 0.41,-0.49 a 1.4,1.4 0 0 0 0.29,-0.57 c 0,0 -0.23,0.19 -0.42,0.48 a 1.47,1.47 0 0 0 -0.28,0.58 z"
       style="fill:#263238"
       id="path202" />
    <path
       d="m 437.76,453.33 c 0,0 0.23,-0.1 0.45,-0.29 0.22,-0.19 0.39,-0.39 0.36,-0.42 -0.03,-0.03 -0.23,0.1 -0.46,0.3 -0.23,0.2 -0.38,0.38 -0.35,0.41 z"
       style="fill:#263238"
       id="path204" />
    <path
       d="m 437.11,452.11 a 1.46,1.46 0 0 0 0.67,0.09 c 0.38,0 0.68,0 0.68,-0.06 a 3.07,3.07 0 0 0 -1.35,0 z"
       style="fill:#263238"
       id="path206" />
    <path
       d="m 436.9,451.25 a 1.29,1.29 0 0 0 0.75,0.23 1.31,1.31 0 0 0 0.77,-0.09 3.54,3.54 0 0 0 -0.76,-0.07 5,5 0 0 0 -0.76,-0.07 z"
       style="fill:#263238"
       id="path208" />
    <path
       d="m 439.24,452.78 a 2.4,2.4 0 0 0 0.83,0 5,5 0 0 0 0.88,-0.19 2.06,2.06 0 0 0 0.51,-0.2 0.48,0.48 0 0 0 0.21,-0.25 0.33,0.33 0 0 0 -0.12,-0.33 1.52,1.52 0 0 0 -1.89,0.42 1.35,1.35 0 0 0 -0.27,0.54 0.45,0.45 0 0 0 0,0.23 2.24,2.24 0 0 1 0.39,-0.7 1.39,1.39 0 0 1 0.71,-0.45 1.27,1.27 0 0 1 1,0.08 c 0.13,0.09 0.07,0.25 -0.07,0.33 a 2.76,2.76 0 0 1 -0.47,0.2 6.24,6.24 0 0 1 -0.86,0.21 c -0.53,0.09 -0.85,0.09 -0.85,0.11 z"
       style="fill:#263238"
       id="path210" />
    <path
       d="m 439.46,452.82 a 0.85,0.85 0 0 0 0.1,-0.57 1.38,1.38 0 0 0 -0.22,-0.61 0.84,0.84 0 0 0 -0.68,-0.43 0.34,0.34 0 0 0 -0.26,0.38 1,1 0 0 0 0.13,0.37 2.43,2.43 0 0 0 0.39,0.51 c 0.25,0.26 0.46,0.36 0.47,0.34 0.01,-0.02 -0.17,-0.15 -0.39,-0.42 a 2.7,2.7 0 0 1 -0.34,-0.5 c -0.11,-0.17 -0.19,-0.49 0,-0.52 0.19,-0.03 0.42,0.19 0.54,0.36 a 1.32,1.32 0 0 1 0.23,0.54 3.36,3.36 0 0 1 0.03,0.55 z"
       style="fill:#263238"
       id="path212" />
    <path
       d="m 425.54,451.78 c 0,0 0.37,0 0.95,0.05 a 4,4 0 0 1 3.34,2.72 c 0.19,0.56 0.2,0.93 0.23,0.93 a 0.69,0.69 0 0 0 0,-0.26 3.7,3.7 0 0 0 -0.14,-0.7 4,4 0 0 0 -1.27,-1.93 3.93,3.93 0 0 0 -2.15,-0.87 2.67,2.67 0 0 0 -0.71,0 0.82,0.82 0 0 0 -0.25,0.06 z"
       style="fill:#263238"
       id="path214" />
    <path
       d="m 427,446.44 a 21,21 0 0 0 -0.15,2.64 22.73,22.73 0 0 0 0,2.65 23.35,23.35 0 0 0 0.15,-2.64 25.82,25.82 0 0 0 0,-2.65 z"
       style="fill:#263238"
       id="path216" />
    <path
       d="m 431.71,454.32 a 10.49,10.49 0 0 0 3.76,0.08 c 0,0 -0.84,0 -1.88,0 -1.04,0 -1.87,-0.13 -1.88,-0.08 z"
       style="fill:#263238"
       id="path218" />
    <path
       d="m 429.19,454.28 c 0,0 0.07,0.18 0.15,0.37 0.08,0.19 0.13,0.37 0.18,0.37 0.05,0 0.06,-0.21 0,-0.43 -0.06,-0.22 -0.3,-0.34 -0.33,-0.31 z"
       style="fill:#263238"
       id="path220" />
    <path
       d="m 428.26,453.09 c 0,0 0.05,0.16 0.18,0.3 0.13,0.14 0.26,0.22 0.29,0.19 0.03,-0.03 -0.05,-0.16 -0.18,-0.3 -0.13,-0.14 -0.26,-0.22 -0.29,-0.19 z"
       style="fill:#263238"
       id="path222" />
    <path
       d="m 426.91,452.53 c 0,0 0.18,0 0.36,0.11 0.18,0.11 0.33,0.17 0.36,0.14 0.03,-0.03 -0.07,-0.2 -0.3,-0.29 -0.23,-0.09 -0.44,0 -0.42,0.04 z"
       style="fill:#263238"
       id="path224" />
    <path
       d="m 425.94,452.26 c 0,0 0.06,0.11 0.16,0.15 0.1,0.04 0.21,0 0.23,0 0.02,0 -0.06,-0.11 -0.17,-0.15 -0.11,-0.04 -0.16,-0.04 -0.22,0 z"
       style="fill:#263238"
       id="path226" />
    <path
       d="m 451.14,449.18 1.95,-6.21 -11.6,-3.72 -2.94,9.05 0.7,0.28 c 3.14,1.2 16.07,5.9 18.42,5.93 2.62,0.04 -6.53,-5.33 -6.53,-5.33 z"
       style="fill:#ea9034"
       id="path228" />
    <path
       d="m 442.78,449.56 a 4.17,4.17 0 0 0 -0.69,-2.95 4.06,4.06 0 0 0 -2.44,-1.71 l -1,3.24 z"
       style="fill:#ea9034"
       id="path230" />
    <path
       d="m 455.56,452 c 0,0 3.13,2.11 2.52,2.54 -0.61,0.43 -13.86,-3.82 -19.53,-6.21 l 0.1,-0.25 15.4,5.09 c 0,0 0.82,-1.38 1.51,-1.17 z"
       style="fill:#e6e6e6"
       id="path232" />
    <path
       d="m 438.47,448 c 0,0 0.06,0 0.19,0.09 l 0.56,0.22 2.08,0.76 c 1.76,0.64 4.2,1.49 6.92,2.36 2.72,0.87 5.2,1.61 7,2.12 l 2.13,0.59 0.59,0.15 0.2,0.05 -0.19,-0.07 -0.58,-0.18 -2.12,-0.64 c -1.79,-0.53 -4.27,-1.29 -7,-2.16 -2.73,-0.87 -5.17,-1.7 -6.93,-2.32 l -2.1,-0.72 -0.57,-0.19 z"
       style="fill:#263238"
       id="path234" />
    <path
       d="m 454,453.32 a 4.88,4.88 0 0 1 0.72,-0.88 5.4,5.4 0 0 1 1,-0.58 1.61,1.61 0 0 0 -1.07,0.47 1.64,1.64 0 0 0 -0.65,0.99 z"
       style="fill:#263238"
       id="path236" />
    <path
       d="m 451.13,450.48 c 0,0 0.25,-0.11 0.5,-0.32 0.25,-0.21 0.44,-0.41 0.42,-0.45 -0.02,-0.04 -0.26,0.12 -0.51,0.33 -0.25,0.21 -0.44,0.41 -0.41,0.44 z"
       style="fill:#263238"
       id="path238" />
    <path
       d="m 450.35,449.69 a 2,2 0 0 0 0.93,-0.42 c 0,0 -0.24,0 -0.5,0.14 -0.26,0.14 -0.45,0.24 -0.43,0.28 z"
       style="fill:#263238"
       id="path240" />
    <path
       d="m 450.1,448.4 a 2.77,2.77 0 1 0 0.63,0.13 1.41,1.41 0 0 0 -0.63,-0.13 z"
       style="fill:#263238"
       id="path242" />
    <path
       d="m 450.15,447.56 c 0,0 0.23,0.26 0.61,0.42 a 1.29,1.29 0 0 0 0.73,0.13 3.55,3.55 0 0 0 -0.67,-0.27 4.73,4.73 0 0 0 -0.67,-0.28 z"
       style="fill:#263238"
       id="path244" />
    <path
       d="m 451.84,449.6 a 2.53,2.53 0 0 0 0.75,0.23 4.23,4.23 0 0 0 0.85,0.08 1.81,1.81 0 0 0 0.51,0 0.4,0.4 0 0 0 0.26,-0.17 0.32,0.32 0 0 0 0,-0.34 1.47,1.47 0 0 0 -2.23,0.28 c -0.07,0.12 -0.09,0.19 -0.08,0.2 a 2.11,2.11 0 0 1 0.54,-0.53 1.42,1.42 0 0 1 0.77,-0.21 1.23,1.23 0 0 1 0.87,0.35 c 0.09,0.12 0,0.25 -0.15,0.28 a 2.61,2.61 0 0 1 -0.48,0 6.6,6.6 0 0 1 -0.83,0 c -0.48,-0.1 -0.77,-0.2 -0.78,-0.17 z"
       style="fill:#263238"
       id="path246" />
    <path
       d="m 452,449.7 a 0.92,0.92 0 0 0 0.25,-0.49 1.43,1.43 0 0 0 0,-0.61 0.8,0.8 0 0 0 -0.5,-0.58 0.3,0.3 0 0 0 -0.34,0.27 0.76,0.76 0 0 0 0,0.37 2.52,2.52 0 0 0 0.21,0.57 c 0.16,0.3 0.31,0.45 0.33,0.43 0.02,-0.02 -0.11,-0.18 -0.24,-0.48 a 2.77,2.77 0 0 1 -0.17,-0.55 c -0.05,-0.19 0,-0.49 0.17,-0.47 0.17,0.02 0.32,0.29 0.39,0.48 a 1.35,1.35 0 0 1 0.05,0.55 c -0.02,0.32 -0.15,0.49 -0.15,0.51 z"
       style="fill:#263238"
       id="path248" />
    <path
       d="m 439.72,444.88 c 0,0 0.35,0.08 0.85,0.31 a 3.82,3.82 0 0 1 2.26,3.4 c 0,0.55 -0.07,0.89 0,0.9 a 2.46,2.46 0 0 0 0.07,-0.24 3.19,3.19 0 0 0 0.08,-0.66 3.71,3.71 0 0 0 -2.33,-3.5 2.91,2.91 0 0 0 -0.64,-0.18 1.41,1.41 0 0 0 -0.29,-0.03 z"
       style="fill:#263238"
       id="path250" />
    <path
       d="m 442.48,440.44 a 20.92,20.92 0 0 0 -0.87,2.35 20.14,20.14 0 0 0 -0.72,2.4 c 0,0 0.42,-1 0.86,-2.35 a 23.52,23.52 0 0 0 0.73,-2.4 z"
       style="fill:#455a64"
       id="path252" />
    <path
       d="m 444.6,448.9 a 7.36,7.36 0 0 0 1.64,0.71 7.66,7.66 0 0 0 1.76,0.39 c 0,0 -0.76,-0.24 -1.69,-0.55 -0.93,-0.31 -1.69,-0.59 -1.71,-0.55 z"
       style="fill:#263238"
       id="path254" />
    <path
       d="m 442.33,448.16 c 0,0 0,0.18 0,0.38 0,0.2 0,0.37 0.06,0.38 0.06,0.01 0.12,-0.17 0.09,-0.4 -0.03,-0.23 -0.11,-0.38 -0.15,-0.36 z"
       style="fill:#455a64"
       id="path256" />
    <path
       d="m 441.82,446.82 c 0,0 0,0.16 0.08,0.32 0.08,0.16 0.17,0.28 0.21,0.26 0.04,-0.02 0,-0.16 -0.08,-0.32 -0.08,-0.16 -0.18,-0.28 -0.21,-0.26 z"
       style="fill:#455a64"
       id="path258" />
    <path
       d="m 440.75,445.94 c 0,0 0.15,0.09 0.3,0.2 0.15,0.11 0.24,0.25 0.28,0.23 0.04,-0.02 0,-0.2 -0.19,-0.34 -0.19,-0.14 -0.39,-0.13 -0.39,-0.09 z"
       style="fill:#455a64"
       id="path260" />
    <path
       d="m 440,445.43 c 0,0 0,0.11 0.11,0.18 0.11,0.07 0.17,0.1 0.19,0.07 0.02,-0.03 0,-0.12 -0.1,-0.18 -0.1,-0.06 -0.2,-0.1 -0.2,-0.07 z"
       style="fill:#455a64"
       id="path262" />
    <path
       d="m 459.62,324.9 -14.43,-1.11 v 0 l -23.71,-1.92 2.65,127.39 18.72,-0.62 c 0,0 0,-1.42 0,-3.9 l 9.89,2.55 c 0,0 18.64,-38.29 22.65,-54.59 3.35,-13.6 -15.77,-67.8 -15.77,-67.8 z m -16.84,100.37 c -0.31,-29.4 1,-79.4 1.43,-85.52 0,0 11.46,44 11.57,47.5 0.07,2.11 -7.98,22.43 -13,38.02 z"
       style="fill:#263238"
       id="path264" />
    <path
       d="m 442.69,416.93 a 7,7 0 0 1 0.07,1.23 c 0,0.85 0,2 0.07,3.37 0,2.84 0.07,6.77 0.09,11.11 0.02,4.34 0,8.27 0,11.12 0,1.37 0,2.51 0,3.36 a 8.76,8.76 0 0 1 -0.07,1.24 7.18,7.18 0 0 1 -0.07,-1.24 c 0,-0.85 0,-2 -0.07,-3.37 0,-2.84 -0.07,-6.77 -0.09,-11.11 -0.02,-4.34 0,-8.27 0,-11.11 0,-1.38 0,-2.52 0,-3.37 a 8.51,8.51 0 0 1 0.07,-1.23 z"
       style="fill:#455a64"
       id="path266" />
    <path
       d="m 433.68,323.6 a 2.23,2.23 0 0 1 0,0.66 7.32,7.32 0 0 1 -0.37,1.75 8.54,8.54 0 0 1 -9.33,5.82 7.72,7.72 0 0 1 -1.74,-0.44 3,3 0 0 1 -0.59,-0.29 19.81,19.81 0 0 0 2.36,0.47 8.64,8.64 0 0 0 9.06,-5.65 21.12,21.12 0 0 0 0.61,-2.32 z"
       style="fill:#455a64"
       id="path268" />
    <path
       d="m 445.9,323.79 a 2.63,2.63 0 0 1 0.07,0.67 c 0,0.43 0,1.05 0.07,1.82 0,1.53 0.07,3.66 0.09,6 v 3.31 a 4.8,4.8 0 0 1 -0.62,2.68 2.3,2.3 0 0 1 -1.54,1 1,1 0 0 1 -0.67,-0.09 6,6 0 0 0 0.65,-0.05 2.25,2.25 0 0 0 1.35,-1 4.87,4.87 0 0 0 0.5,-2.54 c 0,-1 0,-2.14 0,-3.3 0,-2.35 0,-4.47 0,-6 0,-0.77 0,-1.39 0.05,-1.82 a 2.16,2.16 0 0 1 0.05,-0.68 z"
       style="fill:#455a64"
       id="path270" />
    <path
       d="m 461.26,331.72 c 0,0 -0.18,0 -0.52,0 a 9.22,9.22 0 0 1 -1.38,-0.22 11.63,11.63 0 0 1 -7.25,-5.45 7.33,7.33 0 0 1 -0.59,-1.28 1.58,1.58 0 0 1 -0.14,-0.49 c 0.06,0 0.33,0.65 0.95,1.64 a 12.59,12.59 0 0 0 7.09,5.33 c 1.12,0.34 1.85,0.41 1.84,0.47 z"
       style="fill:#455a64"
       id="path272" />
    <path
       d="m 430.31,261.68 13.5,-1.08 c 0.08,-1.57 0,-7.67 0,-7.67 0,0 5.61,-0.87 5.68,-6.49 0.07,-5.62 -0.9,-18.51 -0.9,-18.51 v 0 A 19.53,19.53 0 0 0 429,230.39 l -0.84,0.64 z"
       style="fill:#e5baab"
       id="path274" />
    <path
       d="m 446.05,237.87 a 0.81,0.81 0 1 1 1.15,-0.05 0.81,0.81 0 0 1 -1.15,0.05 z"
       style="fill:#263238"
       id="path276" />
    <path
       d="m 448.63,236.3 c -0.09,0.1 -0.64,-0.33 -1.41,-0.33 -0.77,0 -1.34,0.39 -1.43,0.29 -0.09,-0.1 0,-0.21 0.3,-0.4 a 1.87,1.87 0 0 1 1.13,-0.36 1.94,1.94 0 0 1 1.13,0.39 c 0.24,0.19 0.32,0.37 0.28,0.41 z"
       style="fill:#263238"
       id="path278" />
    <path
       d="m 438.9,237.1 a 0.81,0.81 0 1 1 -1.12,0.26 0.81,0.81 0 0 1 1.12,-0.26 z"
       style="fill:#263238"
       id="path280" />
    <path
       d="m 440.23,237 c -0.09,0.1 -0.64,-0.33 -1.42,-0.33 -0.78,0 -1.33,0.4 -1.42,0.3 -0.09,-0.1 0.05,-0.22 0.29,-0.41 a 1.91,1.91 0 0 1 1.14,-0.36 1.94,1.94 0 0 1 1.13,0.39 c 0.24,0.17 0.32,0.35 0.28,0.41 z"
       style="fill:#263238"
       id="path282" />
    <path
       d="m 443.33,243.36 a 3.56,3.56 0 0 1 1.25,-0.26 c 0.2,0 0.36,-0.07 0.37,-0.18 a 1.08,1.08 0 0 0 -0.14,-0.58 l -0.61,-1.57 a 21.81,21.81 0 0 1 -1.33,-4.13 20.78,20.78 0 0 1 1.74,4 l 0.58,1.59 a 1.34,1.34 0 0 1 0.11,0.84 0.52,0.52 0 0 1 -0.35,0.32 1.64,1.64 0 0 1 -0.34,0 3.92,3.92 0 0 1 -1.28,-0.03 z"
       style="fill:#263238"
       id="path284" />
    <path
       d="m 440.82,244.22 c -0.81,-0.48 2.21,1.17 3.79,1.1 a 2.14,2.14 0 0 1 -2.52,0.85 c -1.68,-0.62 -1.27,-1.95 -1.27,-1.95 z"
       style="fill:#ffffff"
       id="path286" />
    <path
       d="m 443.79,252.85 a 13.08,13.08 0 0 1 -7.33,-2.08 c 0,0 1.74,4 7.34,3.53 z"
       style="fill:#d78776"
       id="path288" />
    <path
       d="m 447.64,226.56 a 2.11,2.11 0 1 0 -1.4,-3.82 6.17,6.17 0 0 0 1.48,-2.11 2.12,2.12 0 0 0 -0.54,-2.37 2.35,2.35 0 0 0 -2.43,0 c -1.16,0.58 -2,1.64 -3.23,2.14 a 13.15,13.15 0 0 1 -3.87,0.51 6.93,6.93 0 0 0 -3.94,1.65 4.61,4.61 0 0 0 -1.57,3.87 c -1.84,-0.11 -3.87,0 -5.24,1.21 a 5.24,5.24 0 0 0 -1.5,4.25 15.53,15.53 0 0 0 1.37,4.44 v 0 a 3.2,3.2 0 0 0 0.63,1.14 l 0.92,4 2.49,-0.21 -0.67,-8.34 c 0,0 -0.47,-3.5 2.58,-3.38 3.05,0.12 7.37,3.28 13.21,2.05 a 6.28,6.28 0 0 0 2.7,-1 2.72,2.72 0 0 0 1.11,-2.53 1.85,1.85 0 0 0 -2.1,-1.5 z"
       style="fill:#263238"
       id="path290" />
    <path
       d="m 428.1,236.47 c -0.12,0 -4.18,-0.31 -3.51,4.42 0.67,4.73 5.23,2.49 5.22,2.35 -0.01,-0.14 -1.71,-6.77 -1.71,-6.77 z"
       style="fill:#e5baab"
       id="path292" />
    <path
       d="m 428.12,241.79 c 0,0 -0.07,0.07 -0.2,0.15 a 0.82,0.82 0 0 1 -0.61,0.1 2.05,2.05 0 0 1 -1.21,-1.7 2.85,2.85 0 0 1 0.06,-1.21 1,1 0 0 1 0.53,-0.72 0.41,0.41 0 0 1 0.52,0.16 c 0.08,0.12 0.07,0.22 0.09,0.22 0.02,0 0.09,-0.09 0,-0.28 a 0.53,0.53 0 0 0 -0.23,-0.27 0.63,0.63 0 0 0 -0.47,-0.06 1.17,1.17 0 0 0 -0.76,0.86 2.79,2.79 0 0 0 -0.1,1.36 2.16,2.16 0 0 0 1.5,1.87 A 0.89,0.89 0 0 0 428,242 c 0.13,-0.1 0.14,-0.21 0.12,-0.21 z"
       style="fill:#d78776"
       id="path294" />
    <path
       d="M 474.92,277.41 A 177.37,177.37 0 0 0 459.82,264 c -10,-7.4 -13.2,-5.22 -15.66,-5.53 a 23.87,23.87 0 0 1 -14.39,0 v 0 c -6.36,0.27 -10.25,3 -16.12,7.29 l -12.2,9.24 12,16.24 6.93,-4.14 c 0.69,5.51 0.35,4.51 0.6,11.16 l -0.54,26.7 39.56,2.2 -2.15,-25.16 -0.58,-15.59 8.27,6.37 z"
       style="fill:#ea9034"
       id="path296" />
    <g
       style="opacity:0.2"
       id="g300">
      <path
         d="M 474.92,277.41 A 177.37,177.37 0 0 0 459.82,264 c -10,-7.4 -13.2,-5.22 -15.66,-5.53 a 23.87,23.87 0 0 1 -14.39,0 v 0 c -6.36,0.27 -10.25,3 -16.12,7.29 l -12.2,9.24 12,16.24 6.93,-4.14 c 0.69,5.51 0.35,4.51 0.6,11.16 l -0.54,26.7 39.56,2.2 -2.15,-25.16 -0.58,-15.59 8.27,6.37 z"
         id="path298" />
    </g>
  </g>
  <g
     id="freepik--character-1--inject-33"
     transform="translate(-92.19,-29.7)">
    <path
       d="m 342.86,262.74 13.54,-0.24 c 0.19,-1.57 0.45,-7.66 0.45,-7.66 0,0 5.66,-0.53 6.07,-6.13 0.41,-5.6 0.24,-18.53 0.24,-18.53 v 0 a 19.53,19.53 0 0 0 -19.73,1.25 l -0.87,0.59 z"
       style="fill:#b78876"
       id="path303" />
    <path
       d="m 360.42,240 a 0.82,0.82 0 1 1 1.17,-1.14 0.82,0.82 0 0 1 -1.17,1.14 z"
       style="fill:#263238"
       id="path305" />
    <path
       d="m 362.67,239.09 c -0.09,0.09 -0.61,-0.37 -1.39,-0.42 -0.78,-0.05 -1.35,0.31 -1.43,0.21 -0.08,-0.1 0.06,-0.22 0.31,-0.39 a 1.93,1.93 0 0 1 1.16,-0.29 1.87,1.87 0 0 1 1.1,0.46 c 0.23,0.2 0.3,0.39 0.25,0.43 z"
       style="fill:#263238"
       id="path307" />
    <path
       d="m 353.1,239 a 0.81,0.81 0 1 1 -1.13,0.2 0.8,0.8 0 0 1 1.13,-0.2 z"
       style="fill:#263238"
       id="path309" />
    <path
       d="m 354.25,239.26 c -0.09,0.09 -0.62,-0.37 -1.39,-0.42 -0.77,-0.05 -1.36,0.32 -1.43,0.21 -0.07,-0.11 0.05,-0.22 0.31,-0.39 a 1.87,1.87 0 0 1 1.16,-0.28 1.83,1.83 0 0 1 1.1,0.45 c 0.22,0.17 0.3,0.39 0.25,0.43 z"
       style="fill:#263238"
       id="path311" />
    <path
       d="m 357,245.26 a 3.76,3.76 0 0 1 1.27,-0.19 c 0.2,0 0.36,0 0.38,-0.15 a 1.13,1.13 0 0 0 -0.11,-0.59 c -0.16,-0.52 -0.33,-1.05 -0.51,-1.61 a 21.79,21.79 0 0 1 -1.07,-4.2 21.41,21.41 0 0 1 1.49,4.07 c 0.16,0.56 0.32,1.09 0.48,1.62 a 1.33,1.33 0 0 1 0.06,0.85 0.55,0.55 0 0 1 -0.37,0.3 1.47,1.47 0 0 1 -0.35,0 3.83,3.83 0 0 1 -1.27,-0.1 z"
       style="fill:#263238"
       id="path313" />
    <path
       d="m 354.43,246 c -0.78,-0.52 2.14,1.32 3.72,1.34 a 2.14,2.14 0 0 1 -2.57,0.69 c -1.64,-0.77 -1.15,-2.03 -1.15,-2.03 z"
       style="fill:#ffffff"
       id="path315" />
    <path
       d="m 356.86,254.76 a 13.15,13.15 0 0 1 -7.18,-2.53 c 0,0 1.48,4.14 7.11,4 z"
       style="fill:#a36957"
       id="path317" />
    <path
       d="m 343,243.55 c 2,1.64 4.48,-2.59 5.57,-5.24 a 26.27,26.27 0 0 0 1.58,-8.47 4.24,4.24 0 0 0 -0.49,-2.74 c -0.58,-0.78 -0.78,0.13 -1.47,-0.56 -1.2,-1.18 -0.06,-1.18 -1.26,-1 -2,0.25 -6.5,3.79 -6.87,5.94 a 20.6,20.6 0 0 0 0.23,6.5 c 0.14,1 0.27,2 0.41,2.95 a 4.85,4.85 0 0 0 0.59,2 1.42,1.42 0 0 0 1.71,0.66"
       style="fill:#ea9034"
       id="path319" />
    <path
       d="m 342.88,238.94 a 0.85,0.85 0 0 0 -0.81,-0.84 c -1.05,0 -2.76,0.38 -2.92,3.27 -0.23,4.12 3.74,3.09 3.75,3 0.01,-0.09 -0.01,-3.82 -0.02,-5.43 z"
       style="fill:#b78876"
       id="path321" />
    <path
       d="m 342,242.72 c 0,0 -0.07,0.05 -0.2,0.1 a 0.73,0.73 0 0 1 -0.54,0 1.8,1.8 0 0 1 -0.73,-1.64 2.37,2.37 0 0 1 0.26,-1 0.84,0.84 0 0 1 0.57,-0.52 0.36,0.36 0 0 1 0.41,0.22 c 0.05,0.12 0,0.2 0,0.21 0,0.01 0.09,-0.06 0.07,-0.24 a 0.4,0.4 0 0 0 -0.15,-0.26 0.5,0.5 0 0 0 -0.39,-0.13 1,1 0 0 0 -0.78,0.6 2.3,2.3 0 0 0 -0.32,1.13 1.89,1.89 0 0 0 0.95,1.84 0.77,0.77 0 0 0 0.66,-0.07 c 0.19,-0.14 0.19,-0.23 0.19,-0.24 z"
       style="fill:#a36957"
       id="path323" />
    <path
       d="m 349.63,227.15 a 13.2,13.2 0 0 0 7.85,8.39 1,1 0 0 0 1,0 c 0.35,-0.27 0.21,-0.84 -0.07,-1.17 -0.28,-0.33 -0.69,-0.56 -0.9,-0.94 l 2.09,1.18 a 3.25,3.25 0 0 0 1.09,0.46 1.13,1.13 0 0 0 1.07,-0.34 0.69,0.69 0 0 0 -0.14,-1 1.66,1.66 0 0 0 2.38,0.27 2.48,2.48 0 0 0 0.65,-2.5 5,5 0 0 0 -1.47,-2.25 c -2.9,-2.83 -7.12,-3.85 -11.16,-4.13 a 12.94,12.94 0 0 0 -3.73,0.17 5.6,5.6 0 0 0 -3.19,1.84"
       style="fill:#ea9034"
       id="path325" />
    <path
       d="m 340.09,230.74 a 5.05,5.05 0 0 0 -3.92,-3.31 13.44,13.44 0 0 0 -5.35,0.27 c -0.83,0.17 -1.78,0.45 -2.09,1.24 a 1.75,1.75 0 0 0 0.66,1.9 5.26,5.26 0 0 0 2,0.83 5.23,5.23 0 0 0 -1.63,0.55 1.8,1.8 0 0 0 -0.91,1.39 1.09,1.09 0 0 0 1.05,1.13 c 0.67,0 1.31,-0.81 1.87,-0.44 a 0.89,0.89 0 0 1 0.22,1 6.81,6.81 0 0 0 -0.38,1.07 1.56,1.56 0 0 0 1.27,1.59 2.79,2.79 0 0 0 2.11,-0.53 15.65,15.65 0 0 0 1.68,-1.47 21.94,21.94 0 0 1 4.75,-3"
       style="fill:#ea9034"
       id="path327" />
    <path
       d="m 371.58,448.31 a 1.34,1.34 0 0 0 0.66,0.42 1.37,1.37 0 0 0 0.77,0.12 c 0,-0.05 -0.33,-0.12 -0.71,-0.27 a 4,4 0 0 0 -0.72,-0.27 z"
       style="fill:#263238"
       id="path329" />
    <path
       d="m 363.27,441 a 22.25,22.25 0 0 0 -0.84,2.51 22.64,22.64 0 0 0 -0.7,2.55 23.44,23.44 0 0 0 0.85,-2.51 23.12,23.12 0 0 0 0.69,-2.55 z"
       style="fill:#263238"
       id="path331" />
    <path
       d="m 348.56,451.56 v -6.87 l -12.86,-0.15 -0.17,10 0.8,0.06 c 3.55,0.24 18.05,1 20.44,0.28 2.69,-0.72 -8.21,-3.32 -8.21,-3.32 z"
       style="fill:#ea9034"
       id="path333" />
    <path
       d="m 340.24,454.54 a 4.46,4.46 0 0 0 -1.61,-2.76 4.31,4.31 0 0 0 -3,-1 v 3.59 z"
       style="fill:#ea9034"
       id="path335" />
    <path
       d="m 353.88,453 c 0,0 3.82,1.15 3.34,1.78 -0.48,0.63 -15.18,0.44 -21.65,-0.21 v -0.29 l 17.13,0.36 c 0,0 0.44,-1.64 1.18,-1.64 z"
       style="fill:#e6e6e6"
       id="path337" />
    <path
       d="m 335.39,454.29 h 0.22 0.64 l 2.34,0.13 c 2,0.1 4.7,0.19 7.71,0.24 3.01,0.05 5.75,0 7.73,0 l 2.34,-0.07 H 357 c 0.15,0 0.22,0 0.22,0 h -0.85 -2.34 c -2,0 -4.71,0 -7.72,0 -3.01,0 -5.74,-0.12 -7.72,-0.19 l -2.34,-0.08 h -0.63 a 0.82,0.82 0 0 0 -0.23,-0.03 z"
       style="fill:#263238"
       id="path339" />
    <path
       d="m 352.72,454.86 a 3.35,3.35 0 0 1 1.26,-2 1.7,1.7 0 0 0 -0.94,0.8 1.74,1.74 0 0 0 -0.32,1.2 z"
       style="fill:#263238"
       id="path341" />
    <path
       d="m 349,452.89 c 0,0 0.22,-0.2 0.41,-0.49 0.19,-0.29 0.32,-0.55 0.28,-0.57 -0.04,-0.02 -0.22,0.19 -0.41,0.48 -0.19,0.29 -0.37,0.56 -0.28,0.58 z"
       style="fill:#263238"
       id="path343" />
    <path
       d="m 347.91,452.32 c 0,0 0.24,-0.1 0.46,-0.29 0.22,-0.19 0.38,-0.38 0.36,-0.42 -0.02,-0.04 -0.24,0.1 -0.46,0.3 -0.22,0.2 -0.38,0.38 -0.36,0.41 z"
       style="fill:#263238"
       id="path345" />
    <path
       d="m 347.27,451.1 c 0,0 0.3,0.09 0.67,0.1 a 1.55,1.55 0 0 0 0.68,-0.07 1.64,1.64 0 0 0 -0.62,-0.13 1.57,1.57 0 0 0 -0.73,0.1 z"
       style="fill:#263238"
       id="path347" />
    <path
       d="m 347.06,450.24 a 1.27,1.27 0 0 0 0.74,0.23 1.33,1.33 0 0 0 0.78,-0.09 3.54,3.54 0 0 0 -0.76,-0.07 5.05,5.05 0 0 0 -0.76,-0.07 z"
       style="fill:#263238"
       id="path349" />
    <path
       d="m 349.4,451.77 a 2.4,2.4 0 0 0 0.83,0 5.22,5.22 0 0 0 0.88,-0.19 2.06,2.06 0 0 0 0.51,-0.2 0.43,0.43 0 0 0 0.2,-0.25 0.32,0.32 0 0 0 -0.12,-0.33 1.51,1.51 0 0 0 -1.88,0.42 1.41,1.41 0 0 0 -0.27,0.54 c 0,0.15 0,0.23 0,0.23 a 2.24,2.24 0 0 1 0.39,-0.7 1.45,1.45 0 0 1 0.71,-0.45 1.24,1.24 0 0 1 1,0.08 c 0.13,0.1 0.08,0.25 -0.07,0.33 a 2.37,2.37 0 0 1 -0.46,0.2 6.24,6.24 0 0 1 -0.86,0.21 c -0.54,0.09 -0.86,0.09 -0.86,0.11 z"
       style="fill:#263238"
       id="path351" />
    <path
       d="m 349.61,451.82 a 0.8,0.8 0 0 0 0.11,-0.58 1.42,1.42 0 0 0 -0.22,-0.6 0.83,0.83 0 0 0 -0.68,-0.43 0.31,0.31 0 0 0 -0.26,0.37 0.9,0.9 0 0 0 0.13,0.38 2.63,2.63 0 0 0 0.39,0.5 1.12,1.12 0 0 0 0.46,0.34 c 0,0 -0.16,-0.15 -0.38,-0.41 a 2.9,2.9 0 0 1 -0.34,-0.5 c -0.11,-0.18 -0.19,-0.5 0,-0.53 0.19,-0.03 0.42,0.19 0.54,0.36 a 1.32,1.32 0 0 1 0.23,0.54 2.11,2.11 0 0 1 0.02,0.56 z"
       style="fill:#263238"
       id="path353" />
    <path
       d="m 335.7,450.77 c 0,0 0.37,0 0.95,0.05 a 4.14,4.14 0 0 1 2.06,0.88 4.2,4.2 0 0 1 1.28,1.85 c 0.19,0.55 0.2,0.92 0.23,0.92 a 0.89,0.89 0 0 0 0,-0.26 3.54,3.54 0 0 0 -0.13,-0.7 4,4 0 0 0 -1.28,-1.93 3.91,3.91 0 0 0 -2.15,-0.87 2.59,2.59 0 0 0 -0.7,0 0.82,0.82 0 0 0 -0.26,0.06 z"
       style="fill:#263238"
       id="path355" />
    <path
       d="m 337.1,445.44 a 22,22 0 0 0 -0.14,2.64 22.51,22.51 0 0 0 0,2.64 22.15,22.15 0 0 0 0.14,-2.64 20.16,20.16 0 0 0 0,-2.64 z"
       style="fill:#263238"
       id="path357" />
    <path
       d="m 341.87,453.31 a 7.29,7.29 0 0 0 1.88,0.21 7.44,7.44 0 0 0 1.88,-0.13 c 0,0 -0.84,0 -1.88,0 -1.04,0 -1.87,-0.13 -1.88,-0.08 z"
       style="fill:#263238"
       id="path359" />
    <path
       d="m 339.35,453.27 c 0,0 0.07,0.18 0.15,0.37 0.08,0.19 0.13,0.37 0.17,0.37 0.04,0 0.07,-0.2 0,-0.43 -0.07,-0.23 -0.29,-0.34 -0.32,-0.31 z"
       style="fill:#263238"
       id="path361" />
    <path
       d="m 338.42,452.08 c 0,0 0.05,0.16 0.18,0.3 0.13,0.14 0.26,0.22 0.29,0.19 0.03,-0.03 -0.05,-0.16 -0.18,-0.3 -0.13,-0.14 -0.26,-0.22 -0.29,-0.19 z"
       style="fill:#263238"
       id="path363" />
    <path
       d="m 337.06,451.52 c 0,0 0.18,0 0.37,0.11 0.19,0.11 0.32,0.17 0.36,0.15 0.04,-0.02 -0.07,-0.21 -0.31,-0.29 -0.24,-0.08 -0.43,-0.01 -0.42,0.03 z"
       style="fill:#263238"
       id="path365" />
    <path
       d="m 336.1,451.25 c 0,0 0.06,0.11 0.16,0.15 0.1,0.04 0.21,0.05 0.22,0 0.01,-0.05 -0.05,-0.11 -0.16,-0.15 -0.11,-0.04 -0.21,-0.04 -0.22,0 z"
       style="fill:#263238"
       id="path367" />
    <path
       d="m 372.68,450 1.87,-6.6 -12.36,-3.59 -2.84,9.64 0.76,0.27 c 3.35,1.18 17.14,5.76 19.62,5.73 2.76,-0.06 -7.05,-5.45 -7.05,-5.45 z"
       style="fill:#ea9034"
       id="path369" />
    <path
       d="m 363.86,450.63 a 4.44,4.44 0 0 0 -0.81,-3.09 4.34,4.34 0 0 0 -2.63,-1.73 l -1,3.45 z"
       style="fill:#ea9034"
       id="path371" />
    <path
       d="m 377.42,452.81 c 0,0 3.37,2.13 2.74,2.6 -0.63,0.47 -14.74,-3.63 -20.81,-6 l 0.1,-0.27 16.42,4.92 c 0,0 0.82,-1.43 1.55,-1.25 z"
       style="fill:#e6e6e6"
       id="path373" />
    <path
       d="m 359.26,449.1 0.21,0.08 0.6,0.22 2.22,0.75 c 1.87,0.62 4.48,1.44 7.37,2.28 2.89,0.84 5.54,1.55 7.45,2 l 2.27,0.56 0.62,0.14 h 0.22 l -0.21,-0.07 -0.61,-0.17 -2.26,-0.61 c -1.91,-0.51 -4.54,-1.24 -7.44,-2.08 -2.9,-0.84 -5.5,-1.65 -7.38,-2.24 l -2.23,-0.7 -0.61,-0.19 a 0.73,0.73 0 0 0 -0.22,0.03 z"
       style="fill:#263238"
       id="path375" />
    <path
       d="m 375.81,454.28 a 4.47,4.47 0 0 1 0.73,-0.95 4.86,4.86 0 0 1 1,-0.64 1.76,1.76 0 0 0 -1.12,0.52 1.7,1.7 0 0 0 -0.61,1.07 z"
       style="fill:#263238"
       id="path377" />
    <path
       d="m 372.7,451.37 c 0,0 0.26,-0.13 0.53,-0.36 0.27,-0.23 0.45,-0.45 0.42,-0.48 -0.03,-0.03 -0.26,0.13 -0.53,0.36 -0.27,0.23 -0.45,0.44 -0.42,0.48 z"
       style="fill:#263238"
       id="path379" />
    <path
       d="m 371.85,450.55 c 0,0 0.26,0 0.52,-0.17 0.26,-0.17 0.47,-0.26 0.46,-0.3 -0.01,-0.04 -0.26,0 -0.52,0.16 -0.26,0.16 -0.47,0.27 -0.46,0.31 z"
       style="fill:#263238"
       id="path381" />
    <path
       d="m 371.56,449.2 a 1.63,1.63 0 0 0 0.62,0.27 1.69,1.69 0 0 0 0.67,0.12 1.48,1.48 0 0 0 -0.62,-0.27 1.52,1.52 0 0 0 -0.67,-0.12 z"
       style="fill:#263238"
       id="path383" />
    <path
       d="m 373.43,450.41 a 2.5,2.5 0 0 0 0.8,0.23 5.89,5.89 0 0 0 0.9,0.06 2.7,2.7 0 0 0 0.54,-0.06 0.48,0.48 0 0 0 0.27,-0.19 0.36,0.36 0 0 0 0,-0.36 1.51,1.51 0 0 0 -1.94,-0.09 1.4,1.4 0 0 0 -0.42,0.45 c -0.07,0.13 -0.09,0.21 -0.08,0.21 a 2.07,2.07 0 0 1 0.56,-0.57 1.49,1.49 0 0 1 0.8,-0.25 1.32,1.32 0 0 1 0.93,0.34 c 0.1,0.13 0,0.27 -0.16,0.31 a 2.07,2.07 0 0 1 -0.5,0.06 6.16,6.16 0 0 1 -0.88,0 c -0.51,-0.08 -0.81,-0.16 -0.82,-0.14 z"
       style="fill:#263238"
       id="path385" />
    <path
       d="m 373.63,450.51 a 0.86,0.86 0 0 0 0.25,-0.53 1.32,1.32 0 0 0 -0.05,-0.64 0.84,0.84 0 0 0 -0.54,-0.6 0.34,0.34 0 0 0 -0.35,0.3 0.83,0.83 0 0 0 0,0.39 2.2,2.2 0 0 0 0.23,0.59 1.3,1.3 0 0 0 0.36,0.46 c 0,0 -0.11,-0.19 -0.26,-0.51 a 2.92,2.92 0 0 1 -0.19,-0.57 c -0.06,-0.2 -0.05,-0.52 0.16,-0.5 0.21,0.02 0.35,0.3 0.42,0.49 a 1.23,1.23 0 0 1 0.08,0.58 3.35,3.35 0 0 1 -0.11,0.54 z"
       style="fill:#263238"
       id="path387" />
    <path
       d="m 360.5,445.79 c 0,0 0.36,0.07 0.9,0.3 a 4.06,4.06 0 0 1 1.75,1.4 4.1,4.1 0 0 1 0.74,2.12 c 0,0.58 -0.05,0.94 0,0.95 0.05,0.01 0,-0.09 0.07,-0.25 a 3.9,3.9 0 0 0 -2.5,-4.32 2.88,2.88 0 0 0 -0.68,-0.18 0.64,0.64 0 0 0 -0.28,-0.02 z"
       style="fill:#263238"
       id="path389" />
    <path
       d="m 365.77,449.88 a 10.94,10.94 0 0 0 3.6,1.09 c 0,-0.05 -0.81,-0.23 -1.81,-0.53 -1,-0.3 -1.77,-0.6 -1.79,-0.56 z"
       style="fill:#263238"
       id="path391" />
    <path
       d="m 363.35,449.17 c 0,0 0,0.19 0,0.4 0,0.21 0,0.39 0.07,0.4 0.07,0.01 0.12,-0.18 0.09,-0.42 -0.03,-0.24 -0.13,-0.4 -0.16,-0.38 z"
       style="fill:#263238"
       id="path393" />
    <path
       d="m 362.77,447.77 c 0,0 0,0.18 0.09,0.34 0.09,0.16 0.19,0.29 0.23,0.27 0.04,-0.02 0,-0.18 -0.09,-0.34 -0.09,-0.16 -0.2,-0.29 -0.23,-0.27 z"
       style="fill:#263238"
       id="path395" />
    <path
       d="m 361.61,446.87 c 0,0.05 0.16,0.1 0.32,0.21 0.16,0.11 0.27,0.25 0.31,0.23 0.04,-0.02 0,-0.21 -0.22,-0.36 -0.22,-0.15 -0.41,-0.12 -0.41,-0.08 z"
       style="fill:#263238"
       id="path397" />
    <path
       d="m 360.75,446.36 c 0,0 0,0.12 0.12,0.19 0.12,0.07 0.19,0.1 0.21,0.06 0.02,-0.04 0,-0.12 -0.12,-0.19 -0.12,-0.07 -0.18,-0.09 -0.21,-0.06 z"
       style="fill:#263238"
       id="path399" />
    <path
       d="m 407,299.67 c 0,0 -22.57,-0.65 -25,-2.41 -2.43,-1.76 -6.18,-15.69 -6.18,-15.69 l -14.59,4.6 0.87,0.21 c 0,0 7,21.45 14.07,22.61 7.07,1.16 30.81,0.78 30.81,0.78 l 12.53,0.31 C 419.53,299.67 407,299.67 407,299.67 Z"
       style="fill:#b78876"
       id="path401" />
    <path
       d="m 414.8,303.46 a 10.64,10.64 0 0 1 0.49,2.11 c 0.13,0.72 0.26,1.51 0.41,2.35 a 4.26,4.26 0 0 1 0.09,1.5 1.19,1.19 0 0 1 -1.41,1 h -0.11 v -0.12 q -0.27,-0.62 -0.57,-1.26 l -0.72,-1.64 c -0.12,-0.27 -0.19,-0.33 -0.4,-0.34 -0.21,-0.01 -0.51,0.07 -0.79,0.09 a 4.18,4.18 0 0 1 -2.79,-0.88 3.91,3.91 0 0 1 -1.22,-1.53 c -0.17,-0.43 -0.19,-0.69 -0.16,-0.7 a 5.3,5.3 0 0 0 1.6,1.94 3.92,3.92 0 0 0 2.53,0.69 c 0.25,0 0.48,-0.09 0.83,-0.11 a 0.84,0.84 0 0 1 0.55,0.18 1.11,1.11 0 0 1 0.31,0.45 c 0.24,0.53 0.49,1.07 0.74,1.64 l 0.56,1.26 -0.16,-0.14 c 0.31,0.11 0.73,-0.25 0.78,-0.64 a 3.77,3.77 0 0 0 -0.06,-1.33 q -0.17,-1.28 -0.3,-2.37 a 9.66,9.66 0 0 1 -0.2,-2.15 z"
       style="fill:#a36957"
       id="path403" />
    <polygon
       points="360.22,443.93 376.73,448.3 386.79,381.85 370.07,321.86 330.07,321.86 333.06,448.59 351.71,447.69 353.22,335.16 367.55,383.76 "
       style="fill:#455a64"
       id="polygon405" />
    <path
       d="m 342.37,322 a 1.71,1.71 0 0 1 0.05,0.69 7.85,7.85 0 0 1 -0.29,1.85 9.27,9.27 0 0 1 -9.36,6.81 8,8 0 0 1 -1.85,-0.28 c -0.42,-0.13 -0.64,-0.24 -0.63,-0.27 0.01,-0.03 0.95,0.21 2.49,0.18 a 9.5,9.5 0 0 0 9,-6.55 c 0.49,-1.43 0.49,-2.43 0.59,-2.43 z"
       style="fill:#263238"
       id="path407" />
    <path
       d="m 354.42,321.58 a 6.19,6.19 0 0 1 0.45,1.89 22.21,22.21 0 0 1 -0.71,9.31 5.84,5.84 0 0 1 -0.73,1.8 c -0.16,-0.05 0.8,-2.86 1.06,-6.46 0.26,-3.6 -0.23,-6.51 -0.07,-6.54 z"
       style="fill:#263238"
       id="path409" />
    <path
       d="m 351.8,322.54 c 0,-0.07 0.44,0 1.08,0.15 h 0.05 l 0.05,0.05 a 1.2,1.2 0 0 1 -0.78,1.92 1.25,1.25 0 0 1 -1.2,-0.73 1.05,1.05 0 0 1 0.13,-1.13 c 0.43,-0.5 0.85,-0.49 0.86,-0.44 0.01,0.05 -0.31,0.22 -0.55,0.64 a 0.72,0.72 0 0 0 0,0.71 0.82,0.82 0 0 0 0.74,0.43 0.72,0.72 0 0 0 0.56,-0.48 0.79,0.79 0 0 0 -0.05,-0.67 l 0.09,0.06 c -0.63,-0.24 -1,-0.43 -0.98,-0.51 z"
       style="fill:#263238"
       id="path411" />
    <path
       d="m 372.68,330.4 a 4.68,4.68 0 0 1 -2.23,0.48 7.93,7.93 0 0 1 -8,-6.44 4.55,4.55 0 0 1 0,-2.28 c 0.09,0 0,0.88 0.37,2.2 a 8.09,8.09 0 0 0 7.68,6.15 c 1.32,0.05 2.15,-0.2 2.18,-0.11 z"
       style="fill:#263238"
       id="path413" />
    <path
       d="m 374,382 a 20.25,20.25 0 0 1 -6.31,1.47 10,10 0 0 1 3.09,-1 A 10.13,10.13 0 0 1 374,382 Z"
       style="fill:#263238"
       id="path415" />
    <path
       d="m 374.29,384.18 a 104.59,104.59 0 0 1 -6.48,-0.7 7.66,7.66 0 0 1 3.29,-0.12 7.51,7.51 0 0 1 3.19,0.82 z"
       style="fill:#263238"
       id="path417" />
    <path
       d="m 377.71,443.73 a 71.6,71.6 0 0 1 -8.38,-1.46 67.15,67.15 0 0 1 -8.28,-2 70.51,70.51 0 0 1 8.38,1.47 68.32,68.32 0 0 1 8.28,1.99 z"
       style="fill:#263238"
       id="path419" />
    <path
       d="m 351,443.08 a 11.51,11.51 0 0 1 -2.63,0.66 58.35,58.35 0 0 1 -6.5,0.82 56.23,56.23 0 0 1 -6.55,0.06 12.3,12.3 0 0 1 -2.69,-0.3 15.62,15.62 0 0 1 2.7,-0.07 c 1.67,0 4,0 6.51,-0.21 2.51,-0.21 4.82,-0.44 6.47,-0.66 a 18.11,18.11 0 0 1 2.69,-0.3 z"
       style="fill:#263238"
       id="path421" />
    <path
       d="m 329.88,266.17 c 0,0 -17.19,14.95 -17.63,13.13 -2.42,-9.9 -1.39,-20.89 -1.41,-26.51 h -0.1 a 5.11,5.11 0 0 1 1.1,-2 6.16,6.16 0 0 1 1.43,-1.58 9.68,9.68 0 0 1 2.22,-1.44 c 0.77,-0.27 0.83,-1.32 0.14,-1.53 -0.69,-0.21 -2.83,0.49 -4.74,2.3 -1.91,1.81 -1.34,-2.24 -1.16,-3.72 0.18,-1.48 0.53,-6.07 0.12,-6.48 -0.6,-0.59 -1.37,0 -1.51,1.44 -0.14,1.44 -0.91,5.89 -1.68,5.78 -0.77,-0.11 0.26,-7.63 0.26,-7.63 0,0 0.48,-1.57 -0.41,-1.73 -1.62,-0.29 -2.12,7.76 -2.15,8.53 0,0.53 -0.87,0.44 -0.82,-0.13 0.05,-0.57 1.2,-7.48 -0.43,-7.79 -1.26,-0.24 -0.48,6.62 -1.51,7.94 -1.03,1.32 -0.06,-5.28 -1.27,-5.46 -0.45,-0.06 -0.8,-0.05 -0.81,3.8 0,2.07 0.79,5.2 0.48,9.19 h 0.16 c -1.08,11.45 -2.7,42.47 11.68,41.37 17.42,-1.33 21.43,-15.06 21.43,-15.06 z"
       style="fill:#b78876"
       id="path423" />
    <path
       d="m 335.69,300 c 0.83,-1.52 -3.6,-17.22 -3.6,-17.22 l -5.69,5.62 -10,-12.05 c 0,0 4.28,-4 10.56,-10.86 6.28,-6.86 16.14,-5.61 16.14,-5.61 l 13.46,0.22 a 31.44,31.44 0 0 1 10,2.9 l 0.33,0.1 v 0.07 c 3.81,2 7.9,5.08 8.54,10.3 l 1.57,10.13 -9.36,0.45 v 0 c 0.95,3.4 2,3.84 0.91,7.2 l -3.55,5.91 c 0,4.72 3.64,14.48 5.09,24.7 h -40 a 49.7,49.7 0 0 1 5.6,-21.86 z"
       style="fill:#263238"
       id="path425" />
    <path
       d="m 335.69,279.64 a 41.6,41.6 0 0 1 -4.15,3.61 39.06,39.06 0 0 1 -4.31,3.43 23.76,23.76 0 0 1 4,-3.83 23.07,23.07 0 0 1 4.46,-3.21 z"
       style="fill:#455a64"
       id="path427" />
    <path
       d="m 365.17,278.93 c 0.09,0 0.3,1 1.05,2.6 0.36,0.78 0.84,1.69 1.35,2.73 a 13.41,13.41 0 0 1 1.24,3.59 7,7 0 0 1 -0.42,3.8 11.42,11.42 0 0 1 -1.55,2.69 10.77,10.77 0 0 1 -1.88,2.1 25,25 0 0 1 1.58,-2.32 12,12 0 0 0 1.4,-2.64 6.75,6.75 0 0 0 0.36,-3.55 14,14 0 0 0 -1.17,-3.47 c -0.47,-1 -0.93,-2 -1.25,-2.79 a 7.1,7.1 0 0 1 -0.71,-2.74 z"
       style="fill:#455a64"
       id="path429" />
    <path
       d="m 375.27,278.5 c 0,0 0.08,0.15 0,0.43 a 1.86,1.86 0 0 1 -0.63,1 3.07,3.07 0 0 1 -1.63,0.71 6.48,6.48 0 0 1 -2.12,-0.21 14.31,14.31 0 0 0 -2,-0.42 3.8,3.8 0 0 0 -1.56,0.17 3.49,3.49 0 0 0 -1.21,0.82 c -0.06,0 0.1,-0.72 1.07,-1.16 a 3.7,3.7 0 0 1 1.73,-0.3 11.18,11.18 0 0 1 2.07,0.38 6.24,6.24 0 0 0 1.94,0.24 2.91,2.91 0 0 0 1.45,-0.52 c 0.81,-0.5 0.8,-1.16 0.89,-1.14 z"
       style="fill:#455a64"
       id="path431" />
    <path
       d="m 372.36,267.16 a 1.56,1.56 0 0 1 -0.2,0.47 4,4 0 0 1 -1,1.09 6.47,6.47 0 0 1 -5.09,1.2 15.62,15.62 0 0 1 -3.52,-1 c -1.22,-0.49 -2.48,-1.09 -3.86,-1.53 a 9,9 0 0 0 -4.42,-0.44 9.57,9.57 0 0 0 -4.16,2.32 17.43,17.43 0 0 1 -4.11,2.86 6.64,6.64 0 0 1 -4.68,0.12 10.23,10.23 0 0 1 -5.72,-5.25 14.82,14.82 0 0 0 -1.45,-2.58 3.65,3.65 0 0 0 -1.74,-1.28 2.67,2.67 0 0 0 -1.84,0 1.36,1.36 0 0 1 0.44,-0.23 2.53,2.53 0 0 1 1.46,0 3.94,3.94 0 0 1 1.91,1.29 14.75,14.75 0 0 1 1.54,2.6 10.09,10.09 0 0 0 5.59,4.93 6.25,6.25 0 0 0 4.34,-0.14 17.12,17.12 0 0 0 4,-2.79 9.86,9.86 0 0 1 4.4,-2.42 9.51,9.51 0 0 1 4.66,0.48 c 1.41,0.47 2.67,1.09 3.87,1.59 a 16,16 0 0 0 3.42,1.08 6.48,6.48 0 0 0 4.91,-1 5.75,5.75 0 0 0 1.25,-1.37 z"
       style="fill:#455a64"
       id="path433" />
    <path
       d="m 333.13,281.8 a 1.22,1.22 0 0 1 -0.63,-0.29 3.74,3.74 0 0 1 -1.15,-1.5 18.51,18.51 0 0 1 -0.82,-2.62 8.48,8.48 0 0 0 -1.54,-2.83 9.37,9.37 0 0 0 -4.93,-3.09 19.29,19.29 0 0 0 -2.46,-0.34 c 0,0 0.23,-0.09 0.67,-0.14 a 6.87,6.87 0 0 1 1.87,0.12 9.05,9.05 0 0 1 5.25,3.12 8.35,8.35 0 0 1 1.6,3 c 0.27,1 0.42,1.92 0.7,2.62 a 4.37,4.37 0 0 0 1.44,1.95 z"
       style="fill:#455a64"
       id="path435" />
    <path
       d="m 368,290.32 c 0,0 -0.06,0.12 -0.23,0.31 a 2.43,2.43 0 0 1 -1,0.58 4.7,4.7 0 0 1 -3.9,-0.77 24.81,24.81 0 0 1 -2.14,-1.76 7.72,7.72 0 0 0 -2.58,-1.63 6.41,6.41 0 0 0 -3.32,-0.09 13.75,13.75 0 0 0 -3.42,1.33 c -1.13,0.58 -2.22,1.22 -3.34,1.73 a 12.92,12.92 0 0 1 -3.38,1.05 13.61,13.61 0 0 1 -5.95,-0.37 12.58,12.58 0 0 1 -3.63,-1.71 7.71,7.71 0 0 1 -0.86,-0.67 c -0.19,-0.16 -0.28,-0.26 -0.27,-0.27 a 17,17 0 0 0 4.86,2.29 13.59,13.59 0 0 0 5.77,0.25 12.49,12.49 0 0 0 3.25,-1 c 1.09,-0.5 2.16,-1.14 3.31,-1.74 a 14.52,14.52 0 0 1 3.55,-1.36 6.86,6.86 0 0 1 3.58,0.14 8,8 0 0 1 2.71,1.75 23.4,23.4 0 0 0 2.07,1.78 4.58,4.58 0 0 0 3.64,0.88 3.22,3.22 0 0 0 1.28,-0.72 z"
       style="fill:#455a64"
       id="path437" />
    <path
       d="m 365.76,303 a 7.67,7.67 0 0 0 -1,-0.78 5.17,5.17 0 0 0 -3.36,-0.55 11.69,11.69 0 0 0 -4.66,2.19 c -1.63,1.09 -3.48,2.51 -5.89,2.83 a 6.52,6.52 0 0 1 -3.41,-0.56 12.69,12.69 0 0 1 -2.7,-1.67 c -1.58,-1.25 -2.86,-2.49 -4.12,-3.3 a 8.75,8.75 0 0 0 -3.2,-1.38 c -0.82,-0.14 -1.29,-0.09 -1.29,-0.14 a 1,1 0 0 1 0.34,-0.06 4.47,4.47 0 0 1 1,0 8.18,8.18 0 0 1 3.37,1.27 c 1.31,0.79 2.65,2 4.21,3.23 1.56,1.23 3.52,2.37 5.76,2.09 2.24,-0.28 4,-1.63 5.68,-2.71 a 11.67,11.67 0 0 1 4.89,-2.16 5.23,5.23 0 0 1 3.51,0.74 3.3,3.3 0 0 1 0.73,0.67 c 0.1,0.17 0.16,0.29 0.14,0.29 z"
       style="fill:#455a64"
       id="path439" />
    <path
       d="m 368.2,314.53 c 0,0 0,0.15 -0.18,0.38 a 3.13,3.13 0 0 1 -0.86,0.87 5.15,5.15 0 0 1 -4.37,0.47 c -1.87,-0.53 -3.64,-2 -5.79,-3.09 a 6.68,6.68 0 0 0 -3.59,-0.79 9.29,9.29 0 0 0 -3.74,1.44 c -1.2,0.73 -2.35,1.54 -3.57,2.15 a 8.45,8.45 0 0 1 -3.83,1 11.75,11.75 0 0 1 -6.27,-2 26.4,26.4 0 0 1 -3.5,-2.71 8.16,8.16 0 0 1 -1.16,-1.14 11.64,11.64 0 0 1 1.29,1 31.81,31.81 0 0 0 3.56,2.56 11.71,11.71 0 0 0 6.08,1.81 8,8 0 0 0 3.6,-0.94 c 1.17,-0.59 2.31,-1.39 3.54,-2.13 a 9.6,9.6 0 0 1 3.95,-1.51 7.07,7.07 0 0 1 3.85,0.87 35.16,35.16 0 0 1 3,1.82 12.71,12.71 0 0 0 2.68,1.35 5,5 0 0 0 4.15,-0.29 4.69,4.69 0 0 0 1.16,-1.12 z"
       style="fill:#455a64"
       id="path441" />
  </g>
</svg>
